<?xml version="1.0" encoding="UTF-8"?>
<svg width="239px" height="241px" viewBox="0 0 239 241" version="1.1" xmlns="http://www.w3.org/2000/svg" xmlns:xlink="http://www.w3.org/1999/xlink">
    <title>编组 71</title>
    <defs>
        <linearGradient x1="50%" y1="2.11019482%" x2="50%" y2="94.7852905%" id="linearGradient-1">
            <stop stop-color="#FFF6EE" offset="0%"></stop>
            <stop stop-color="#FFFFFF" offset="100%"></stop>
        </linearGradient>
        <linearGradient x1="50%" y1="0%" x2="50%" y2="99.3908435%" id="linearGradient-2">
            <stop stop-color="#FFEBD7" offset="0%"></stop>
            <stop stop-color="#FFF8F3" offset="100%"></stop>
        </linearGradient>
        <path d="M13.5340561,13.6057397 C13.5340561,17.28167 6.6525895,19.194696 6.70809819,21.9669866 C6.52745436,19.1787146 -0.117859758,17.28167 -0.117859758,13.6057397 L-0.117859758,13.6057397 L-0.117859758,6.94987913 C-0.117859758,3.18000665 2.93822571,0.123921179 6.70809819,0.123921179 C10.4779707,0.123921179 13.5340561,3.18000665 13.5340561,6.94987913 Z" id="path-3"></path>
        <linearGradient x1="18.1065207%" y1="91.7162138%" x2="63.9206876%" y2="8.28378625%" id="linearGradient-5">
            <stop stop-color="#FFC99B" offset="0%"></stop>
            <stop stop-color="#FFE5CA" offset="100%"></stop>
        </linearGradient>
        <linearGradient x1="18.1065207%" y1="79.2573348%" x2="63.9206876%" y2="20.7426652%" id="linearGradient-6">
            <stop stop-color="#FFC99B" offset="0%"></stop>
            <stop stop-color="#FFE5CA" offset="100%"></stop>
        </linearGradient>
        <linearGradient x1="41.780286%" y1="100%" x2="53.5876948%" y2="-8.62663847e-14%" id="linearGradient-7">
            <stop stop-color="#FFC99B" offset="0%"></stop>
            <stop stop-color="#FFE5CA" offset="100%"></stop>
        </linearGradient>
        <linearGradient x1="18.1065207%" y1="67.0929895%" x2="63.9206876%" y2="32.9070105%" id="linearGradient-8">
            <stop stop-color="#FFC99B" offset="0%"></stop>
            <stop stop-color="#FFE5CA" offset="100%"></stop>
        </linearGradient>
        <linearGradient x1="18.1065207%" y1="76.6529987%" x2="63.9206876%" y2="23.3470013%" id="linearGradient-9">
            <stop stop-color="#FFC99B" offset="0%"></stop>
            <stop stop-color="#FFE5CA" offset="100%"></stop>
        </linearGradient>
        <linearGradient x1="77.2639565%" y1="106.757573%" x2="3.8013954%" y2="7.46294362%" id="linearGradient-10">
            <stop stop-color="#FF7500" offset="0%"></stop>
            <stop stop-color="#FF821D" offset="100%"></stop>
        </linearGradient>
        <linearGradient x1="18.1065207%" y1="66.1640348%" x2="63.9206876%" y2="33.8359652%" id="linearGradient-11">
            <stop stop-color="#FFC99B" offset="0%"></stop>
            <stop stop-color="#FFE5CA" offset="100%"></stop>
        </linearGradient>
        <linearGradient x1="72.3548623%" y1="106.757573%" x2="12.1198249%" y2="7.46294362%" id="linearGradient-12">
            <stop stop-color="#FFC89A" offset="0%"></stop>
            <stop stop-color="#FF821D" offset="100%"></stop>
        </linearGradient>
        <linearGradient x1="18.1065207%" y1="70.0687143%" x2="63.9206876%" y2="29.9312857%" id="linearGradient-13">
            <stop stop-color="#FFC99B" offset="0%"></stop>
            <stop stop-color="#FFE5CA" offset="100%"></stop>
        </linearGradient>
        <linearGradient x1="82.6396514%" y1="83.2115062%" x2="-5.30768624%" y2="25.109582%" id="linearGradient-14">
            <stop stop-color="#FF7500" offset="0%"></stop>
            <stop stop-color="#FF821D" offset="100%"></stop>
        </linearGradient>
    </defs>
    <g id="2025-大魔当" stroke="none" stroke-width="1" fill="none" fill-rule="evenodd">
        <g id="没有信号，无法加载的空页面" transform="translate(-960.000000, -340.000000)">
            <g id="编组-87" transform="translate(948.000000, 341.000000)">
                <g id="编组-71" transform="translate(13.000000, 0.000000)">
                    <path d="M81.8165886,224.184184 C-5.40719248,215.350271 29.3633937,83.6063481 86.9885395,60.2870385 C144.613685,36.967729 163.210276,71.451231 159.383877,96.0043492 C155.557477,120.557467 290.22904,153.088199 214.848237,220.984732 C134.780091,233.932743 112.06639,230.342931 81.8165886,224.184184 Z" id="路径-3备份-4" fill="url(#linearGradient-1)"></path>
                    <ellipse id="蒙版备份-5" fill="url(#linearGradient-2)" opacity="0.5" cx="118.994836" cy="223.999262" rx="111.994836" ry="15.9992623"></ellipse>
                    <g id="编组-56" transform="translate(42.587288, 49.296741) rotate(31.000000) translate(-42.587288, -49.296741) translate(18.912303, 6.010883)">
                        <path d="M12.4695323,42.1484831 C12.0632074,43.4885072 11.7089179,44.7985776 11.4060947,46.0830714 C11.2540274,46.7280998 11.6536513,47.3742735 12.2986797,47.5263408 C12.9437081,47.6784081 13.5898818,47.2787842 13.7419491,46.6337558 C14.0330094,45.3991567 14.3741795,44.1375985 14.7661627,42.8448723 C14.9584652,42.2106753 14.6002391,41.5406651 13.9660421,41.3483625 C13.3318451,41.15606 12.6618349,41.5142862 12.4695323,42.1484831 Z M10.2932392,52.550768 C10.1485383,53.9407685 10.0708384,55.308391 10.0605017,56.6582774 C10.0554272,57.3209691 10.5885313,57.8623006 11.251223,57.867411 C11.9139148,57.8724496 12.4552462,57.3393455 12.4603207,56.6766538 C12.4700621,55.4045003 12.5434015,54.1136286 12.6802294,52.799257 C12.7488478,52.1401079 12.270128,51.5501358 11.6109788,51.4815175 C10.9518297,51.4128991 10.3618576,51.8916189 10.2932392,52.550768 Z M10.5698043,63.2663872 C10.7927598,64.6182548 11.0893321,65.9607093 11.4606543,67.2980001 C11.6379594,67.9365524 12.2993425,68.3104669 12.9378948,68.1331618 C13.576447,67.9558566 13.9503616,67.2944735 13.7730564,66.6559213 C13.4246653,65.4012151 13.1466424,64.1427259 12.9377063,62.8758632 C12.8298661,62.2219851 12.2123714,61.7793339 11.5584933,61.8871742 C10.9046152,61.9950144 10.4619641,62.6125091 10.5698043,63.2663872 Z M13.7200195,73.4723857 C14.2719037,74.6871291 14.8883321,75.9049324 15.5708131,77.1291265 C15.8935113,77.7079632 16.6243497,77.9156046 17.2031864,77.5929065 C17.7820232,77.2702084 17.9896646,76.53937 17.6669664,75.9605332 C17.0160789,74.7930097 16.4293214,73.6338235 15.9049825,72.4797097 C15.6308626,71.8763489 14.9195239,71.6094463 14.316163,71.8835662 C13.7128022,72.1576861 13.4458996,72.8690249 13.7200195,73.4723857 Z M19.0848848,82.6810646 C19.8433595,83.7547564 20.6533692,84.8385719 21.5164416,85.9348658 C21.9263775,86.4555756 22.6808148,86.5453756 23.2015245,86.1354397 C23.7222343,85.7255038 23.8120343,84.9710665 23.4020984,84.4503567 C22.56431,83.3861791 21.7791376,82.3355966 21.0450228,81.2963887 C20.6626551,80.7551115 19.913893,80.6262899 19.3726158,81.0086576 C18.8313386,81.3910253 18.702517,82.1397875 19.0848848,82.6810646 Z" id="路径-23" fill="#FF7400" fill-rule="nonzero"></path>
                        <g id="编组-15" transform="translate(23.674985, 20.996500) rotate(32.000000) translate(-23.674985, -20.996500) translate(3.256041, 8.997053)">
                            <path d="M6.14336215,18.5381271 C9.53624738,18.5381271 13.5340561,15.7876502 13.5340561,12.394765 C13.5340561,9.00187973 9.53624738,6.25140281 6.14336215,6.25140281 C2.75047692,6.25140281 0,9.00187973 0,12.394765 C0,15.7876502 2.75047692,18.5381271 6.14336215,18.5381271 Z" id="椭圆形" fill="#FFE1C7"></path>
                            <path d="M33.4471939,18.5381271 C36.8400792,18.5381271 40.8378879,15.7876502 40.8378879,12.394765 C40.8378879,9.00187973 36.8400792,6.25140281 33.4471939,6.25140281 C30.0543087,6.25140281 27.3038318,9.00187973 27.3038318,12.394765 C27.3038318,15.7876502 30.0543087,18.5381271 33.4471939,18.5381271 Z" id="椭圆形备份-2" fill="#FFE1C7" transform="translate(34.070860, 12.394765) scale(-1, 1) translate(-34.070860, -12.394765) "></path>
                            <g id="路径-50-+-路径-50备份-蒙版" transform="translate(13.651916, 2.155828)">
                                <mask id="mask-4" fill="white">
                                    <use xlink:href="#path-3"></use>
                                </mask>
                                <use id="蒙版" fill="#FF7400" xlink:href="#path-3"></use>
                                <polygon id="路径-50" fill="#FFFFFF" fill-rule="nonzero" mask="url(#mask-4)" points="16.3822991 5.46076636 16.3822991 8.19114954 -2.73038318 8.19114954 -2.73038318 5.46076636"></polygon>
                                <polygon id="路径-50备份" fill="#FFFFFF" fill-rule="nonzero" mask="url(#mask-4)" points="16.3822991 10.9215327 16.3822991 13.6519159 -2.73038318 13.6519159 -2.73038318 10.9215327"></polygon>
                            </g>
                            <polygon id="路径-51" fill="#FF7400" fill-rule="nonzero" points="14.134584 0 18.2871134 4.15252937 17.3217771 5.1178656 13.1692478 0.96533623"></polygon>
                            <polygon id="路径-51备份" fill="#FF7400" fill-rule="nonzero" transform="translate(25.284522, 2.558933) scale(-1, 1) translate(-25.284522, -2.558933) " points="23.6909251 0 27.8434545 4.15252937 26.8781183 5.1178656 22.7255889 0.96533623"></polygon>
                        </g>
                    </g>
                    <g id="编组-53" transform="translate(173.894002, 136.303025) rotate(86.000000) translate(-173.894002, -136.303025) translate(97.261107, 84.040556)">
                        <g id="编组-51" transform="translate(0.000000, 0.000000)">
                            <path d="M32.0936212,32.2103577 C44.3508237,19.4782146 21.2447388,-2.57004266 5.6112327e-12,0.245761927 C11.408046,5.7888074 5.84941187,35.2674264 32.0936212,32.2103577 Z" id="形状结合" fill="url(#linearGradient-5)"></path>
                            <path d="M122.621609,6.49174505 C104.68353,13.7935023 95.0984062,27.6778645 93.8662375,48.1448314 C92.0179845,78.8452818 77.1245916,77.3897766 65.3239122,95.5688874 C57.4567926,107.688295 55.3683318,118.782472 59.0585297,128.851421" id="路径-46" stroke="#FF7400" stroke-width="1.5" opacity="0.335216704" transform="translate(89.956372, 67.671583) rotate(-86.000000) translate(-89.956372, -67.671583) "></path>
                            <path d="M118.306362,89.6164255 L118.117313,89.2796123 C123.491182,87.5676974 126.717493,85.9905585 127.796246,84.5481957 C128.477268,83.551793 127.439175,76.6177631 134.876989,67.1710833 C141.899015,58.2524908 153.604528,62.2545328 155.044009,62.3263033 C145.317988,71.2078071 153.649973,87.79723 128.382932,85.0467481 C125.755565,87.560162 118.325797,89.6185026 118.306362,89.6164255 Z" id="形状结合" fill="url(#linearGradient-6)" transform="translate(136.580661, 75.493185) rotate(-86.000000) translate(-136.580661, -75.493185) "></path>
                            <path d="M57.3016817,58.3986975 L57.3688404,58.3041368 C57.2961631,57.5158892 57.2636292,57.1154186 57.2712385,57.1027251 C61.825872,49.5049182 58.9859943,43.5034272 50.8314462,38.5578654 C49.0340562,44.7928549 47.0672914,51.0289014 57.033879,57.1904716 C57.094179,57.2290266 57.1834465,57.6317686 57.3016817,58.3986975 Z" id="形状结合" fill="url(#linearGradient-7)" transform="translate(54.404117, 48.478313) rotate(3.000000) translate(-54.404117, -48.478313) "></path>
                            <path d="M91.2034379,89.6383348 L91.2705966,89.5437741 C91.1979194,88.7555265 91.1653854,88.3550559 91.1729948,88.3423624 C95.7276283,80.7445556 92.8877506,74.7430645 84.7332025,69.7975027 C82.9358124,76.0324922 80.9690477,82.2685387 90.9356352,88.4301089 C90.9959352,88.468664 91.0852028,88.8714059 91.2034379,89.6383348 Z" id="形状结合备份-9" fill="url(#linearGradient-7)" transform="translate(88.305873, 79.717950) rotate(-86.000000) translate(-88.305873, -79.717950) "></path>
                        </g>
                        <path d="M31.4753443,32.2713928 C29.8246461,22.8045163 16.34348,9.42713513 10.3389674,2.80405419 C16.6783869,9.41471201 30.5570931,21.8041956 32.1505102,32.1734135 L31.4753443,32.2713928 Z" id="路径-44" fill="#FFFFFF"></path>
                    </g>
                    <g id="编组-50" transform="translate(26.985086, 144.660925)">
                        <g id="编组-52" transform="translate(50.784447, 41.767349) rotate(11.000000) translate(-50.784447, -41.767349) translate(5.613462, 7.998603)">
                            <path d="M2.99570422e-12,0.245761927 C21.2447388,-2.57004266 44.3508237,19.4782146 32.0936212,32.2103577 L32.1272276,32.1751424 C32.1459106,32.1848114 32.1602413,32.1965499 32.1702197,32.2103577 C43.3413653,47.6686744 63.1615556,53.8822962 89.3213001,50.2436734 L89.3213001,50.2436734 L90.3419704,51.4948952 C78.1797012,53.7698136 66.6313914,53.1196482 55.6970412,49.5443992 C44.7626909,45.9691501 36.6600691,40.1911362 31.3891756,32.2103577 L31.4345286,32.2809762 C5.94222346,34.7705028 11.3115615,5.74192663 2.99570422e-12,0.245761927 Z" id="形状结合" fill="url(#linearGradient-8)"></path>
                            <path d="M65.5442732,59.797114 C62.1953592,44.9850229 51.9016319,40.3872069 36.4675751,43.3496717 C35.0965865,44.007087 34.0509919,42.00132 33.3307913,37.3323704 C32.7864034,36.9631499 32.5171688,36.7817309 32.5230873,36.7881134 C32.8905392,41.2803706 34.8230832,44.385743 34.9879936,44.6968434 C40.2224118,54.5714769 45.6988266,64.2094806 65.5442732,59.797114 Z" id="路径-41备份-2" fill="url(#linearGradient-9)" transform="translate(49.033680, 48.842655) rotate(150.000000) translate(-49.033680, -48.842655) "></path>
                        </g>
                        <path d="M91.070348,61.2122717 C91.0734644,61.1838829 91.3973317,61.1594836 92.0419498,61.1390739 C89.7464736,57.6137264 88.5898322,55.5999907 88.5720255,55.0978667 C87.8671014,35.2200073 78.0404898,25.1876807 57.0180218,22.8905702 C59.2689642,37.2335637 61.1778919,51.7386476 87.1517358,54.8386955 C88.0931232,54.9527603 90.925233,61.1956797 91.070348,61.2122717 Z" id="形状结合" fill="url(#linearGradient-10)" opacity="0.178896949" transform="translate(74.529986, 42.051350) rotate(19.000000) translate(-74.529986, -42.051350) "></path>
                    </g>
                    <path d="M126.158975,205.058456 C117.323977,191.55075 115.389377,179.443008 113.684231,158.587208" id="路径" stroke="#FF7400"></path>
                    <path d="M46.6447905,183.993066 C50.6987717,185.084591 54.8973729,189.499094 54.8006962,188.271334 C52.2033279,178.354621 44.7383599,175.597063 33.6980159,178.098088 C37.3635702,185.015549 39.9486613,191.402641 53.6365457,188.520036 C53.7789831,188.490039 49.1489856,184.820887 46.6447905,183.993066 Z" id="路径-41备份" fill="url(#linearGradient-11)" transform="translate(44.250175, 183.229721) rotate(-26.000000) translate(-44.250175, -183.229721) "></path>
                    <g id="编组-49" transform="translate(21.761863, 79.207414)">
                        <circle id="椭圆形" fill="#FF7400" cx="97.3995205" cy="127.399521" r="10.3995205"></circle>
                        <path d="M97.2287615,41 C123.298122,41 147.309611,53.0950129 162.122444,73.1066203 C164.845741,76.7856959 164.170199,82.0518552 160.613581,84.8689163 C157.056962,87.6859775 151.966085,86.9871767 149.242789,83.3081011 C137.519785,67.4707439 118.281765,57.7802116 97.2287615,57.7802116 C76.3587432,57.7802116 57.2668052,67.3018124 45.5095829,82.9132045 C42.7566418,86.5685955 37.660294,87.2233367 34.1265715,84.3756099 C30.592849,81.5278832 29.9599007,76.2560647 32.7128418,72.6006737 C47.5631871,52.8821927 71.3883918,41 97.2287615,41 Z" id="路径" fill="#FFE6CF"></path>
                        <path d="M97.3371076,0 C136.024919,0 171.617028,16.9535731 193.534461,44.9532991 C196.233491,48.4013342 195.563969,53.3367866 192.039043,55.9769405 C188.514117,58.6170944 183.468604,57.9621773 180.769575,54.5141422 C161.914439,30.4265298 131.053262,15.7264395 97.3371076,15.7264395 C63.9146579,15.7264395 33.2889012,30.1697598 14.3802898,53.9117329 C11.6518798,57.3375707 6.60094492,57.9511951 3.09871101,55.2823014 C-0.403522897,52.6134076 -1.03083112,47.6726514 1.69757889,44.2468136 C23.6717509,16.6556707 58.9885967,0 97.3371076,0 Z" id="路径备份-2" fill="#FFE6CF"></path>
                        <path d="M97.3225056,81 C110.458437,81 122.59929,87.2484583 130.128709,97.6414757 C132.846606,101.393047 132.172404,106.762976 128.622836,109.635548 C125.145709,112.449495 120.199226,111.82314 117.443908,108.269863 L117.274587,108.043977 C112.828874,101.907463 105.452025,98.1108655 97.3225056,98.1108655 C89.415054,98.1108655 82.2176344,101.702366 77.7363265,107.552885 L77.4808172,107.892912 C74.7333339,111.620332 69.6470898,112.287975 66.120373,109.384134 C62.5936562,106.480292 61.9619627,101.104593 64.7094461,97.3771725 C72.2566928,87.138071 84.3024901,81 97.3225056,81 Z" id="路径备份" fill="#FF7400"></path>
                    </g>
                    <path d="M115.173272,185.47249 C115.181022,185.461622 115.188771,185.440888 115.197063,185.429943 C115.93048,184.956923 116.801219,184.416152 117.524018,183.787206 C118.664209,182.787057 119.645533,181.532864 120.527973,180.213386 C121.658167,178.604639 122.515809,176.767128 123.119265,174.826335 C123.349737,173.97849 124.109424,172.12487 123.568739,171.46016 C123.04177,171.118324 121.688855,172.058738 121.165451,172.424622 C119.063289,173.984344 117.349211,176.00325 116.155294,178.325775 C115.367011,179.927585 115.121195,181.820052 115.369258,183.537554 C115.400256,183.926869 115.448769,184.412144 115.365384,184.787354 C115.305263,184.99181 115.21512,185.186317 115.097869,185.364582 C115.083069,185.374501 115.069583,185.386231 115.057727,185.399498 C115.047663,185.414751 115.042278,185.432587 115.042228,185.450831 C114.88513,185.658778 114.714261,185.85607 114.530758,186.041394 C114.482788,186.097043 114.435051,186.162558 114.387081,186.218208 C114.40599,185.881228 114.424899,185.544171 114.435516,185.198405 C114.436213,183.75229 113.842056,183.763851 113.862127,184.990837 C113.864995,185.659324 113.835159,186.322493 113.789049,186.987819 C113.842868,187.463399 113.48815,189.644542 113.217288,190.862239 C113.138287,190.517727 113.017953,190.183904 112.858872,189.867948 C112.679308,189.551776 112.422913,189.285424 112.113133,189.093249 C111.39847,188.727597 110.664666,188.67927 109.97426,188.300437 C109.37491,188.007545 108.920322,187.597034 108.39932,187.126404 C108.06857,186.826883 107.737354,186.497842 107.327636,186.346695 C106.639477,186.10529 105.873202,186.563049 105.287104,187.084936 C105.070582,187.291348 104.845923,187.498762 104.645984,187.722515 C104.462785,187.973555 104.605609,188.239547 104.76308,188.405185 C105.09445,188.743937 105.512848,188.923526 105.938608,189.06265 C106.43979,189.226938 106.932262,189.416431 107.414121,189.630397 C107.988982,189.916661 108.580427,190.220266 109.2527,189.991656 C109.641804,189.880049 109.988906,189.66593 110.337636,189.599027 C111.077484,189.518636 111.691636,190.212712 112.271379,190.793717 C112.449797,190.969364 112.666613,191.101626 112.904904,191.18018 C112.983012,191.209062 113.067157,191.217993 113.149634,191.206155 C113.016355,191.797768 112.811114,192.599845 112.666512,193.188623 C112.666092,193.191342 112.67891,194.583993 112.67595,194.585549 C112.811277,194.112601 113.340414,192.424481 113.463181,191.95064 C113.639742,191.944343 113.813416,191.904169 113.974651,191.832327 C114.122467,191.751715 114.257931,191.65049 114.376929,191.531728 C114.393823,191.568802 114.450705,191.561094 114.499295,191.544677 C114.759059,191.489875 115.028433,191.522324 115.321289,191.502361 C115.659657,191.472877 115.99603,191.42398 116.328729,191.355915 C117.148321,191.166461 117.932109,190.785008 118.690092,190.318462 C119.999769,189.573964 121.13091,188.554977 122.005036,187.332199 C122.315018,186.867271 122.649333,186.389241 122.786578,185.819798 C122.809051,185.69871 122.855393,185.544865 122.78061,185.456612 C122.705827,185.368359 122.576487,185.425165 122.478378,185.408901 C122.29564,185.412966 122.112887,185.401491 121.932113,185.374602 C121.270457,185.257523 120.600819,185.151079 119.91142,185.333058 C118.499763,185.671579 116.629334,187.341062 115.856007,188.862173 C115.491779,189.521334 115.2603,190.280386 114.853991,190.837266 C114.632125,191.120934 114.376516,191.376819 114.092754,191.599324 C113.927268,191.711208 113.733631,191.774853 113.533702,191.783075 L113.517505,191.78531 C113.578649,191.540977 113.639638,191.286778 113.700782,191.042444 C114.023609,189.52753 114.243342,187.992685 114.358486,186.448359 C114.62197,186.107834 114.902581,185.853403 115.173272,185.47249 Z" id="形状备份" fill="url(#linearGradient-12)" transform="translate(114.159484, 182.986083) scale(-1, 1) rotate(21.000000) translate(-114.159484, -182.986083) "></path>
                    <path d="M159.502781,151.034254 L159.404272,151.244062 C161.021035,150.996797 162.112679,150.964578 162.679203,151.147407 C177.536715,155.916461 186.575909,148.310133 191.845316,132.316948 C180.398648,131.700838 169.339026,130.101067 162.679203,149.644225 C162.508645,150.122121 161.449838,150.585464 159.502781,151.034254 Z" id="形状结合" fill="url(#linearGradient-13)"></path>
                    <path d="M133.541023,117.133167 L133.351975,116.796354 C138.725843,115.084439 141.952154,113.5073 143.030908,112.064938 C143.71193,111.068535 142.673837,104.134505 150.111651,94.6878253 C157.133677,85.7692328 168.83919,89.7712748 170.27867,89.8430453 C160.55265,98.7245491 168.884635,115.313972 143.617594,112.56349 C140.990227,115.076904 133.560458,117.135244 133.541023,117.133167 Z" id="形状结合" fill="url(#linearGradient-14)" transform="translate(151.815323, 103.009927) rotate(-86.000000) translate(-151.815323, -103.009927) "></path>
                </g>
            </g>
        </g>
    </g>
</svg>