<svg xmlns="http://www.w3.org/2000/svg" xmlns:xlink="http://www.w3.org/1999/xlink" width="239" height="241"><defs><linearGradient id="a" x1="50%" x2="50%" y1="2.11%" y2="94.785%"><stop offset="0%" stop-color="#FFF6EE"/><stop offset="100%" stop-color="#FFF"/></linearGradient><linearGradient id="b" x1="50%" x2="50%" y1="0%" y2="99.391%"><stop offset="0%" stop-color="#FFEBD7"/><stop offset="100%" stop-color="#FFF8F3"/></linearGradient><linearGradient id="e" x1="18.107%" x2="63.921%" y1="91.716%" y2="8.284%"><stop offset="0%" stop-color="#FFC99B"/><stop offset="100%" stop-color="#FFE5CA"/></linearGradient><linearGradient id="f" x1="18.107%" x2="63.921%" y1="79.257%" y2="20.743%"><stop offset="0%" stop-color="#FFC99B"/><stop offset="100%" stop-color="#FFE5CA"/></linearGradient><linearGradient id="g" x1="41.78%" x2="53.588%" y1="100%" y2="0%"><stop offset="0%" stop-color="#FFC99B"/><stop offset="100%" stop-color="#FFE5CA"/></linearGradient><linearGradient id="h" x1="18.107%" x2="63.921%" y1="67.093%" y2="32.907%"><stop offset="0%" stop-color="#FFC99B"/><stop offset="100%" stop-color="#FFE5CA"/></linearGradient><linearGradient id="i" x1="18.107%" x2="63.921%" y1="76.653%" y2="23.347%"><stop offset="0%" stop-color="#FFC99B"/><stop offset="100%" stop-color="#FFE5CA"/></linearGradient><linearGradient id="j" x1="77.264%" x2="3.801%" y1="106.758%" y2="7.463%"><stop offset="0%" stop-color="#FF7500"/><stop offset="100%" stop-color="#FF821D"/></linearGradient><linearGradient id="k" x1="18.107%" x2="63.921%" y1="66.164%" y2="33.836%"><stop offset="0%" stop-color="#FFC99B"/><stop offset="100%" stop-color="#FFE5CA"/></linearGradient><linearGradient id="l" x1="72.355%" x2="12.12%" y1="106.758%" y2="7.463%"><stop offset="0%" stop-color="#FFC89A"/><stop offset="100%" stop-color="#FF821D"/></linearGradient><linearGradient id="m" x1="18.107%" x2="63.921%" y1="70.069%" y2="29.931%"><stop offset="0%" stop-color="#FFC99B"/><stop offset="100%" stop-color="#FFE5CA"/></linearGradient><linearGradient id="n" x1="82.64%" x2="-5.308%" y1="83.212%" y2="25.11%"><stop offset="0%" stop-color="#FF7500"/><stop offset="100%" stop-color="#FF821D"/></linearGradient><path id="c" d="M13.534 13.606c0 3.676-6.881 5.589-6.826 8.361-.18-2.788-6.826-4.685-6.826-8.361V6.95a6.826 6.826 0 1 1 13.652 0Z"/></defs><g fill="none" fill-rule="evenodd" transform="translate(1 1)"><path fill="url(#a)" d="M81.817 224.184C-5.407 215.35 29.363 83.606 86.989 60.287c57.625-23.32 76.221 11.164 72.395 35.717s130.845 57.084 55.464 124.98c-80.068 12.949-102.782 9.359-133.031 3.2"/><ellipse cx="118.995" cy="223.999" fill="url(#b)" opacity=".5" rx="111.995" ry="15.999"/><path fill="#FF7400" fill-rule="nonzero" d="M33.568 42.55a65 65 0 0 0-2.938 2.825 1.2 1.2 0 1 0 1.719 1.676 62 62 0 0 1 2.83-2.72 1.2 1.2 0 0 0-1.61-1.78Zm-7.223 7.796a43 43 0 0 0-2.315 3.401A1.2 1.2 0 0 0 26.078 55a40 40 0 0 1 2.185-3.21 1.2 1.2 0 1 0-1.918-1.443Zm-5.282 9.328a38 38 0 0 0-1.313 3.914 1.2 1.2 0 1 0 2.313.64 36 36 0 0 1 1.231-3.67 1.2 1.2 0 1 0-2.23-.884Zm-2.556 10.37a50 50 0 0 0-.297 4.088 1.2 1.2 0 0 0 2.399.078q.064-2.003.282-3.891a1.2 1.2 0 0 0-2.384-.275m-.144 10.657q.145 1.965.408 4.041a1.2 1.2 0 1 0 2.381-.3 76 76 0 0 1-.396-3.918 1.2 1.2 0 1 0-2.393.177"/><path fill="#FFE1C7" d="M41.76 20.44c1.54 3.023 5.806 5.336 8.83 3.796 3.022-1.54 3.658-6.351 2.118-9.374A6.143 6.143 0 0 0 41.76 20.44m12.962 25.44c-1.54-3.024-.904-7.835 2.119-9.375s7.288.773 8.829 3.796a6.143 6.143 0 0 1-10.948 5.578Z"/><g transform="rotate(63 13.815 58.61)"><mask id="d" fill="#fff"><use xlink:href="#c"/></mask><use xlink:href="#c" fill="#FF7400"/><path fill="#FFF" fill-rule="nonzero" d="M16.382 5.461v2.73H-2.73v-2.73zm0 5.461v2.73H-2.73v-2.73z" mask="url(#d)"/></g><path fill="#FF7400" fill-rule="nonzero" d="M61.906 19.144 60.09 24.73l-1.298-.421 1.815-5.586zm5.785 11.354-5.585-1.814-.422 1.298 5.585 1.814z"/><path fill="url(#e)" d="M32.094 32.21C44.35 19.478 21.244-2.57 0 .246 11.408 5.789 5.85 35.267 32.094 32.21" transform="rotate(86 80.202 146.433)"/><path stroke="#FF7400" stroke-width="1.5" d="M192.117 89.49q-26.907 10.95-28.755 41.652c-1.849 30.7-16.742 29.245-28.543 47.424q-11.8 18.18-6.265 33.283" opacity=".335"/><path fill="url(#f)" d="m118.306 89.616-.189-.336q8.06-2.568 9.68-4.732c.68-.996-.358-7.93 7.08-17.377 7.022-8.919 18.728-4.916 20.167-4.845-9.726 8.882-1.394 25.471-26.661 22.72-2.627 2.514-10.057 4.573-10.077 4.57" transform="translate(18.321 122.232)"/><path fill="url(#g)" d="m57.302 58.399.067-.095q-.109-1.183-.098-1.201c4.555-7.598 1.715-13.6-6.44-18.545-1.797 6.235-3.764 12.47 6.203 18.632q.09.059.268 1.209" transform="rotate(89 81.993 143.1)"/><path fill="url(#g)" d="m91.203 89.638.068-.094q-.11-1.182-.098-1.202c4.555-7.597 1.715-13.599-6.44-18.544-1.797 6.234-3.764 12.47 6.203 18.632q.09.058.267 1.208" transform="translate(59.014 70.145)"/><path fill="#FFF" d="M190.686 89.861c9.329-2.307 21.733-16.689 27.922-23.14-6.153 6.785-17.544 21.494-27.777 23.807z"/><path fill="url(#h)" d="M0 .246C21.245-2.57 44.35 19.478 32.094 32.21l.033-.035a.1.1 0 0 1 .043.035c11.171 15.46 30.992 21.672 57.151 18.034l1.021 1.25q-18.243 3.414-34.645-1.95-16.401-5.362-24.308-17.334l.046.071C5.942 34.771 11.312 5.741 0 .246" transform="rotate(11 -731.245 279.373)"/><path fill="url(#i)" d="M65.544 59.797c-3.349-14.812-13.642-19.41-29.076-16.447q-2.057.985-3.137-6.018-.817-.553-.808-.544c.368 4.492 2.3 7.598 2.465 7.909 5.234 9.874 10.71 19.512 30.556 15.1" transform="rotate(161 51.048 127.883)"/><path fill="url(#j)" d="M91.07 61.212q.005-.042.972-.073-3.443-5.288-3.47-6.041c-.705-19.878-10.532-29.91-31.554-32.207 2.251 14.343 4.16 28.848 30.134 31.948.941.114 3.773 6.357 3.918 6.373" opacity=".179" transform="rotate(19 -344.207 195.01)"/><path stroke="#FF7400" d="M126.159 205.058c-8.835-13.507-10.77-25.615-12.475-46.47"/><path fill="url(#k)" d="M46.645 183.993c4.054 1.092 8.252 5.506 8.156 4.278-2.598-9.916-10.063-12.674-21.103-10.173 3.666 6.918 6.25 13.305 19.939 10.422.142-.03-4.488-3.7-6.992-4.527" transform="rotate(-26 44.25 183.23)"/><g transform="translate(21.762 79.207)"><circle cx="97.4" cy="127.4" r="10.4" fill="#FF7400"/><path fill="#FFE6CF" d="M97.229 41c26.07 0 50.08 12.095 64.893 32.107 2.724 3.679 2.048 8.945-1.508 11.762s-8.648 2.118-11.371-1.56C137.52 67.47 118.282 57.78 97.229 57.78c-20.87 0-39.962 9.522-51.72 25.133-2.752 3.656-7.849 4.31-11.382 1.463-3.534-2.848-4.167-8.12-1.414-11.775C47.563 52.882 71.388 41 97.229 41"/><path fill="#FFE6CF" d="M97.337 0c38.688 0 74.28 16.954 96.197 44.953 2.7 3.448 2.03 8.384-1.495 11.024s-8.57 1.985-11.27-1.463c-18.855-24.087-49.716-38.788-83.432-38.788-33.422 0-64.048 14.444-82.957 38.186-2.728 3.426-7.78 4.04-11.281 1.37-3.503-2.669-4.13-7.61-1.401-11.035C23.672 16.656 58.988 0 97.338 0Z"/><path fill="#FF7400" d="M97.323 81c13.135 0 25.276 6.248 32.806 16.641 2.718 3.752 2.043 9.122-1.506 11.995-3.477 2.813-8.424 2.187-11.18-1.366l-.168-.226c-4.446-6.137-11.823-9.933-19.952-9.933-7.908 0-15.105 3.591-19.587 9.442l-.255.34c-2.748 3.727-7.834 4.395-11.36 1.491-3.527-2.904-4.159-8.28-1.412-12.007C72.257 87.138 84.302 81 97.323 81"/></g><path fill="url(#l)" d="M115.173 185.472c.008-.01.016-.031.024-.042.733-.473 1.604-1.014 2.327-1.643 1.14-1 2.122-2.254 3.004-3.574 1.13-1.608 1.988-3.446 2.591-5.387.23-.848.99-2.701.45-3.366-.527-.342-1.88.599-2.404.965a17.1 17.1 0 0 0-5.01 5.9c-.788 1.603-1.034 3.495-.786 5.213.031.389.08.874-.004 1.25q-.09.307-.267.577a.2.2 0 0 0-.04.034.1.1 0 0 0-.016.052 6 6 0 0 1-.511.59c-.048.056-.096.122-.144.177.019-.337.038-.674.049-1.02 0-1.446-.594-1.434-.574-.207a27 27 0 0 1-.073 1.997c.054.475-.3 2.657-.572 3.874a4.4 4.4 0 0 0-.358-.994 2.2 2.2 0 0 0-.746-.775c-.715-.365-1.448-.414-2.139-.793-.6-.292-1.054-.703-1.575-1.174-.33-.3-.662-.628-1.071-.78-.689-.24-1.455.217-2.04.739-.217.206-.442.414-.642.638-.183.25-.04.517.117.682.331.339.75.519 1.176.658q.751.246 1.475.567c.575.287 1.166.59 1.839.362.389-.112.736-.326 1.085-.393.74-.08 1.354.614 1.933 1.195.179.175.396.308.634.386a.5.5 0 0 0 .245.026c-.134.592-.339 1.394-.483 1.983 0 .002.012 1.395.009 1.397.135-.473.664-2.162.787-2.635q.267-.01.512-.119.222-.122.402-.3c.017.037.074.03.122.013.26-.055.53-.023.822-.043q.508-.045 1.008-.146c.82-.19 1.603-.571 2.361-1.038a10.4 10.4 0 0 0 3.315-2.986c.31-.465.644-.943.782-1.512.022-.121.068-.275-.006-.363-.075-.089-.205-.032-.303-.048a3 3 0 0 1-.546-.034c-.662-.117-1.331-.224-2.02-.042-1.412.339-3.283 2.008-4.056 3.53-.364.658-.596 1.417-1.002 1.974a4.5 4.5 0 0 1-.761.762c-.166.112-.36.176-.56.184l-.015.002.183-.743a34 34 0 0 0 .657-4.594c.264-.34.545-.595.815-.976" transform="scale(-1 1)rotate(21 0 -432.963)"/><path fill="url(#m)" d="m159.503 151.034-.099.21q2.426-.371 3.275-.097c14.858 4.77 23.897-2.837 29.166-18.83-11.446-.616-22.506-2.216-29.166 17.327q-.256.717-3.176 1.39"/><path fill="url(#n)" d="m133.541 117.133-.189-.337q8.06-2.568 9.679-4.731c.68-.996-.357-7.93 7.08-17.377 7.023-8.919 18.728-4.917 20.168-4.845-9.726 8.882-1.394 25.471-26.661 22.72-2.628 2.514-10.058 4.572-10.077 4.57" transform="rotate(-86 151.815 103.01)"/></g></svg>