<svg xmlns="http://www.w3.org/2000/svg" width="32" height="32"><path fill="#737386" fill-rule="nonzero" d="m12.25 7-.001 1.199h7.1L19.35 7h1.9l-.001 1.199L23.8 8.2a1.8 1.8 0 0 1 1.794 1.652L25.6 10v5.5H24v-1.84H7.6V23a.2.2 0 0 0 .147.193l.053.007h6.471v1.6H7.8a1.8 1.8 0 0 1-1.794-1.652L6 23V10a1.8 1.8 0 0 1 1.652-1.794L7.8 8.2l2.549-.001L10.35 7h1.9Zm12.958 16.16a.792.792 0 0 1 .092 1.579l-.092.005H18.2a.792.792 0 0 1-.093-1.579l.093-.005h7.008Zm-.616-5.468a.5.5 0 0 1 .353.853l-3.082 3.083a.5.5 0 0 1-.708 0l-3.082-3.083a.5.5 0 0 1 .353-.853h6.166ZM11.75 15.466v1.9H9.5v-1.9h2.25Zm-1.401-5.667L7.8 9.8a.2.2 0 0 0-.193.147L7.6 10v2.06H24V10a.2.2 0 0 0-.147-.193L23.8 9.8l-2.551-.001L21.25 11h-1.9l-.001-1.201h-7.1L12.25 11h-1.9l-.001-1.201Z"/></svg>