<?xml version="1.0" encoding="UTF-8"?>
<svg width="32px" height="32px" viewBox="0 0 32 32" version="1.1" xmlns="http://www.w3.org/2000/svg" xmlns:xlink="http://www.w3.org/1999/xlink">
    <title>time</title>
    <g id="2025" stroke="none" stroke-width="1" fill="none" fill-rule="evenodd">
        <g id="画板备份-5" transform="translate(-505.000000, -581.000000)" fill="#737386">
            <g id="编组-9备份" transform="translate(473.000000, 464.000000)">
                <g id="时间" transform="translate(32.000000, 117.000000)">
                    <rect id="矩形" stroke="#737386" opacity="0" x="0" y="0" width="32" height="32"></rect>
                    <g id="编组-38" transform="translate(6.000000, 7.000000)" fill-rule="nonzero">
                        <g id="编组-50">
                            <path d="M6.25,0 L6.249,1.199 L13.349,1.199 L13.35,0 L15.25,0 L15.249,1.199 L17.8,1.2 C18.7444069,1.2 19.5189407,1.92731342 19.5940331,2.85237201 L19.6,3 L19.6,8.5 L18,8.5 L18,6.66 L1.6,6.66 L1.6,16 C1.6,16.0920475 1.66218267,16.1695714 1.74683208,16.1928558 L1.8,16.2 L8.27143053,16.2 L8.27143053,17.8 L1.8,17.8 C0.855593078,17.8 0.0810593078,17.0726866 0.00596694808,16.147628 L0,16 L0,3 C0,2.05559308 0.727313424,1.28105931 1.65237201,1.20596695 L1.8,1.2 L4.349,1.199 L4.35,0 L6.25,0 Z M19.2080399,16.1600959 C19.6454274,16.1600959 20,16.5146685 20,16.952056 C20,17.3582015 19.6942716,17.6929403 19.3003992,17.738688 L19.2080399,17.7440161 L12.1996919,17.7440161 C11.7623045,17.7440161 11.4077319,17.3894435 11.4077319,16.952056 C11.4077319,16.5459105 11.7134603,16.2111717 12.1073327,16.165424 L12.1996919,16.1600959 L19.2080399,16.1600959 Z M18.591895,10.691712 C18.8680374,10.691712 19.091895,10.9155696 19.091895,11.191712 C19.091895,11.3243202 19.0392166,11.4514972 18.9454484,11.5452654 L15.8625312,14.6281826 C15.6672691,14.8234447 15.3506866,14.8234447 15.1554244,14.6281826 L12.0725072,11.5452654 C11.8772451,11.3500032 11.8772451,11.0334207 12.0725072,10.8381586 C12.1662754,10.7443904 12.2934524,10.691712 12.4260606,10.691712 L18.591895,10.691712 Z M5.75,8.46583967 L5.75,10.3658397 L3.5,10.3658397 L3.5,8.46583967 L5.75,8.46583967 Z M4.349,2.799 L1.8,2.8 C1.70795254,2.8 1.63042863,2.86218267 1.60714419,2.94683208 L1.6,3 L1.6,5.06 L18,5.06 L18,3 C18,2.90795254 17.9378173,2.83042863 17.8531679,2.80714419 L17.8,2.8 L15.249,2.799 L15.25,4 L13.35,4 L13.349,2.799 L6.249,2.799 L6.25,4 L4.35,4 L4.349,2.799 Z" id="形状"></path>
                        </g>
                    </g>
                </g>
            </g>
        </g>
    </g>
</svg>