<svg xmlns="http://www.w3.org/2000/svg" xmlns:xlink="http://www.w3.org/1999/xlink" width="58" height="48"><defs><linearGradient id="a" x1="50%" x2="50%" y1="0%" y2="100%"><stop offset="0%" stop-color="#3A291E"/><stop offset="100%" stop-color="#652A0F"/></linearGradient><linearGradient id="b" x1="0%" x2="96.934%" y1="49.364%" y2="49.706%"><stop offset="0%" stop-color="#FFFAEE" stop-opacity=".575"/><stop offset="58.065%" stop-color="#FFF" stop-opacity=".947"/><stop offset="100%" stop-color="#EEE8DF" stop-opacity=".87"/></linearGradient><linearGradient id="e" x1="61.811%" x2="62.773%" y1="35.256%" y2="64.744%"><stop offset="0%" stop-color="#C6BFAF" stop-opacity=".575"/><stop offset="23.171%" stop-color="#AEA08B" stop-opacity=".986"/><stop offset="35.636%" stop-color="#98836E"/><stop offset="98.058%" stop-color="#C1A897"/><stop offset="100%" stop-color="#EEE8DF" stop-opacity=".87"/></linearGradient><linearGradient id="i" x1="50%" x2="50%" y1="0%" y2="100%"><stop offset="0%" stop-color="#FFF" stop-opacity="0"/><stop offset="100%" stop-color="#FFF"/></linearGradient><filter id="f" width="101.8%" height="103.3%" x="-.9%" y="-1.6%" filterUnits="objectBoundingBox"><feOffset dy="-.3" in="SourceAlpha" result="shadowOffsetInner1"/><feComposite in="shadowOffsetInner1" in2="SourceAlpha" k2="-1" k3="1" operator="arithmetic" result="shadowInnerInner1"/><feColorMatrix in="shadowInnerInner1" values="0 0 0 0 1 0 0 0 0 1 0 0 0 0 1 0 0 0 1 0"/></filter><filter id="g" width="133.8%" height="178.8%" x="-16.9%" y="-39.4%" filterUnits="objectBoundingBox"><feGaussianBlur in="SourceGraphic" stdDeviation="1"/></filter><radialGradient id="h" cx="50%" cy="100%" r="100%" fx="50%" fy="100%" gradientTransform="matrix(0 -1 .4286 0 .071 1.5)"><stop offset="0%" stop-color="#ABFF73"/><stop offset="55.073%" stop-color="#63F720"/><stop offset="100%" stop-color="#50C72E"/></radialGradient><path id="c" d="M23.203 38.857h11.61v3.438a184 184 0 0 0 2.183 3.35c.63.928.63 2.355-.651 2.355h-14.56c-1.479 0-1.419-1.466-.809-2.29q.61-.823 2.227-3.415z"/></defs><g fill="none" fill-rule="evenodd"><rect width="57.905" height="38.857" fill="url(#a)" rx="5"/><path fill="url(#b)" d="M0 32h57.905v1.894a5 5 0 0 1-5 5H5a5 5 0 0 1-5-5z"/><ellipse cx="29.267" cy="35.41" fill="#43291A" rx="1.573" ry="1.567"/><use xlink:href="#c" fill="url(#e)"/><use xlink:href="#c" fill="#000" filter="url(#f)"/><path fill="#39FF00" d="M3.36.186a.635.635 0 0 1 .951.838l-.053.06L1.533 3.81l2.725 2.725a.635.635 0 0 1 .053.838l-.053.06a.635.635 0 0 1-.838.053l-.06-.053L.186 4.258a.635.635 0 0 1-.053-.838l.053-.06zm11.057 0a.635.635 0 0 0-.951.838l.053.06 2.725 2.726-2.725 2.725a.635.635 0 0 0-.053.838l.053.06a.635.635 0 0 0 .838.053l.06-.053 3.174-3.175a.635.635 0 0 0 .053-.838l-.053-.06zM9.569.4a.635.635 0 0 1 1.202.402l-.023.07-2.54 6.349a.635.635 0 0 1-1.202-.401l.023-.07z" filter="url(#g)" transform="translate(19.81 13.714)"/><path fill="url(#h)" stroke="url(#i)" stroke-width=".1" d="M3.396.221c.916.105.988.237.997.377a.58.58 0 0 1-.117.39L1.463 3.81l2.76 2.76a.583.583 0 0 1 .052.768.7.7 0 0 1-.414.221.55.55 0 0 1-.405-.109L.22 4.223a.58.58 0 0 1-.052-.767Zm10.572-.17a.58.58 0 0 1 .413.17l3.17 3.17a.7.7 0 0 1 .168.44.55.55 0 0 1-.163.392l-3.17 3.17a.7.7 0 0 1-.44.168.55.55 0 0 1-.388-.16.7.7 0 0 1-.168-.438.55.55 0 0 1 .164-.393l2.76-2.76-2.756-2.757c.11-.93.257-1.003.41-1.003ZM9.615.417c.885-.264 1.003-.17 1.066-.044.063.125.08.272.044.409l-2.563 6.42a.583.583 0 0 1-1.066.044.58.58 0 0 1-.044-.409Z" transform="translate(19.81 13.714)"/></g></svg>