<svg xmlns="http://www.w3.org/2000/svg" width="32" height="32"><path fill="#737386" fill-rule="nonzero" d="m13.215 7 2.077 2.225h7.965c.797 0 1.45.616 1.511 1.398l.005.118v.788h-1.6l-.001-.704h-8.575L12.52 8.6H7.6v4.005h10.052v1.6H7.6v9.42l10.052.001v1.6H7.516c-.798 0-1.451-.615-1.511-1.397L6 23.711V8.516c0-.798.615-1.451 1.397-1.511L7.516 7h5.7ZM26 18.973v4.036l-3.46 1.989v-4.169L26 18.973Zm-8.348.109 3.458 1.757v4.158l-3.458-1.988v-3.927Zm4.174-3.69 3.833 2.14-3.842 2.061-3.934-2 3.943-2.201Z"/></svg>