<?xml version="1.0" encoding="UTF-8"?>
<svg width="32px" height="32px" viewBox="0 0 32 32" version="1.1" xmlns="http://www.w3.org/2000/svg" xmlns:xlink="http://www.w3.org/1999/xlink">
    <title>文件夹</title>
    <g id="2025-大魔当" stroke="none" stroke-width="1" fill="none" fill-rule="evenodd">
        <g id="画板备份-5" transform="translate(-505.000000, -629.000000)" fill="#737386">
            <g id="编组-9备份" transform="translate(473.000000, 464.000000)">
                <g id="文件夹" transform="translate(32.000000, 165.000000)">
                    <rect id="矩形" stroke="#737386" opacity="0" x="0" y="0" width="32" height="32"></rect>
                    <g id="编组-33" transform="translate(6.000000, 7.000000)" fill-rule="nonzero">
                        <path d="M7.21545925,0 L9.292,2.2248 L17.2571429,2.22552299 C18.0542885,2.22552299 18.70769,2.84096514 18.7681111,3.62261332 L18.7726708,3.74105094 L18.7726708,4.5287965 L17.1726708,4.5287965 L17.172,3.8248 L8.59733811,3.82552299 L6.52,1.6 L1.6,1.6 L1.6,5.605 L11.6519309,5.60585816 L11.6519309,7.20585816 L1.6,7.205 L1.6,16.6256 L11.6519309,16.626087 L11.6519309,18.226087 L1.51552795,18.226087 C0.71838226,18.226087 0.0649807868,17.6106448 0.00455966164,16.8289966 L0,16.710559 L0,1.51552795 C0,0.71838226 0.615442155,0.0649807868 1.39709033,0.00455966164 L1.51552795,0 L7.21545925,0 Z M19.9999309,11.9729262 L20,16.008693 L16.5409309,17.9979262 L16.5407458,13.8290139 L19.9999309,11.9729262 Z M11.6519309,12.0819262 L15.1100453,13.8392405 L15.1099309,17.9969262 L11.6521739,16.008693 L11.6519309,12.0819262 Z M15.826087,8.39192619 L19.6589309,10.5329262 L15.8167458,12.5930139 L11.8829309,10.5939262 L15.826087,8.39192619 Z" id="形状结合"></path>
                    </g>
                </g>
            </g>
        </g>
    </g>
</svg>