<svg xmlns="http://www.w3.org/2000/svg" xmlns:xlink="http://www.w3.org/1999/xlink" width="210" height="171"><defs><linearGradient id="b" x1="50%" x2="50%" y1="0%" y2="99.391%"><stop offset="0%" stop-color="#FFEBD7"/><stop offset="100%" stop-color="#FFF8F3"/></linearGradient><linearGradient id="c" x1="50%" x2="50%" y1="2.11%" y2="94.785%"><stop offset="0%" stop-color="#FFF6EE"/><stop offset="100%" stop-color="#FFF"/></linearGradient><linearGradient id="f" x1="56.99%" x2="56.99%" y1="100%" y2="12.624%"><stop offset="0%" stop-color="#FFF2E6"/><stop offset="100%" stop-color="#FFF9F4"/></linearGradient><path id="d" d="M30.77 0a4 4 0 0 1 4 4v2.386h77.605a4 4 0 0 1 4 4v63.67a4 4 0 0 1-4 4l-78.55.001a3.991 3.991 0 0 1-3.055 1.418H10.386a3.991 3.991 0 0 1-3.055-1.418H4a4 4 0 0 1-4-4v-63.67a4 4 0 0 1 4-4l2.386-.001V4a4 4 0 0 1 4-4H30.77Z"/><path id="g" d="M16.918 17.008c0 4.595-8.602 6.986-8.532 10.452-.226-3.486-8.533-5.857-8.533-10.452v-8.32a8.533 8.533 0 1 1 17.065 0Z"/><ellipse id="a" cx="108.482" cy="155.992" rx="90.943" ry="14.192"/></defs><g fill="none" fill-rule="evenodd"><g transform="translate(.516 .638)"><use xlink:href="#a" fill="url(#b)" opacity=".5"/><path fill="url(#c)" d="M12.941 142.572c-41.433-54.419 31.975-47.262 8.422-63.069C-2.189 63.697-2.189 32.42 55.505 18.11c57.695-14.309 103.967 6.004 93.5 30.58-10.469 24.575 101.818 23.001 36.403 87.365-69.484 12.275-132.581 9.907-172.467 6.517Z"/><g transform="translate(49.024 65.666)"><mask id="e" fill="#fff"><use xlink:href="#d"/></mask><path stroke="#F7D8BD" d="M30.77-.5c1.243 0 2.368.504 3.182 1.318A4.486 4.486 0 0 1 35.27 4v1.886h77.105c1.242 0 2.367.504 3.182 1.318a4.486 4.486 0 0 1 1.318 3.182v63.67a4.486 4.486 0 0 1-1.318 3.182 4.486 4.486 0 0 1-3.182 1.318l-78.325.001a4.487 4.487 0 0 1-3.28 1.418H10.386a4.487 4.487 0 0 1-3.279-1.418H4a4.486 4.486 0 0 1-3.182-1.319A4.486 4.486 0 0 1-.5 74.056v-63.67C-.5 9.144.004 8.02.818 7.204A4.486 4.486 0 0 1 4 5.886h1.886V4c0-1.243.504-2.368 1.318-3.182A4.486 4.486 0 0 1 10.386-.5Z"/><path fill="#FFEBD8" d="M-2.54 14.696h119v71h-119z" mask="url(#e)"/></g><path fill="url(#f)" stroke="#F7D8BD" d="M46.732 99.1h120.255c2.451 0 4.279 1.298 4.082 2.898l-5.667 46.129c-.196 1.6-2.146 2.898-4.356 2.898H52.672c-2.21 0-4.16-1.298-4.356-2.898l-5.667-46.129c-.197-1.6 1.631-2.898 4.083-2.898Z"/><g transform="rotate(-113 85.718 -23.72)"><circle cx="1.701" cy="54.361" r="1" fill="#F14D00"/><circle cx="1.774" cy="1.774" r="1.774" fill="#FFF"/><circle cx="25.442" cy="35.652" r="1.064" fill="#FF8618"/></g></g><path fill="#FFE1C7" d="M160.06 39.896c3.597 2.248 9.657 1.98 11.904-1.617 2.248-3.597-.168-9.16-3.765-11.408a7.68 7.68 0 0 0-8.14 13.025ZM190.327 58.81c-3.597-2.248-6.013-7.812-3.765-11.41 2.247-3.596 8.307-3.864 11.904-1.616a7.68 7.68 0 0 1-8.139 13.025Z"/><g transform="rotate(32 41.479 325.651)"><mask id="h" fill="#fff"><use xlink:href="#g"/></mask><use xlink:href="#g" fill="#FF7400"/><path fill="#FFF" fill-rule="nonzero" d="M20.479 6.826v3.413H-3.413V6.826zM20.479 13.653v3.413H-3.413v-3.413z" mask="url(#h)"/></g><path fill="#FF7400" fill-rule="nonzero" d="m180.812 25.537 1.65 7.153-1.662.384-1.652-7.153zM194.321 33.979l-7.153 1.651.384 1.664 7.153-1.652z"/></g></svg>