<svg xmlns="http://www.w3.org/2000/svg" xmlns:xlink="http://www.w3.org/1999/xlink" width="171" height="120"><defs><linearGradient id="a" x1="50%" x2="50%" y1="2.11%" y2="94.785%"><stop offset="0%" stop-color="#FFE8D4"/><stop offset="100%" stop-color="#FFF" stop-opacity="0"/></linearGradient><linearGradient id="b" x1="50%" x2="50%" y1="0%" y2="99.391%"><stop offset="0%" stop-color="#FFEBD7"/><stop offset="100%" stop-color="#FFF8F3"/></linearGradient><linearGradient id="d" x1="56.99%" x2="56.99%" y1="100%" y2="12.624%"><stop offset="0%" stop-color="#FFFDF9"/><stop offset="100%" stop-color="#FFE3D2"/></linearGradient><linearGradient id="f" x1="63.921%" x2="40.048%" y1="78.856%" y2="2.508%"><stop offset="0%" stop-color="#FFE8D2"/><stop offset="100%" stop-color="#FFC38B"/></linearGradient><rect id="c" width="87.601" height="59.775" x="0" y="0" rx="4"/></defs><g fill="none" fill-rule="evenodd"><path fill="url(#a)" d="M10.924 102.945C-23.19 61.907 34.077 75.207 27.659 52.034s25.115-40.601 56.537-49.48c31.423-8.88 55.201 6.942 45.094 23.676-10.108 16.733 77.491 23.263 23.632 71.801-57.208 9.256-109.158 7.47-141.998 4.914"/><ellipse cx="88.247" cy="109.298" fill="url(#b)" opacity=".981" rx="74.876" ry="10.702"/><path fill="#FF7400" d="M54.868 91.52q.093.566-.047 1.365a8.2 8.2 0 0 1-.47 1.624 7 7 0 0 1-.8 1.483q-.47.66-1.033.942-.564.282-.987.282t-.94-.188a10 10 0 0 0-1.176-.26 5.5 5.5 0 0 0-1.433-.046 7 7 0 0 0-1.457.306 2.85 2.85 0 0 0-1.246.8q-1.127 1.177-1.316 2.683a5.3 5.3 0 0 0 .423 2.872q.47.94-.14 1.883-.284.376-.894.776t-1.34.73q-.727.33-1.527.518a6.2 6.2 0 0 1-1.41.188q-.422 0-.8-.33a1.8 1.8 0 0 1-.516-.705h-.047q-.517-1.46-1.763-2.519a4.33 4.33 0 0 0-2.89-1.059q-1.6 0-2.891 1.06-1.293 1.059-1.81 2.47-.234.566-.705.824a2.1 2.1 0 0 1-1.034.26q-.657-.001-1.48-.236a14 14 0 0 1-1.645-.589 8 8 0 0 1-1.481-.823q-.659-.471-.987-.942a1.44 1.44 0 0 1-.259-.777q-.023-.447.353-1.247.517-1.083.4-2.471-.118-1.389-1.2-2.566a3.06 3.06 0 0 0-1.597-.918 6.5 6.5 0 0 0-1.786-.165 8 8 0 0 0-2.021.377 1.9 1.9 0 0 1-1.316-.094q-.517-.189-.964-.871a9.8 9.8 0 0 1-1.34-3.201q-.187-.871-.094-1.436.141-1.035.94-1.318 1.41-.565 2.539-1.86 1.128-1.293 1.128-2.894 0-1.648-1.128-2.872t-2.539-1.789q-.423-.14-.705-.682a2.4 2.4 0 0 1-.282-1.107q0-.612.188-1.365a9.5 9.5 0 0 1 .494-1.46 8 8 0 0 1 .705-1.294q.399-.588.87-.87.375-.236.728-.189t.776.188a5.67 5.67 0 0 0 2.937.354q1.528-.213 2.703-1.342.564-.566.822-1.389a7.7 7.7 0 0 0 .33-1.624 7.6 7.6 0 0 0 0-1.46 20 20 0 0 0-.118-.94 5 5 0 0 1-.165-.66 1.02 1.02 0 0 1 .071-.659q.282-.658 1.01-1.153a8 8 0 0 1 1.575-.824q.846-.33 1.645-.494.8-.165 1.27-.165.61 0 .963.4t.493.824q.517 1.271 1.692 2.236t2.774.965q1.644 0 2.914-.918 1.269-.918 1.786-2.33.188-.377.587-.777.4-.4.823-.4.658 0 1.433.188a9 9 0 0 1 1.528.518q.752.33 1.387.848.635.517 1.01 1.13.235.376.141.823t-.188.636a5 5 0 0 0-.376 2.871q.235 1.506 1.363 2.636t2.773 1.248 3.056-.542q.375-.235.916-.188c.541.047.666.173.917.424q.705.66 1.245 2 .54 1.342.729 2.707.093.801-.259 1.248-.353.447-.728.588-1.458.518-2.491 1.813a4.6 4.6 0 0 0-1.035 2.942q0 1.6.87 2.8a4.8 4.8 0 0 0 2.28 1.719q.328.187.564.376.517.425.705 1.083m-21.3 3.437a9.8 9.8 0 0 0 3.873-.775 9.7 9.7 0 0 0 3.168-2.142 10.3 10.3 0 0 0 2.12-3.168q.774-1.8.774-3.851a9.6 9.6 0 0 0-.775-3.852 10 10 0 0 0-2.119-3.144 9.9 9.9 0 0 0-3.168-2.12 9.8 9.8 0 0 0-3.874-.775 9.6 9.6 0 0 0-3.85.775 10 10 0 0 0-3.146 2.12 10 10 0 0 0-2.119 3.144 9.6 9.6 0 0 0-.775 3.852q0 2.05.775 3.851a10.3 10.3 0 0 0 2.12 3.168 9.8 9.8 0 0 0 3.144 2.142q1.8.775 3.851.775Z"/><path fill="#FF7400" d="M140.487 51.12q.05.295-.025.714a4.3 4.3 0 0 1-.246.851 3.7 3.7 0 0 1-.418.777q-.246.345-.542.493t-.517.148q-.222 0-.492-.099a5 5 0 0 0-.616-.135 2.9 2.9 0 0 0-.75-.025 3.6 3.6 0 0 0-.764.16 1.5 1.5 0 0 0-.652.42q-.591.615-.69 1.405a2.77 2.77 0 0 0 .222 1.504q.246.494-.074.986a1.8 1.8 0 0 1-.468.407 5 5 0 0 1-.702.382 4.4 4.4 0 0 1-.8.272 3.3 3.3 0 0 1-.738.098.63.63 0 0 1-.419-.172.93.93 0 0 1-.27-.37h-.025q-.27-.765-.924-1.32a2.27 2.27 0 0 0-1.514-.554q-.837 0-1.514.555-.676.555-.948 1.294a.84.84 0 0 1-.37.432q-.245.135-.54.135a2.9 2.9 0 0 1-.776-.123 7 7 0 0 1-.862-.308 4 4 0 0 1-.776-.432 2.2 2.2 0 0 1-.517-.493.75.75 0 0 1-.135-.407q-.013-.234.185-.653.27-.567.209-1.295-.061-.727-.628-1.344a1.6 1.6 0 0 0-.837-.48 3.4 3.4 0 0 0-.935-.087 4.1 4.1 0 0 0-1.06.198 1 1 0 0 1-.689-.05q-.27-.099-.504-.456a5.1 5.1 0 0 1-.702-1.677q-.098-.456-.05-.752.075-.542.493-.69.74-.296 1.33-.974t.59-1.517q0-.862-.59-1.504a3.65 3.65 0 0 0-1.33-.937q-.22-.074-.37-.357a1.24 1.24 0 0 1-.147-.58q0-.32.099-.715.098-.395.258-.764.16-.37.37-.678.208-.309.455-.457a.57.57 0 0 1 .382-.098 2.3 2.3 0 0 1 .406.098 2.97 2.97 0 0 0 1.539.185 2.5 2.5 0 0 0 1.415-.702q.295-.296.431-.728.135-.431.172-.85.038-.42 0-.765a10 10 0 0 0-.061-.493 3 3 0 0 1-.086-.345.54.54 0 0 1 .037-.345q.148-.345.529-.605.382-.258.825-.431.442-.172.862-.259.418-.086.664-.086.32 0 .505.21t.258.43q.271.667.887 1.172.615.506 1.452.506.862 0 1.527-.481t.935-1.22a1.6 1.6 0 0 1 .308-.408q.21-.21.431-.21.345 0 .751.1.406.098.8.27.394.174.726.444.333.272.53.592a.57.57 0 0 1 .074.432 1.5 1.5 0 0 1-.099.333 2.6 2.6 0 0 0-.197 1.504q.123.789.714 1.38.59.593 1.453.654a3.2 3.2 0 0 0 1.6-.284.76.76 0 0 1 .48-.098.75.75 0 0 1 .48.222q.37.345.653 1.048.283.702.381 1.418.05.419-.135.653a.9.9 0 0 1-.382.308 2.9 2.9 0 0 0-1.305.95 2.4 2.4 0 0 0-.541 1.54q0 .84.455 1.468.456.628 1.194.9a2.3 2.3 0 0 1 .296.197q.27.222.37.567Zm-11.43 2.097q1.08 0 2.038-.407a5.1 5.1 0 0 0 1.668-1.128 5.4 5.4 0 0 0 1.115-1.667 5.1 5.1 0 0 0 .408-2.027 5.1 5.1 0 0 0-.408-2.027 5.3 5.3 0 0 0-1.115-1.655 5.2 5.2 0 0 0-1.668-1.116 5.2 5.2 0 0 0-2.039-.407q-1.08 0-2.027.407a5.3 5.3 0 0 0-1.655 1.116 5.3 5.3 0 0 0-1.115 1.655 5.1 5.1 0 0 0-.408 2.027q0 1.08.408 2.027a5.4 5.4 0 0 0 1.115 1.667q.708.72 1.655 1.128a5.1 5.1 0 0 0 2.027.407Z" opacity=".458"/><g transform="translate(42.254 47.923)"><mask id="e" fill="#fff"><use xlink:href="#c"/></mask><use xlink:href="#c" fill="url(#d)" stroke="#FFDDC1"/><path fill="#FF7400" d="M-9.615-5.337h118.581V9.607H-9.615z" mask="url(#e)"/></g><path fill="url(#f)" d="M30.894 10.254a15.9 15.9 0 0 1 1.054 5.72c0 8.823-7.151 15.974-15.974 15.974a15.9 15.9 0 0 1-9.9-3.436l-3.21 1.894 1.101-7.932 7.272 2.991-1.992 1.177a12.55 12.55 0 0 0 6.73 1.943c6.964 0 12.61-5.646 12.61-12.61a12.6 12.6 0 0 0-.65-4.012zM15.974 0c3.645 0 7.005 1.22 9.693 3.276L27.383.66l2.582 7.455-7.932.697 1.784-2.715a12.56 12.56 0 0 0-7.843-2.735c-6.965 0-12.611 5.646-12.611 12.611 0 1.477.254 2.895.72 4.212L1.132 21.89A15.9 15.9 0 0 1 0 15.974C0 7.152 7.152 0 15.974 0" transform="translate(70.08 65.958)"/><path fill="#FF7400" d="M85.976 65.958c3.627 0 6.97 1.215 9.645 3.26l1.708-2.602 2.57 7.418-7.893.694 1.774-2.703a12.5 12.5 0 0 0-7.804-2.72c-6.93 0-12.549 5.618-12.549 12.549 0 1.47.253 2.88.717 4.19l-2.937 1.698a15.9 15.9 0 0 1-1.126-5.888c0-8.779 7.116-15.896 15.895-15.896"/><g transform="translate(81.932 10.821)"><rect width="10.583" height="10.658" x="24.972" fill="#FFF" rx="5.292"/><path fill="#FFC39D" d="M6.774 16.178q1.279-2.072 2.663-2c1.033.055 2.22.584 2.643.68.614.14 1.817 1.287 1.38 1.054-.446-.24-1.844-1.078-3.333-1.157s-1.538 1.08-2.196 1.705c-.659.624-.765 1.102-1.603 1.057-.838-.044-.445-2.893-1.627-3.048-4.164-.548-5.282-1.912-4.44-1.64.844.271 4.934.265 5.313 1.004q.38.74.824 2.325zM22.623 5.996q1.299-1.265 2.433-1.001c.848.197 1.767.752 2.105.885.491.193 1.35 1.186 1.018.954-.342-.237-1.4-1.043-2.62-1.327s-1.397.526-2.013.865c-.617.339-.761.659-1.449.5-.687-.16-.03-2.108-.988-2.4-3.376-1.024-4.14-2.157-3.476-1.837.665.321 4.046.944 4.272 1.524q.228.579.41 1.765z"/></g><g transform="translate(1.03 6.699)"><circle cx=".539" cy="17.406" r="1" fill="#FF7400"/><ellipse cx="6.202" cy="1.36" fill="#FFF" rx="1.348" ry="1.36"/><circle cx="12.674" cy="8.431" r="1" fill="#FF2A2A"/><path fill="#FF7400" d="M31.478 25.25a5.5 5.5 0 0 1-3.703-1.424 7.16 7.16 0 0 1-2.838-5.72c0-3.944 3.17-7.142 7.082-7.142q.09 0 .183.002C33.012 5.196 37.882.76 43.768.76c5.906 0 10.79 4.467 11.575 10.268q.469-.063.957-.064c3.91 0 7.082 3.198 7.082 7.143a7.15 7.15 0 0 1-2.838 5.718 5.5 5.5 0 0 1-3.704 1.425z" opacity=".164"/><path fill="#FF7400" d="M25.753 7.902c2.989 0 5.454 2.288 5.8 5.24a3.5 3.5 0 0 1 .972-.137c1.955 0 3.54 1.599 3.54 3.571s-1.585 3.572-3.54 3.572q-.068 0-.136-.003l-.1.003H19.608a2.765 2.765 0 0 1-2.74-3.144 4 4 0 0 1-.025-.428c0-1.83 1.365-3.338 3.123-3.547.396-2.897 2.836-5.127 5.787-5.127"/></g></g></svg>