<svg xmlns="http://www.w3.org/2000/svg" xmlns:xlink="http://www.w3.org/1999/xlink" width="171" height="120"><defs><linearGradient id="a" x1="50%" x2="50%" y1="2.11%" y2="94.785%"><stop offset="0%" stop-color="#FFE8D4"/><stop offset="100%" stop-color="#FFF" stop-opacity="0"/></linearGradient><linearGradient id="b" x1="50%" x2="50%" y1="0%" y2="99.391%"><stop offset="0%" stop-color="#FFEBD7"/><stop offset="100%" stop-color="#FFF8F3"/></linearGradient><linearGradient id="d" x1="56.99%" x2="56.99%" y1="100%" y2="12.624%"><stop offset="0%" stop-color="#FFFDF9"/><stop offset="100%" stop-color="#FFE3D2"/></linearGradient><linearGradient id="f" x1="63.921%" x2="40.048%" y1="78.856%" y2="2.508%"><stop offset="0%" stop-color="#FFE8D2"/><stop offset="100%" stop-color="#FFC38B"/></linearGradient><rect id="c" width="87.601" height="59.775" x="0" y="0" rx="4"/></defs><g fill="none" fill-rule="evenodd"><g><path fill="url(#a)" d="M10.924 102.945C-23.19 61.907 34.077 75.207 27.659 52.034 21.241 28.86 52.774 11.433 84.196 2.554c31.423-8.88 55.201 6.942 45.094 23.676-10.108 16.733 77.491 23.263 23.632 71.801-57.208 9.256-109.158 7.47-141.998 4.914Z"/><ellipse cx="88.247" cy="109.298" fill="url(#b)" opacity=".981" rx="74.876" ry="10.702"/><path fill="#FF7400" d="M54.868 91.52c.062.377.047.832-.047 1.365a8.23 8.23 0 0 1-.47 1.624 7.034 7.034 0 0 1-.8 1.483c-.313.44-.657.753-1.033.942-.376.188-.705.282-.987.282-.282 0-.596-.063-.94-.188a9.765 9.765 0 0 0-1.176-.26 5.467 5.467 0 0 0-1.433-.046c-.486.047-.972.149-1.457.306-.486.157-.901.423-1.246.8-.752.785-1.19 1.679-1.316 2.683a5.295 5.295 0 0 0 .423 2.872c.314.627.267 1.255-.14 1.883-.189.25-.487.51-.894.776-.407.267-.854.51-1.34.73-.485.22-.994.392-1.527.518a6.242 6.242 0 0 1-1.41.188c-.282 0-.548-.11-.8-.33-.25-.219-.422-.454-.516-.705h-.047c-.345-.973-.932-1.813-1.763-2.519a4.328 4.328 0 0 0-2.89-1.059c-1.066 0-2.03.353-2.891 1.06-.862.705-1.465 1.53-1.81 2.47-.156.377-.391.652-.705.824a2.108 2.108 0 0 1-1.034.26c-.438 0-.932-.08-1.48-.236a13.786 13.786 0 0 1-1.645-.589 7.869 7.869 0 0 1-1.481-.823c-.439-.314-.768-.628-.987-.942a1.437 1.437 0 0 1-.259-.777c-.015-.298.102-.714.353-1.247.345-.722.478-1.546.4-2.471-.079-.926-.478-1.781-1.2-2.566a3.055 3.055 0 0 0-1.597-.918 6.48 6.48 0 0 0-1.786-.165 7.884 7.884 0 0 0-2.021.377 1.912 1.912 0 0 1-1.316-.094c-.345-.126-.666-.416-.964-.871a9.756 9.756 0 0 1-1.34-3.201c-.125-.58-.156-1.06-.094-1.436.094-.69.408-1.13.94-1.318.94-.377 1.787-.996 2.539-1.86.752-.862 1.128-1.827 1.128-2.894 0-1.099-.376-2.056-1.128-2.872-.752-.816-1.598-1.412-2.539-1.789-.282-.094-.517-.321-.705-.682a2.369 2.369 0 0 1-.282-1.107c0-.408.063-.863.188-1.365.126-.502.29-.988.494-1.46a7.84 7.84 0 0 1 .705-1.294c.266-.392.556-.682.87-.87.25-.157.493-.22.728-.189.235.032.494.094.776.188.94.377 1.919.495 2.937.354 1.019-.142 1.92-.589 2.703-1.342.376-.377.65-.84.822-1.389.173-.549.282-1.09.33-1.624a7.551 7.551 0 0 0 0-1.46c-.048-.438-.087-.752-.118-.94a5.044 5.044 0 0 1-.165-.66 1.022 1.022 0 0 1 .071-.659c.188-.439.525-.823 1.01-1.153a7.901 7.901 0 0 1 1.575-.824c.564-.22 1.112-.384 1.645-.494.533-.11.956-.165 1.27-.165.407 0 .728.134.963.4.235.267.4.542.493.824.345.847.909 1.593 1.692 2.236.784.643 1.708.965 2.774.965 1.096 0 2.068-.306 2.914-.918.846-.612 1.441-1.388 1.786-2.33.125-.251.321-.51.587-.777.267-.266.54-.4.823-.4.439 0 .916.063 1.433.188a9.224 9.224 0 0 1 1.528.518c.501.22.964.502 1.387.848.423.345.76.721 1.01 1.13.157.25.204.525.141.823-.063.298-.125.51-.188.636a4.999 4.999 0 0 0-.376 2.871c.157 1.004.611 1.883 1.363 2.636.752.754 1.677 1.17 2.773 1.248 1.097.078 2.115-.102 3.056-.542.25-.156.556-.22.916-.188s.666.173.917.424c.47.44.885 1.106 1.245 2 .36.895.603 1.797.729 2.707.062.534-.024.95-.259 1.248-.235.298-.478.494-.728.588-.972.345-1.802.95-2.491 1.813a4.587 4.587 0 0 0-1.035 2.942c0 1.067.29 2 .87 2.8a4.79 4.79 0 0 0 2.28 1.719c.219.125.407.25.564.376.344.283.58.644.705 1.083Zm-21.3 3.437a9.801 9.801 0 0 0 3.873-.775 9.728 9.728 0 0 0 3.168-2.142 10.257 10.257 0 0 0 2.12-3.168c.516-1.2.774-2.484.774-3.851a9.638 9.638 0 0 0-.775-3.852 9.98 9.98 0 0 0-2.119-3.144 9.91 9.91 0 0 0-3.168-2.12 9.801 9.801 0 0 0-3.874-.775 9.638 9.638 0 0 0-3.85.775 9.98 9.98 0 0 0-3.146 2.12 9.98 9.98 0 0 0-2.119 3.144 9.638 9.638 0 0 0-.775 3.852c0 1.367.258 2.65.775 3.851a10.257 10.257 0 0 0 2.12 3.168 9.794 9.794 0 0 0 3.144 2.142c1.2.516 2.484.775 3.851.775Z"/><path fill="#FF7400" d="M140.487 51.12c.033.196.025.435-.025.714a4.31 4.31 0 0 1-.246.851 3.685 3.685 0 0 1-.418.777c-.164.23-.345.394-.542.493-.197.099-.37.148-.517.148-.148 0-.312-.033-.492-.099a5.115 5.115 0 0 0-.616-.135 2.864 2.864 0 0 0-.75-.025 3.61 3.61 0 0 0-.764.16 1.492 1.492 0 0 0-.652.42c-.394.41-.624.879-.69 1.405a2.773 2.773 0 0 0 .222 1.504c.164.329.14.658-.074.986a1.842 1.842 0 0 1-.468.407 5.16 5.16 0 0 1-.702.382 4.367 4.367 0 0 1-.8.272 3.27 3.27 0 0 1-.738.098.626.626 0 0 1-.419-.172.934.934 0 0 1-.27-.37h-.025c-.18-.51-.489-.95-.924-1.32a2.267 2.267 0 0 0-1.514-.554c-.558 0-1.063.185-1.514.555-.451.37-.767.801-.948 1.294a.84.84 0 0 1-.37.432c-.163.09-.344.135-.54.135a2.85 2.85 0 0 1-.776-.123 7.221 7.221 0 0 1-.862-.308 4.122 4.122 0 0 1-.776-.432 2.145 2.145 0 0 1-.517-.493.753.753 0 0 1-.135-.407c-.008-.156.053-.374.185-.653.18-.378.25-.81.209-1.295-.041-.485-.25-.933-.628-1.344a1.6 1.6 0 0 0-.837-.48 3.394 3.394 0 0 0-.935-.087 4.13 4.13 0 0 0-1.06.198c-.229.065-.459.049-.689-.05-.18-.066-.348-.218-.504-.456a5.11 5.11 0 0 1-.702-1.677c-.066-.304-.082-.555-.05-.752.05-.361.214-.592.493-.69.493-.197.936-.522 1.33-.974.394-.452.59-.958.59-1.517 0-.575-.196-1.076-.59-1.504a3.645 3.645 0 0 0-1.33-.937c-.147-.05-.27-.168-.37-.357a1.24 1.24 0 0 1-.147-.58c0-.213.033-.452.099-.715.065-.263.152-.518.258-.764.107-.247.23-.473.37-.678.139-.206.29-.358.455-.457a.57.57 0 0 1 .382-.098c.123.016.258.05.406.098a2.971 2.971 0 0 0 1.539.185 2.5 2.5 0 0 0 1.415-.702c.197-.198.34-.44.431-.728.09-.287.148-.571.172-.85.025-.28.025-.535 0-.765a9.712 9.712 0 0 0-.061-.493 2.642 2.642 0 0 1-.086-.345.535.535 0 0 1 .037-.345c.098-.23.275-.432.529-.605.254-.172.53-.316.825-.431.295-.115.582-.201.862-.259.279-.057.5-.086.664-.086.214 0 .382.07.505.21.123.14.21.283.258.43.181.445.476.835.887 1.172.41.337.894.506 1.452.506.575 0 1.084-.16 1.527-.481.443-.32.755-.728.935-1.22a1.61 1.61 0 0 1 .308-.408c.14-.14.283-.21.431-.21.23 0 .48.034.751.1.27.065.538.156.8.27.263.116.505.264.726.444.222.181.398.379.53.592a.566.566 0 0 1 .074.432 1.516 1.516 0 0 1-.099.333 2.619 2.619 0 0 0-.197 1.504c.082.526.32.986.714 1.38.394.395.878.613 1.453.654a3.181 3.181 0 0 0 1.6-.284.758.758 0 0 1 .48-.098.75.75 0 0 1 .48.222c.247.23.464.58.653 1.048.188.468.316.94.381 1.418.033.279-.012.497-.135.653a.918.918 0 0 1-.382.308 2.89 2.89 0 0 0-1.305.95 2.403 2.403 0 0 0-.541 1.54c0 .56.152 1.049.455 1.468.304.419.702.719 1.194.9.115.066.214.131.296.197.18.148.303.337.37.567Zm-11.43 2.097c.72 0 1.399-.136 2.038-.407a5.12 5.12 0 0 0 1.668-1.128 5.398 5.398 0 0 0 1.115-1.667 5.072 5.072 0 0 0 .408-2.027c0-.72-.136-1.395-.408-2.027a5.252 5.252 0 0 0-1.115-1.655 5.216 5.216 0 0 0-1.668-1.116 5.159 5.159 0 0 0-2.039-.407c-.72 0-1.395.136-2.027.407a5.252 5.252 0 0 0-1.655 1.116 5.252 5.252 0 0 0-1.115 1.655 5.072 5.072 0 0 0-.408 2.027c0 .72.136 1.395.408 2.027a5.398 5.398 0 0 0 1.115 1.667c.472.48 1.024.856 1.655 1.128a5.072 5.072 0 0 0 2.027.407Z" opacity=".458"/></g><g transform="translate(42.254 47.923)"><mask id="e" fill="#fff"><use xlink:href="#c"/></mask><use xlink:href="#c" fill="url(#d)" stroke="#FFDDC1"/><path fill="#FF7400" d="M-9.615-5.337h118.581V9.607H-9.615z" mask="url(#e)"/></g><path fill="url(#f)" d="M30.894 10.254a15.936 15.936 0 0 1 1.054 5.72c0 8.823-7.151 15.974-15.974 15.974a15.906 15.906 0 0 1-9.9-3.436l-3.21 1.894 1.101-7.932 7.272 2.991-1.992 1.177a12.552 12.552 0 0 0 6.73 1.943c6.964 0 12.61-5.646 12.61-12.61 0-1.403-.228-2.752-.65-4.012l2.959-1.709ZM15.974 0c3.645 0 7.005 1.22 9.693 3.276L27.383.66l2.582 7.455-7.932.697 1.784-2.715a12.558 12.558 0 0 0-7.843-2.735c-6.965 0-12.611 5.646-12.611 12.611 0 1.477.254 2.895.72 4.212L1.132 21.89A15.931 15.931 0 0 1 0 15.974C0 7.152 7.152 0 15.974 0Z" transform="translate(70.08 65.958)"/><path fill="#FF7400" d="M85.976 65.958c3.627 0 6.97 1.215 9.645 3.26l1.708-2.602 2.57 7.418-7.893.694 1.774-2.703a12.496 12.496 0 0 0-7.804-2.72c-6.93 0-12.549 5.618-12.549 12.549 0 1.47.253 2.88.717 4.19l-2.937 1.698a15.853 15.853 0 0 1-1.126-5.888c0-8.779 7.116-15.896 15.895-15.896Z"/><g transform="translate(81.932 10.821)"><rect width="10.583" height="10.658" x="24.972" fill="#FFF" rx="5.292"/><path fill="#FFC39D" d="M6.774 16.178c.853-1.382 1.74-2.048 2.663-2 1.033.055 2.22.584 2.643.68.614.14 1.817 1.287 1.38 1.054-.446-.24-1.844-1.078-3.333-1.157-1.489-.078-1.538 1.08-2.196 1.705-.659.624-.765 1.102-1.603 1.057-.838-.044-.445-2.893-1.627-3.048-4.164-.548-5.282-1.912-4.44-1.64.844.271 4.934.265 5.313 1.004.253.493.528 1.268.824 2.325l.376.02ZM22.623 5.996c.866-.843 1.677-1.177 2.433-1.001.848.197 1.767.752 2.105.885.491.193 1.35 1.186 1.018.954-.342-.237-1.4-1.043-2.62-1.327-1.22-.284-1.397.526-2.013.865-.617.339-.761.659-1.449.5-.687-.16-.03-2.108-.988-2.4-3.376-1.024-4.14-2.157-3.476-1.837.665.321 4.046.944 4.272 1.524.152.386.288.974.41 1.765l.308.072Z"/></g><g transform="translate(1.03 6.699)"><circle cx=".539" cy="17.406" r="1" fill="#FF7400"/><ellipse cx="6.202" cy="1.36" fill="#FFF" rx="1.348" ry="1.36"/><circle cx="12.674" cy="8.431" r="1" fill="#FF2A2A"/><path fill="#FF7400" d="M31.478 25.25a5.51 5.51 0 0 1-3.703-1.424 7.156 7.156 0 0 1-2.838-5.72c0-3.944 3.17-7.142 7.082-7.142.06 0 .122 0 .183.002C33.012 5.196 37.882.76 43.768.76c5.906 0 10.79 4.467 11.575 10.268.312-.042.632-.064.957-.064 3.91 0 7.082 3.198 7.082 7.143a7.153 7.153 0 0 1-2.838 5.718 5.506 5.506 0 0 1-3.704 1.425H31.478Z" opacity=".164"/><path fill="#FF7400" d="M25.753 7.902c2.989 0 5.454 2.288 5.8 5.24a3.46 3.46 0 0 1 .972-.137c1.955 0 3.54 1.599 3.54 3.571 0 1.973-1.585 3.572-3.54 3.572-.046 0-.09-.001-.136-.003l-.1.003H19.608a2.765 2.765 0 0 1-2.74-3.144 3.532 3.532 0 0 1-.025-.428c0-1.83 1.365-3.338 3.123-3.547.396-2.897 2.836-5.127 5.787-5.127Z"/></g></g></svg>