<svg xmlns="http://www.w3.org/2000/svg" xmlns:xlink="http://www.w3.org/1999/xlink" width="26" height="33"><defs><filter id="c" width="127.5%" height="127.5%" x="-13.7%" y="-13.7%" filterUnits="objectBoundingBox"><feGaussianBlur in="SourceAlpha" result="shadowBlurInner1" stdDeviation="1"/><feOffset dy="1" in="shadowBlurInner1" result="shadowOffsetInner1"/><feComposite in="shadowOffsetInner1" in2="SourceAlpha" k2="-1" k3="1" operator="arithmetic" result="shadowInnerInner1"/><feColorMatrix in="shadowInnerInner1" result="shadowMatrixInner1" values="0 0 0 0 0.838150688 0 0 0 0 0.16515945 0 0 0 0 0 0 0 0 1 0"/><feGaussianBlur in="SourceAlpha" result="shadowBlurInner2" stdDeviation="2.5"/><feOffset in="shadowBlurInner2" result="shadowOffsetInner2"/><feComposite in="shadowOffsetInner2" in2="SourceAlpha" k2="-1" k3="1" operator="arithmetic" result="shadowInnerInner2"/><feColorMatrix in="shadowInnerInner2" result="shadowMatrixInner2" values="0 0 0 0 0.712682752 0 0 0 0 0.30237722 0 0 0 0 0.0308522509 0 0 0 0.5 0"/><feGaussianBlur in="SourceAlpha" result="shadowBlurInner3" stdDeviation=".5"/><feOffset dy="-.5" in="shadowBlurInner3" result="shadowOffsetInner3"/><feComposite in="shadowOffsetInner3" in2="SourceAlpha" k2="-1" k3="1" operator="arithmetic" result="shadowInnerInner3"/><feColorMatrix in="shadowInnerInner3" result="shadowMatrixInner3" values="0 0 0 0 0.711412513 0 0 0 0 0 0 0 0 0 0 0 0 0 0.5 0"/><feMerge><feMergeNode in="shadowMatrixInner1"/><feMergeNode in="shadowMatrixInner2"/><feMergeNode in="shadowMatrixInner3"/></feMerge></filter><filter id="f" width="105.1%" height="116%" x="-2.6%" y="-4%" filterUnits="objectBoundingBox"><feOffset dy="1" in="SourceAlpha" result="shadowOffsetOuter1"/><feColorMatrix in="shadowOffsetOuter1" values="0 0 0 0 0.237777235 0 0 0 0 0.383327367 0 0 0 0 0.855262646 0 0 0 1 0"/></filter><filter id="j" width="101.2%" height="97.3%" x="-.6%" y="-2.7%" filterUnits="objectBoundingBox"><feGaussianBlur in="SourceAlpha" result="shadowBlurInner1" stdDeviation=".5"/><feOffset dy="1" in="shadowBlurInner1" result="shadowOffsetInner1"/><feComposite in="shadowOffsetInner1" in2="SourceAlpha" k2="-1" k3="1" operator="arithmetic" result="shadowInnerInner1"/><feColorMatrix in="shadowInnerInner1" values="0 0 0 0 0.829656629 0 0 0 0 0.537840485 0 0 0 0 0.248698388 0 0 0 1 0"/></filter><linearGradient id="a" x1="50%" x2="54.903%" y1="-4.174%" y2="100%"><stop offset="0%" stop-color="#F2C573"/><stop offset="38.269%" stop-color="#FFC987"/><stop offset="100%" stop-color="#FFAD44"/></linearGradient><linearGradient id="d" x1="50%" x2="50%" y1="0%" y2="96.682%"><stop offset="0%" stop-color="#C6CEFF"/><stop offset="34.05%" stop-color="#FEE49C"/><stop offset="75.508%" stop-color="#FEE499"/><stop offset="100%" stop-color="#FFE496"/></linearGradient><path id="e" d="M0 0h19.478v8.318L9.74 12.522 0 8.318z"/><path id="i" d="m12.104 24.348-3.192 1.678a.5.5 0 0 1-.725-.527l.61-3.555-2.583-2.517a.5.5 0 0 1 .277-.853l3.569-.518 1.596-3.234a.5.5 0 0 1 .897 0l1.596 3.234 3.569.518a.5.5 0 0 1 .277.853l-2.583 2.517.61 3.555a.5.5 0 0 1-.725.527z"/><radialGradient id="h" cx="50%" cy="50%" r="50.29%" fx="50%" fy="50%"><stop offset="0%" stop-color="#FF9548"/><stop offset="100%" stop-color="#D06A00"/></radialGradient><circle id="b" cx="11.826" cy="20.174" r="11.826"/></defs><g fill="none" fill-rule="evenodd"><g transform="translate(1)"><use xlink:href="#b" fill="url(#a)"/><use xlink:href="#b" fill="#000" filter="url(#c)"/><use xlink:href="#b" stroke="url(#d)" stroke-width="1.5"/></g><g transform="translate(3.226)"><mask id="g" fill="#fff"><use xlink:href="#e"/></mask><use xlink:href="#e" fill="#000" filter="url(#f)"/><use xlink:href="#e" fill="#5C7DE8"/><path fill="#FFF" d="M7.097.224h5.682v14.081H7.097z" mask="url(#g)"/></g><g transform="translate(1)"><use xlink:href="#i" fill="url(#h)"/><use xlink:href="#i" fill="#000" filter="url(#j)"/></g></g></svg>