<svg xmlns="http://www.w3.org/2000/svg" xmlns:xlink="http://www.w3.org/1999/xlink" width="26" height="32"><defs><filter id="c" width="128.3%" height="128.3%" x="-14.1%" y="-14.1%" filterUnits="objectBoundingBox"><feGaussianBlur in="SourceAlpha" result="shadowBlurInner1" stdDeviation="1"/><feOffset dy="1" in="shadowBlurInner1" result="shadowOffsetInner1"/><feComposite in="shadowOffsetInner1" in2="SourceAlpha" k2="-1" k3="1" operator="arithmetic" result="shadowInnerInner1"/><feColorMatrix in="shadowInnerInner1" result="shadowMatrixInner1" values="0 0 0 0 0.51686251 0 0 0 0 0.110412862 0 0 0 0 0 0 0 0 1 0"/><feGaussianBlur in="SourceAlpha" result="shadowBlurInner2" stdDeviation="2.5"/><feOffset in="shadowBlurInner2" result="shadowOffsetInner2"/><feComposite in="shadowOffsetInner2" in2="SourceAlpha" k2="-1" k3="1" operator="arithmetic" result="shadowInnerInner2"/><feColorMatrix in="shadowInnerInner2" result="shadowMatrixInner2" values="0 0 0 0 0.830493872 0 0 0 0 0.597261418 0 0 0 0 0.159458226 0 0 0 0.5 0"/><feGaussianBlur in="SourceAlpha" result="shadowBlurInner3" stdDeviation=".5"/><feOffset dy="-.5" in="shadowBlurInner3" result="shadowOffsetInner3"/><feComposite in="shadowOffsetInner3" in2="SourceAlpha" k2="-1" k3="1" operator="arithmetic" result="shadowInnerInner3"/><feColorMatrix in="shadowInnerInner3" result="shadowMatrixInner3" values="0 0 0 0 0.503372414 0 0 0 0 0.202454836 0 0 0 0 0 0 0 0 0.5 0"/><feMerge><feMergeNode in="shadowMatrixInner1"/><feMergeNode in="shadowMatrixInner2"/><feMergeNode in="shadowMatrixInner3"/></feMerge></filter><filter id="f" width="105.3%" height="117.1%" x="-2.7%" y="-4.3%" filterUnits="objectBoundingBox"><feOffset dy="1" in="SourceAlpha" result="shadowOffsetOuter1"/><feColorMatrix in="shadowOffsetOuter1" values="0 0 0 0 0.773803711 0 0 0 0 0 0 0 0 0 0 0 0 0 1 0"/></filter><filter id="j" width="101.6%" height="97.7%" x="-.8%" y="-2.8%" filterUnits="objectBoundingBox"><feGaussianBlur in="SourceAlpha" result="shadowBlurInner1" stdDeviation=".5"/><feOffset dy="1" in="shadowBlurInner1" result="shadowOffsetInner1"/><feComposite in="shadowOffsetInner1" in2="SourceAlpha" k2="-1" k3="1" operator="arithmetic" result="shadowInnerInner1"/><feColorMatrix in="shadowInnerInner1" values="0 0 0 0 0.833919802 0 0 0 0 0.65243349 0 0 0 0 0.227373446 0 0 0 1 0"/></filter><linearGradient id="a" x1="50%" x2="52.829%" y1="0%" y2="94.199%"><stop offset="0%" stop-color="#F4EEA1"/><stop offset="48.719%" stop-color="#FFEFAB"/><stop offset="100%" stop-color="#FFD86E"/></linearGradient><linearGradient id="d" x1="50%" x2="50%" y1="0%" y2="86.86%"><stop offset="0%" stop-color="#FF4747"/><stop offset="16.969%" stop-color="#FFD4A2"/><stop offset="40.857%" stop-color="#FFF1A1"/><stop offset="100%" stop-color="#FFE390"/></linearGradient><path id="e" d="M0 0h18.773v7.764l-9.386 3.924L0 7.764z"/><path id="i" d="m11.771 23-2.965 1.56a.5.5 0 0 1-.726-.528l.567-3.302-2.4-2.34a.5.5 0 0 1 .277-.852l3.316-.482 1.483-3.005a.5.5 0 0 1 .897 0l1.483 3.005 3.316.482a.5.5 0 0 1 .277.853l-2.4 2.339.567 3.302a.5.5 0 0 1-.726.527z"/><radialGradient id="h" cx="50%" cy="50%" r="42.448%" fx="50%" fy="50%"><stop offset="0%" stop-color="#F4C550"/><stop offset="100%" stop-color="#D99630"/></radialGradient><circle id="b" cx="11.5" cy="19.167" r="11.5"/></defs><g fill="none" fill-rule="evenodd"><g transform="translate(1.333)"><use xlink:href="#b" fill="url(#a)"/><use xlink:href="#b" fill="#000" filter="url(#c)"/><use xlink:href="#b" stroke="url(#d)" stroke-width="1.5"/></g><g transform="translate(3.467)"><mask id="g" fill="#fff"><use xlink:href="#e"/></mask><use xlink:href="#e" fill="#000" filter="url(#f)"/><use xlink:href="#e" fill="#E52A2A"/><path fill="#FFF" d="M6.84.209h5.476v12.048H6.84z" mask="url(#g)"/></g><g transform="translate(1.333)"><use xlink:href="#i" fill="url(#h)"/><use xlink:href="#i" fill="#000" filter="url(#j)"/></g></g></svg>