<svg xmlns="http://www.w3.org/2000/svg" xmlns:xlink="http://www.w3.org/1999/xlink" width="163" height="120"><defs><linearGradient id="a" x1="50%" x2="50%" y1="0%" y2="99.391%"><stop offset="0%" stop-color="#FFEBD7"/><stop offset="100%" stop-color="#FFF8F3"/></linearGradient><linearGradient id="b" x1="50%" x2="50%" y1="2.11%" y2="94.785%"><stop offset="0%" stop-color="#FFE8D4"/><stop offset="100%" stop-color="#FFF" stop-opacity="0"/></linearGradient><linearGradient id="c" x1="56.99%" x2="56.99%" y1="100%" y2="12.624%"><stop offset="0%" stop-color="#FFFDF9"/><stop offset="100%" stop-color="#FFE3D2"/></linearGradient><linearGradient id="e" x1="56.99%" x2="56.99%" y1="100%" y2="12.624%"><stop offset="0%" stop-color="#FFFDF9"/><stop offset="100%" stop-color="#FFE3D2"/></linearGradient><path id="d" d="M4 0h15.104a4 4 0 0 1 3.577 2.211l1.82 3.64a8 8 0 0 0 7.156 4.423h21.189a8 8 0 0 0 7.155-4.422l1.82-3.64A4 4 0 0 1 65.4 0h14.849a4 4 0 0 1 4 4v38.747a4 4 0 0 1-4 4H4a4 4 0 0 1-4-4V4a4 4 0 0 1 4-4Z"/></defs><g fill="none" fill-rule="evenodd"><ellipse cx="82.55" cy="109.726" fill="url(#a)" opacity=".981" rx="71.919" ry="10.274"/><path fill="url(#b)" d="M6.74 100.16C-26.026 60.764 73.39 66.575 34.766 46.502S36.924 12.427 82.55 2.068c45.625-10.36 61.919 20.666 53.64 38.457-8.278 17.791 58.67 8.322 6.939 54.918-54.949 8.885-104.847 7.171-136.39 4.717Z"/><path fill="#FFC098" d="m65.578 20.477 51.817 13.884a4 4 0 0 1 2.829 4.9l-17.342 64.717a4 4 0 0 1-4.899 2.829L46.167 92.922a4 4 0 0 1-2.829-4.899L60.68 23.305a4 4 0 0 1 4.9-2.828Z"/><path fill="url(#c)" stroke="#FFDDC1" d="M4 0h53.645a4 4 0 0 1 4 4v67.001a4 4 0 0 1-4 4H4a4 4 0 0 1-4-4V4a4 4 0 0 1 4-4Z" transform="translate(54.118 27.354)"/><path fill="#CBDFFF" d="M117.004 79.773 93.564 99.02V82.773a3 3 0 0 1 3-3h20.44Z"/><g transform="translate(96.678 4.052)"><circle cx="18.493" cy="18.493" r="18.493" fill="#CFFFC5"/><g transform="translate(3.596 3.596)"><circle cx="14.897" cy="14.897" r="14.897" fill="#0ABB1F"/><path fill="#FFF" fill-rule="nonzero" d="M20.808 9.548a1.798 1.798 0 0 1 2.615 2.466l-.073.076-8.219 8.22a1.798 1.798 0 0 1-2.466.072l-.077-.072L8.01 15.73a1.798 1.798 0 0 1 2.466-2.615l.077.073 3.307 3.307 6.948-6.948Z"/></g></g><path fill="#FFF" fill-rule="nonzero" d="M95.659 40.8c1.16 0 2.102 1.075 2.102 2.4 0 1.278-.875 2.323-1.979 2.396l-.123.004H70.502c-1.161 0-2.102-1.075-2.102-2.4 0-1.278.875-2.323 1.978-2.396l.124-.004h25.157ZM86.06 51.6c1.16 0 2.1 1.075 2.1 2.4 0 1.278-.874 2.323-1.977 2.396l-.124.004H70.501c-1.16 0-2.101-1.075-2.101-2.4 0-1.278.875-2.323 1.978-2.396l.123-.004H86.06Z"/><use xlink:href="#d" fill="url(#e)" stroke="#FFDDC1" transform="translate(40.17 64.67)"/><path fill="#FFC098" d="M107.98 99.601h1.027v6.678h-1.027Zm2.568 0h2.569v6.678h-2.569Zm4.11 0h1.027v6.678h-1.027Zm2.569 0h1.027v6.678h-1.027Z"/><path fill="#FF98CC" d="M149.786 67.904c-14.876 9.119-17.976 15.318-9.298 18.598 8.678 3.28 9.938 6.96 3.78 11.044l-1.89-2.512c3.042-1.856 3.308-4.059.799-6.609-3.764-3.825-5.594-8.196 0-11.946 3.73-2.5 6.184-4.04 7.366-4.618l-.757-3.957Z"/><path fill="#FF7400" d="M29.437 44.13c14.127-.67 19.362 4.634 15.703 15.91-3.658 11.277-.11 16.992 10.646 17.145l.717-4.032c-8.262-1.814-12.05-6.185-11.363-13.112 1.03-10.391-3.144-11.822-11.3-12.118-2.307-.083-4.317.138-6.03.665l1.627-4.459Z"/></g></svg>