<?xml version="1.0" encoding="UTF-8"?>
<svg width="164px" height="120px" viewBox="0 0 164 120" version="1.1" xmlns="http://www.w3.org/2000/svg" xmlns:xlink="http://www.w3.org/1999/xlink">
    <title>编组 85</title>
    <defs>
        <linearGradient x1="50%" y1="2.11019482%" x2="50%" y2="94.7852905%" id="linearGradient-1">
            <stop stop-color="#FFE8D4" offset="0%"></stop>
            <stop stop-color="#FFFFFF" stop-opacity="0" offset="100%"></stop>
        </linearGradient>
        <linearGradient x1="52.9548601%" y1="78.8556198%" x2="47.9801104%" y2="3.90356644%" id="linearGradient-2">
            <stop stop-color="#FFEFD0" stop-opacity="0.817744755" offset="0%"></stop>
            <stop stop-color="#FFEAE7" offset="100%"></stop>
        </linearGradient>
        <linearGradient x1="50%" y1="0%" x2="50%" y2="99.3908435%" id="linearGradient-3">
            <stop stop-color="#FFEBD7" offset="0%"></stop>
            <stop stop-color="#FFF8F3" offset="100%"></stop>
        </linearGradient>
        <linearGradient x1="56.9902342%" y1="100%" x2="56.9902342%" y2="12.6240884%" id="linearGradient-4">
            <stop stop-color="#FFFDF9" offset="0%"></stop>
            <stop stop-color="#FFE3D2" offset="100%"></stop>
        </linearGradient>
        <linearGradient x1="51.0920682%" y1="14.189664%" x2="107.030573%" y2="91.8370566%" id="linearGradient-5">
            <stop stop-color="#FF7400" offset="0%"></stop>
            <stop stop-color="#FFB679" offset="100%"></stop>
        </linearGradient>
        <linearGradient x1="55.0894456%" y1="78.8556198%" x2="46.3614443%" y2="2.50834332%" id="linearGradient-6">
            <stop stop-color="#FFE8D2" offset="0%"></stop>
            <stop stop-color="#FFC38B" offset="100%"></stop>
        </linearGradient>
        <path d="M2.08607196,6.71732774 C2.00766306,6.17030284 1.81580774,5.67170177 1.51050601,5.22152453 C1.20520427,4.7713473 0.886029977,4.29626402 0.552983118,3.79627472 C-0.244601217,2.06450872 -0.179400481,0.992371431 0.748585326,0.579862866 C1.88622297,-0.116589502 7.04538053,-0.565834785 4.76051467,1.53881518 C5.2894817,3.49848497 5.2894817,4.9249637 4.13076784,5.5245777 C3.35829193,5.92432036 3.00226235,6.61364427 3.06267909,7.59254944 L1.929115,7.59254944 L2.08607196,6.71732774 Z" id="path-7"></path>
    </defs>
    <g id="功能迭代" stroke="none" stroke-width="1" fill="none" fill-rule="evenodd">
        <g id="详情页1备份-3" transform="translate(-661.000000, -468.000000)">
            <g id="编组-47" transform="translate(200.000000, 140.000000)">
                <g id="编组-39" transform="translate(416.000000, 209.000000)">
                    <g id="编组-85" transform="translate(45.000000, 119.000000)">
                        <g id="编组-20">
                            <path d="M10.4743405,98.6557423 C-22.2350745,59.3279952 32.6749875,72.0734785 26.5211414,49.8656782 C20.3672952,27.657878 50.6019189,10.9562049 80.7312188,2.44733303 C110.860519,-6.0615388 133.66031,9.09991491 123.96884,25.1366111 C114.27737,41.1733074 198.271278,47.4310967 146.628581,93.9463882 C91.7746296,102.816952 41.9624478,101.105919 10.4743405,98.6557423 Z" id="路径-3" fill="url(#linearGradient-1)"></path>
                            <g id="编组-38" transform="translate(27.417260, 26.097111)">
                                <path d="M15.6482723,59.0310939 C1.73869693,56.8734377 -2.89782821,49.1635087 1.73869693,35.9013069 C8.69348463,16.0080042 17.9463606,-5.21548731 24.2799358,1.15075203 C27.7845301,4.67342054 25.7973153,17.790426 25.7518722,29.1615738 C25.7147246,38.4569551 27.5827528,47.6053128 27.12444,50.8414747 C26.4451251,55.6381387 22.6197359,58.3680118 15.6482723,59.0310939 Z" id="路径-12" fill="url(#linearGradient-2)"></path>
                                <path d="M15.6482723,19.1687815 L16.5547807,41.6438055 C17.9831014,40.8750044 18.9686512,39.022882 19.8861807,37.0043352 L20.1271867,37.3835772 C19.3095611,40.0567995 18.1023673,42.1160171 16.638941,43.7713825 L17.9463606,76.2559035 L15.6482723,76.2559035 L15.6482723,19.1687815 Z M15.6482723,50.8414747 C12.6410989,49.9319661 10.3813405,47.4839934 7.94502255,45.3994475 L7.94502255,45.7319749 C10.126404,48.4934122 12.4598875,51.0717113 15.6482723,52.6206666 L15.6482723,50.8414747 Z" id="形状结合" fill="#FFC38B"></path>
                            </g>
                            <ellipse id="蒙版" fill="url(#linearGradient-3)" opacity="0.981422061" cx="84.6153846" cy="109.74359" rx="71.7948718" ry="10.2564103"></ellipse>
                            <g id="编组-16" transform="translate(58.974359, 32.307692)">
                                <rect id="矩形" stroke="#FFDDC1" fill="url(#linearGradient-4)" x="0" y="0" width="61.5384615" height="74.8717949" rx="4"></rect>
                                <line x1="11.2820513" y1="27.4358974" x2="36.9230769" y2="27.4358974" id="路径-4"></line>
                                <line x1="11.2820513" y1="17.1794872" x2="24.1025641" y2="17.1794872" id="路径-4备份-2"></line>
                            </g>
                            <g id="编组-11备份" transform="translate(136.145320, 42.105115) rotate(99.000000) translate(-136.145320, -42.105115) translate(121.988251, 30.310244)">
                                <path d="M-1.73139855e-13,1.21353968 C4.20165592,0.404513226 8.40439785,-1.42788029e-13 12.6082258,-1.42788029e-13 C15.9085016,-1.42788029e-13 16.632545,1.44139992 14.7803557,4.32419977 C14.7803557,10.7709522 30.1494765,17.8597665 27.9987639,23.5897436 C19.2812832,20.3307556 20.4010097,24.7224242 12.6082258,22.4924808 C7.1516432,15.0925154 8.1518697,13.0327716 -1.73139855e-13,1.21353968 Z" id="paper1" fill="url(#linearGradient-5)"></path>
                                <path d="M28.281421,22.9235493 C28.8866649,17.5800782 20.9545538,11.9378016 16.0594224,0.872267235 C15.963957,2.42580912 15.3829801,3.17102104 14.9808036,4.1090687 C16.1372873,11.9317021 28.8247626,16.8057339 28.281421,22.9235493 Z" id="路径-17" fill="url(#linearGradient-6)"></path>
                            </g>
                            <g id="编组-7" transform="translate(56.726572, 93.851916)" stroke="#979797">
                                <path d="" id="路径-29"></path>
                            </g>
                            <g id="编组-19" transform="translate(71.794872, 17.948718)">
                                <path d="M18.1445221,0 C21.7697759,-1.77635684e-15 24.7086247,2.93884882 24.7086247,6.56410256 C24.7086247,6.84201103 24.6913542,7.11588577 24.657828,7.38471205 L32.2393162,7.38461538 C34.4484552,7.38461538 36.2393162,9.17547639 36.2393162,11.3846154 L36.2393162,16.4102564 L0,16.4102564 L0,11.3846154 C0,9.17547639 1.790861,7.38461538 4,7.38461538 L11.5814882,7.38471205 C11.547962,7.11588577 11.5306915,6.84201103 11.5306915,6.56410256 C11.5306915,2.93884882 14.4695404,0 18.0947941,0 L18.1445221,0 Z" id="形状结合" fill="#FF7400"></path>
                                <rect id="矩形备份-9" fill="#FFDCBF" x="15.3742554" y="3.82905983" width="5.49080549" height="5.47008547" rx="2.73504274"></rect>
                                <polygon id="矩形" fill="#FF9033" points="-1.0435622e-14 13.6752137 36.2393162 13.6752137 36.2393162 16.4102564 -1.0435622e-14 16.4102564"></polygon>
                            </g>
                        </g>
                        <g id="编组-17" transform="translate(46.041897, 71.630240)">
                            <mask id="mask-8" fill="white">
                                <use xlink:href="#path-7"></use>
                            </mask>
                            <use id="蒙版" fill="#FFE0E0" xlink:href="#path-7"></use>
                            <path d="M1.01892912,4.94349151 C1.55286047,4.716294 1.78384595,4.53994296 1.71188557,4.41443837 C1.61291072,4.24181842 1.87620702,3.93710875 1.79809254,3.88735269 C1.33878515,3.59479077 1.33878515,3.07938649 1.50891633,2.91684114 C1.67904751,2.75429579 2.13707688,2.61776744 2.68846529,3.37052094 C2.80058613,3.24093286 2.74629567,2.75504676 2.52559389,1.91286264 L5.4402401,1.37114321 L7.47416233,-0.723627796 L0.604518609,-1.19518107 L-1.703917,0.921344504 L-1.703917,3.37052094 L0.0825110697,5.66087881 L1.01892912,4.94349151 Z" id="路径-8" fill="#5B4646" mask="url(#mask-8)"></path>
                            <path d="M6.89782459,41.0233686 C8.41337991,41.0454453 9.02919409,40.9066629 8.74526711,40.6070214 C8.46134014,40.3073799 7.39764582,39.9734932 5.55418416,39.6053615 L8.74526711,20.0826606 L2.80695889,18.4188969 L2.3587341,21.602454 L3.37488584,23.885886 L3.75639508,41.0233686 L6.89782459,41.0233686 Z" id="路径-5" fill="#5B4E41"></path>
                            <path d="M1.71188557,6.5839591 L1.71188557,6.01612263 C3.20231099,6.32998541 4.06203463,6.57592681 4.29105649,6.75394684 C4.52007835,6.93196686 4.63292164,7.16362914 4.62958637,7.44893368 L1.89435247,7.07809337 L1.71188557,6.5839591 Z" id="路径-7" fill="#FFC38B"></path>
                            <path d="M10.4913036,20.3909456 L2.08504016,20.7515419 L1.71188557,6.5841573 C5.69633428,6.55332441 9.02852778,9.75430961 10.4913036,20.3909456 Z" id="路径-6" fill="#FF7400"></path>
                            <path d="M3.17077188,9.12609636 C3.7032176,8.57808123 4.82220985,8.65841587 5.6163553,9.31172279 C6.14578561,9.74726075 6.81581938,10.9104881 7.62645663,12.8014048 L13.2134848,8.38526877 L14.1793103,9.31172279 C12.0364827,11.6827889 9.89888637,14.0638004 7.19612453,15.3703638 C5.34681737,14.3802587 4.06645543,12.8609092 2.88512267,11.2494407 C2.72059166,10.1992212 2.81580806,9.49143979 3.17077188,9.12609636 Z" id="路径-9" fill="#FFB273"></path>
                            <path d="M13.2134848,8.38526877 L13.8332825,6.97229254 C14.6528492,6.02830156 15.1393794,5.59116365 15.2928732,5.66087881 C15.6920979,5.84220219 15.7878443,5.97731305 15.7878443,6.38220277 C15.7878443,6.78709248 15.7415289,7.08844591 15.2928732,7.90555381 C14.9937694,8.45029241 14.6225818,8.9190154 14.1793103,9.31172279 L13.2134848,8.38526877 Z" id="路径-10" fill="#FFE0E0"></path>
                        </g>
                        <g id="编组-16" transform="translate(70.256410, 48.717949)" fill="#FFFFFF" fill-rule="nonzero">
                            <path d="M25.6410256,9.48717949 C26.4906945,9.48717949 27.1794872,10.1759722 27.1794872,11.025641 C27.1794872,11.8449646 26.5390154,12.5146979 25.7314219,12.5614909 L25.6410256,12.5641026 L-6.66133815e-16,12.5641026 C-0.849668846,12.5641026 -1.53846154,11.8753099 -1.53846154,11.025641 C-1.53846154,10.2063175 -0.897989762,9.53658416 -0.0903963016,9.48979112 L-6.66133815e-16,9.48717949 L25.6410256,9.48717949 Z" id="路径-4"></path>
                            <path d="M12.8205128,-0.769230769 C13.6701817,-0.769230769 14.3589744,-0.0804380767 14.3589744,0.769230769 C14.3589744,1.5885543 13.7185026,2.25828763 12.9109091,2.30508067 L12.8205128,2.30769231 L-4.4408921e-16,2.30769231 C-0.849668846,2.30769231 -1.53846154,1.61889962 -1.53846154,0.769230769 C-1.53846154,-0.0500927607 -0.897989762,-0.719826092 -0.0903963016,-0.766619132 L-4.4408921e-16,-0.769230769 L12.8205128,-0.769230769 Z" id="路径-4备份-2"></path>
                        </g>
                    </g>
                </g>
            </g>
        </g>
    </g>
</svg>