<svg xmlns="http://www.w3.org/2000/svg" xmlns:xlink="http://www.w3.org/1999/xlink" width="164" height="120"><defs><linearGradient id="a" x1="50%" x2="50%" y1="2.11%" y2="94.785%"><stop offset="0%" stop-color="#FFE8D4"/><stop offset="100%" stop-color="#FFF" stop-opacity="0"/></linearGradient><linearGradient id="b" x1="52.955%" x2="47.98%" y1="78.856%" y2="3.904%"><stop offset="0%" stop-color="#FFEFD0" stop-opacity=".818"/><stop offset="100%" stop-color="#FFEAE7"/></linearGradient><linearGradient id="c" x1="50%" x2="50%" y1="0%" y2="99.391%"><stop offset="0%" stop-color="#FFEBD7"/><stop offset="100%" stop-color="#FFF8F3"/></linearGradient><linearGradient id="d" x1="56.99%" x2="56.99%" y1="100%" y2="12.624%"><stop offset="0%" stop-color="#FFFDF9"/><stop offset="100%" stop-color="#FFE3D2"/></linearGradient><linearGradient id="e" x1="51.092%" x2="107.031%" y1="14.19%" y2="91.837%"><stop offset="0%" stop-color="#FF7400"/><stop offset="100%" stop-color="#FFB679"/></linearGradient><linearGradient id="f" x1="55.089%" x2="46.361%" y1="78.856%" y2="2.508%"><stop offset="0%" stop-color="#FFE8D2"/><stop offset="100%" stop-color="#FFC38B"/></linearGradient><path id="g" d="M2.086 6.717a3.5 3.5 0 0 0-.575-1.495q-.459-.675-.958-1.426Q-.643 1.199.749.58c1.137-.697 6.296-1.146 4.012.959.528 1.96.528 3.386-.63 3.986q-1.16.6-1.068 2.068H1.929z"/></defs><g fill="none" fill-rule="evenodd"><path fill="url(#a)" d="M10.474 98.656c-32.71-39.328 22.201-26.583 16.047-48.79s24.08-38.91 54.21-47.419 52.93 6.653 43.238 22.69c-9.692 16.036 74.302 22.294 22.66 68.81-54.854 8.87-104.667 7.159-136.155 4.709"/><path fill="url(#b)" d="M15.648 59.031q-20.864-3.236-13.91-23.13C8.694 16.008 17.947-5.215 24.28 1.151c3.505 3.522 1.517 16.64 1.472 28.01-.037 9.296 1.83 18.444 1.372 21.68q-1.018 7.196-11.476 8.19" transform="translate(27.417 26.097)"/><path fill="#FFC38B" d="m43.066 45.266.906 22.475c1.428-.769 2.414-2.621 3.331-4.64l.241.38c-.817 2.673-2.024 4.732-3.488 6.387l1.308 32.485h-2.298zm0 31.673c-3.008-.91-5.267-3.358-7.704-5.442v.332c2.182 2.762 4.515 5.34 7.704 6.889v-1.78Z"/><ellipse cx="84.615" cy="109.744" fill="url(#c)" opacity=".981" rx="71.795" ry="10.256"/><g transform="translate(58.974 32.308)"><rect width="61.538" height="74.872" fill="url(#d)" stroke="#FFDDC1" rx="4"/><path d="M11.282 27.436h25.641M11.282 17.179h12.821"/></g><path fill="url(#e)" d="M0 1.214A66.5 66.5 0 0 1 12.608 0q4.95 0 2.172 4.324c0 6.447 15.37 13.536 13.22 19.266-8.718-3.26-7.598 1.132-15.39-1.098-5.459-7.4-4.459-9.46-12.61-21.278" transform="rotate(99 62.207 79.044)"/><path fill="url(#f)" d="M28.281 22.924C28.887 17.58 20.955 11.938 16.06.872c-.095 1.554-.676 2.299-1.078 3.237 1.156 7.823 13.844 12.697 13.3 18.815Z" transform="rotate(99 62.207 79.044)"/><g transform="translate(71.795 17.949)"><path fill="#FF7400" d="M18.145 0a6.564 6.564 0 0 1 6.513 7.385h7.581a4 4 0 0 1 4 4v5.025H0v-5.025a4 4 0 0 1 4-4h7.581A6.564 6.564 0 0 1 18.094 0z"/><rect width="5.491" height="5.47" x="15.374" y="3.829" fill="#FFDCBF" rx="2.735"/><path fill="#FF9033" d="M0 13.675h36.239v2.735H0z"/></g><g transform="translate(46.042 71.63)"><mask id="h" fill="#fff"><use xlink:href="#g"/></mask><use xlink:href="#g" fill="#FFE0E0"/><path fill="#5B4646" d="M1.019 4.943q.801-.34.693-.529c-.1-.172.164-.477.086-.527-.46-.292-.46-.808-.29-.97.171-.163.63-.3 1.18.454q.169-.195-.162-1.458L5.44 1.37 7.474-.724l-6.87-.471L-1.703.92v2.45L.083 5.66z" mask="url(#h)"/><path fill="#5B4E41" d="M6.898 41.023q2.273.033 1.847-.416-.426-.45-3.19-1.002l3.19-19.522-5.938-1.664-.448 3.183 1.016 2.284.381 17.137z"/><path fill="#FFC38B" d="M1.712 6.584v-.568q2.235.471 2.58.738.341.267.338.695l-2.736-.37z"/><path fill="#FF7400" d="m10.491 20.39-8.406.362-.373-14.168c3.984-.03 7.317 3.17 8.78 13.807Z"/><path fill="#FFB273" d="M3.17 9.126c.533-.548 1.652-.468 2.446.186q.795.652 2.01 3.49l5.587-4.417.966.927c-2.143 2.37-4.28 4.752-6.983 6.058-1.85-.99-3.13-2.51-4.31-4.12q-.248-1.576.285-2.124Z"/><path fill="#FFE0E0" d="m13.213 8.385.62-1.413q1.23-1.415 1.46-1.311c.4.181.495.316.495.721s-.046.706-.495 1.524q-.449.816-1.114 1.406z"/></g><path fill="#FFF" fill-rule="nonzero" d="M95.897 58.205a1.538 1.538 0 0 1 .09 3.074l-.09.003h-25.64a1.538 1.538 0 0 1-.091-3.074l.09-.003zm-12.82-10.256a1.538 1.538 0 0 1 .09 3.074l-.09.003h-12.82a1.538 1.538 0 0 1-.091-3.075l.09-.002z"/></g></svg>