<svg xmlns="http://www.w3.org/2000/svg" width="164" height="120"><defs><linearGradient id="a" x1="50%" x2="50%" y1="2.11%" y2="94.785%"><stop offset="0%" stop-color="#FFD4D4"/><stop offset="100%" stop-color="#FFF" stop-opacity="0"/></linearGradient><linearGradient id="b" x1="9.699%" x2="106.885%" y1="15.025%" y2="91.636%"><stop offset="0%" stop-color="#FFEFEF"/><stop offset="100%" stop-color="#FF7979"/></linearGradient><linearGradient id="c" x1="54.992%" x2="46.361%" y1="78.005%" y2="2.508%"><stop offset="0%" stop-color="#FFD2D2"/><stop offset="100%" stop-color="#FF8B8B"/></linearGradient><linearGradient id="d" x1="51.092%" x2="106.618%" y1="14.19%" y2="91.264%"><stop offset="0%" stop-color="#FFDCDC"/><stop offset="100%" stop-color="#FF7979"/></linearGradient><linearGradient id="e" x1="55.089%" x2="46.361%" y1="78.856%" y2="2.508%"><stop offset="0%" stop-color="#FFD2D2"/><stop offset="100%" stop-color="#FF8B8B"/></linearGradient><linearGradient id="f" x1="50%" x2="50%" y1="0%" y2="99.391%"><stop offset="0%" stop-color="#FFD7D7"/><stop offset="100%" stop-color="#FFF8F3"/></linearGradient><linearGradient id="g" x1="56.99%" x2="56.99%" y1="100%" y2="13.479%"><stop offset="0%" stop-color="#FFF9F9"/><stop offset="100%" stop-color="#FFD2D2"/></linearGradient><linearGradient id="h" x1="50%" x2="50%" y1="0%" y2="100%"><stop offset="0%" stop-color="#FA5F73"/><stop offset="0%" stop-color="#FA5F73"/><stop offset="100%" stop-color="#F2313F"/></linearGradient></defs><g fill="none" fill-rule="evenodd"><path fill="url(#a)" d="M10.474 98.656c-32.71-39.328 22.201-26.583 16.047-48.79s24.08-38.91 54.21-47.419 52.93 6.653 43.238 22.69c-9.692 16.036 74.302 22.294 22.66 68.81-54.854 8.87-104.667 7.159-136.155 4.709"/><path fill="url(#b)" d="M0 1.214A66.5 66.5 0 0 1 12.608 0q4.95 0 2.172 4.324C14.78 10.771 30.15 17.86 28 23.59c-8.718-3.26-7.598 1.132-15.39-1.098C7.151 15.092 8.151 13.032 0 1.214" transform="rotate(99 75.945 75.837)"/><path fill="url(#c)" d="M28.281 22.924C28.887 17.58 20.955 11.938 16.06.872c-.095 1.554-.676 2.299-1.078 3.237 1.156 7.823 13.844 12.697 13.3 18.815" transform="rotate(99 75.945 75.837)"/><path fill="url(#d)" d="M0 1.214A66.5 66.5 0 0 1 12.608 0q4.95 0 2.172 4.324C14.78 10.771 30.15 17.86 28 23.59c-8.718-3.26-7.598 1.132-15.39-1.098C7.151 15.092 8.151 13.032 0 1.214" transform="scale(1 -1)rotate(-81 -31.957 -40.456)"/><path fill="url(#e)" d="M28.281 22.924C28.887 17.58 20.955 11.938 16.06.872c-.095 1.554-.676 2.299-1.078 3.237 1.156 7.823 13.844 12.697 13.3 18.815" transform="scale(1 -1)rotate(-81 -31.957 -40.456)"/><ellipse cx="84.795" cy="109.256" fill="url(#f)" opacity=".981" rx="71.795" ry="10.256"/><g transform="translate(58.974 32.308)"><rect width="61.538" height="74.872" fill="url(#g)" stroke="#F2313F" stroke-opacity=".269" rx="4"/><path d="M11.282 27.436h25.641M11.282 17.179h12.821"/></g><g transform="translate(71.795 17.949)"><path fill="#F2313F" d="M18.145 0a6.564 6.564 0 0 1 6.513 7.385h7.581a4 4 0 0 1 4 4v5.025H0v-5.025a4 4 0 0 1 4-4h7.581A6.564 6.564 0 0 1 18.094 0z"/><rect width="5.491" height="5.47" x="15.374" y="3.829" fill="#FFDCBF" rx="2.735"/><path fill="snow" d="M0 13.675h36.24v2.735H0z"/></g><g fill="#FFF" fill-rule="nonzero"><path d="M95.897 58.205a1.538 1.538 0 0 1 .09 3.074l-.09.003h-25.64a1.538 1.538 0 0 1-.091-3.074l.09-.003zM83.077 47.949a1.538 1.538 0 0 1 .09 3.074l-.09.003h-12.82a1.538 1.538 0 0 1-.091-3.075l.09-.002z"/></g><circle cx="114" cy="88" r="20" fill="url(#h)"/><path fill="#FFF" d="M105.643 79.643a2.263 2.263 0 0 1 3.2 0L114 84.798l5.157-5.155a2.263 2.263 0 0 1 3.2 3.2L117.2 88l5.157 5.157c.841.842.882 2.182.12 3.07l-.12.13a2.263 2.263 0 0 1-3.2 0l-5.158-5.156-5.155 5.157a2.263 2.263 0 0 1-3.2-3.2l5.154-5.158-5.155-5.155a2.263 2.263 0 0 1-.12-3.07Z"/></g></svg>