<svg xmlns="http://www.w3.org/2000/svg" width="32" height="32"><g fill="none" fill-rule="evenodd"><path fill="none" d="M0 0h32v32H0z"/><g fill="#2F2A2A"><path fill-rule="nonzero" d="M21.48 27.404c1.337 0 2.32-1.294 2.32-2.8V10.537h-1.6v14.067c0 .703-.377 1.2-.72 1.2H10.52c-.343 0-.72-.497-.72-1.194l.108-14.604-1.6-.012-.109 14.61c0 1.506.984 2.8 2.321 2.8z"/><path d="M6 10.5h20"/><path fill-rule="nonzero" d="M26 9.7v1.6H6V9.7z"/><path d="M14 14.5v8"/><path fill-rule="nonzero" d="M14.8 22.5h-1.6v-8h1.6z"/><path d="M18 14.5v8"/><path fill-rule="nonzero" d="M18.8 22.5h-1.6v-8h1.6z"/><path d="M14 6.5h4"/><path fill-rule="nonzero" d="m18.81 5.7-.01 1.6h-5.6V5.7z"/></g></g></svg>