<svg xmlns="http://www.w3.org/2000/svg" xmlns:xlink="http://www.w3.org/1999/xlink" width="209" height="140"><defs><linearGradient id="b" x1="50%" x2="50%" y1="0%" y2="99.391%"><stop offset="0%" stop-color="#FFEBD7"/><stop offset="100%" stop-color="#FFF8F3"/></linearGradient><linearGradient id="c" x1="50%" x2="50%" y1="2.11%" y2="94.785%"><stop offset="0%" stop-color="#FFE8D4"/><stop offset="100%" stop-color="#FFF" stop-opacity="0"/></linearGradient><linearGradient id="d" x1="56.99%" x2="56.99%" y1="100%" y2="12.624%"><stop offset="0%" stop-color="#FFFDF9"/><stop offset="100%" stop-color="#FFE3D2"/></linearGradient><ellipse id="a" cx="103.691" cy="124.801" rx="86.926" ry="12.418"/><path id="e" d="M2.526 8.133a4.26 4.26 0 0 0-.697-1.811q-.554-.817-1.16-1.726Q-.777 1.452.907.702C2.284-.14 8.53-.685 5.764 1.863c.64 2.373.64 4.1-.763 4.826q-1.403.726-1.293 2.504H2.336z"/></defs><g fill="none" fill-rule="evenodd"><use xlink:href="#a" fill="url(#b)" opacity=".981"/><path fill="url(#c)" d="M12.37 113.059c-39.604-47.617 30.562-41.355 8.05-55.185S-2.092 16.675 53.054 4.154c55.146-12.52 99.375 5.254 89.37 26.757-10.006 21.504 97.322 20.127 34.795 76.446-66.415 10.74-126.725 8.668-164.85 5.702"/><path fill="#FF7400" d="M57.914 114.066h-2.692a4 4 0 0 1-4-4V55.353a4 4 0 0 1 4-4h1.588v-1.588a4 4 0 0 1 4-4h16.837a4 4 0 0 1 4 4v1.588h67.403a4 4 0 0 1 4 4v54.711a4 4 0 0 1-4 4l-68.507.001a4 4 0 0 1-2.896 1.241H60.81a3.99 3.99 0 0 1-2.761-1.106z"/><path fill="#FFDAC5" d="m76.05 68.996 43.303-31.456 18.792 25.24z"/><path fill="#FFF" d="M134.29 49.84c-1.206-1.006-2.666-1.504-4.309-1.813-11.009-2.071-26.917 7.66-26.938 7.653l24.854-2.286q6.411-3.514 6.392-3.553"/><path fill="#FFEFE2" d="M83.133 64.574q13.222-5.989 21.576-9.605c8.354-3.615 20.047-1.477 23.188-1.575.03.11 4.437-10.052 9.254.564a1704 1704 0 0 0 8.013 17.446z"/><rect width="101.828" height="62.711" x="50.914" y="57.744" fill="url(#d)" stroke="#FFDDC1" rx="4"/><path fill="#5B4E41" d="m167.608 106.503-2.914 7.562.466 11.485q-2.777.65-3.363.79c-.586.14-1.738.873 0 1.027h4.969l1.382-11.925 5.762-6.337 1.51-6.687-2.12-3.188z"/><path fill="#746555" d="M171.79 128.945q-2.752.041-2.236-.504.516-.544 3.863-1.212l-3.863-11.079-.404-11.064 4.15-5.856 3.223 4.228-2.613 11.804 1.684 13.683z"/><path fill="#FFC7A5" d="m100.432 99.147-3.896 2.048a2.95 2.95 0 0 1-4.281-3.11l.744-4.339a3 3 0 0 0-.863-2.655l-3.152-3.072a2.95 2.95 0 0 1 1.635-5.033l4.356-.633a3 3 0 0 0 2.259-1.641l1.948-3.947a2.95 2.95 0 0 1 5.292 0l1.948 3.947a3 3 0 0 0 2.259 1.641l4.355.633a2.95 2.95 0 0 1 1.635 5.033l-3.151 3.072a3 3 0 0 0-.863 2.655l.744 4.338a2.95 2.95 0 0 1-4.281 3.111l-3.896-2.048a3 3 0 0 0-2.792 0"/><path fill="#FFEBDF" d="m200.717 18.095 1.72-.038a1.628 1.628 0 0 0 1.234-2.646l-1.077-1.343a3 3 0 0 1-.532-2.74l.495-1.649a1.628 1.628 0 0 0-2.135-1.991l-1.61.61a3 3 0 0 1-2.771-.341l-1.415-.98a1.628 1.628 0 0 0-2.553 1.415l.082 1.72a3 3 0 0 1-1.18 2.53l-1.37 1.042a1.628 1.628 0 0 0 .557 2.866l1.66.453a3 3 0 0 1 2.042 1.904l.568 1.625a1.628 1.628 0 0 0 2.898.356l.945-1.44a3 3 0 0 1 2.442-1.353"/><path fill="#FFEAD9" d="m190.246 20.068-.742-.979-30.061 22.528z"/><path fill="#FF7400" d="m170.121 22.968.409.557a1.12 1.12 0 0 0 1.977-.349l.193-.663a3 3 0 0 1 1.94-2.008l.655-.217a1.12 1.12 0 0 0 .28-1.987l-.571-.39a3 3 0 0 1-1.31-2.464l-.004-.69a1.12 1.12 0 0 0-1.804-.88l-.546.422a3 3 0 0 1-2.75.485l-.658-.21a1.12 1.12 0 0 0-1.394 1.443l.233.65a3 3 0 0 1-.388 2.765l-.404.56a1.12 1.12 0 0 0 .943 1.773l.69-.021a3 3 0 0 1 2.51 1.224M159.137 35.978l9.386-12.755-1.493-.617z"/><g transform="rotate(-113 75.297 -29.356)"><circle cx="1.488" cy="47.566" r="1" fill="#FF8618"/><circle cx="1.552" cy="1.552" r="1.552" fill="#FFF"/><circle cx="3.493" cy="19.427" r="1" fill="#FF7400"/></g><path fill="#FFC7A5" d="m35.966 123.937-1.848.508c-.27.073-.59.02-.715-.118-.05-.055-.061-.118-.035-.18l.447-1.075c.037-.092-.01-.185-.123-.25l-1.287-.762c-.177-.109-.152-.287.052-.4a.7.7 0 0 1 .289-.081l1.855-.157c.157-.014.295-.071.37-.155l.831-.978c.113-.14.386-.198.61-.129.09.028.164.073.21.129l.831.978c.074.084.212.141.369.155l1.855.157c.267.022.473.165.459.32-.006.06-.047.118-.118.161l-1.287.762c-.113.065-.16.158-.123.25l.447 1.075c.067.154-.115.3-.406.326-.115.01-.236 0-.344-.028l-1.847-.508a.95.95 0 0 0-.492 0"/><path fill="#FF7400" d="m151.788 131.156-2.64.726c-.384.104-.843.028-1.02-.17-.071-.078-.089-.168-.051-.255l.639-1.537c.052-.13-.013-.264-.175-.357l-1.839-1.088c-.253-.156-.218-.41.074-.57.116-.064.26-.105.412-.118l2.651-.224c.224-.02.421-.102.527-.22l1.188-1.399c.162-.2.551-.282.873-.183.128.04.233.104.298.183l1.188 1.398c.106.12.303.202.527.22l2.65.225c.382.032.676.237.655.457-.008.088-.067.169-.168.23l-1.839 1.09c-.162.092-.227.225-.175.356l.639 1.537c.094.22-.164.428-.58.465a1.4 1.4 0 0 1-.491-.04l-2.64-.726a1.36 1.36 0 0 0-.703 0" opacity=".457"/><path fill="#FFC7A5" d="m61.078 138.61-4.752 1.306c-.693.187-1.519.05-1.838-.304-.126-.141-.158-.303-.09-.46l1.15-2.767c.094-.235-.024-.475-.316-.642l-3.31-1.96c-.454-.279-.391-.738.134-1.025.209-.115.47-.19.742-.212l4.772-.404c.403-.034.758-.183.948-.397l2.139-2.517c.292-.359.992-.507 1.57-.33.231.072.42.187.536.33l2.14 2.517c.19.214.544.363.948.397l4.771.404c.686.058 1.215.426 1.179.822-.015.158-.122.304-.303.416l-3.31 1.959c-.291.167-.41.407-.315.642l1.15 2.766c.17.395-.296.77-1.044.838-.298.027-.61.002-.885-.073l-4.751-1.306a2.44 2.44 0 0 0-1.265 0"/><path fill="#FFB06E" d="m159.314 95.557.047 7.646-2.582 7.63 1.559.605 3.378-7.321 1.658-7.56z" opacity=".67"/><g transform="scale(-1 1)rotate(64 -145.296 -78.82)"><mask id="f" fill="#fff"><use xlink:href="#e"/></mask><use xlink:href="#e" fill="#FFE0E0"/><path fill="#5B4646" d="M1.234 5.985q.97-.412.839-.64c-.12-.21.199-.578.104-.638-.556-.355-.556-.979-.35-1.175s.76-.363 1.428.549q.204-.235-.197-1.765l3.529-.656L9.049-.876.732-1.447l-2.795 2.563V4.08L.1 6.854z" mask="url(#f)"/><path fill="#D7E6FF" d="M2.073 7.972v-.688q2.706.57 3.122.893a1 1 0 0 1 .41.842l-3.311-.45z"/><path fill="#FF7400" d="M12.862 22.394c-3.144 2.06-6.718 3.328-10.642 3.951-1.879-5.57-2.2-11.613-.147-18.373 4.824-.038 7.947 4.71 10.789 14.422"/><path fill="#FFB273" d="M3.839 11.05c.645-.664 2-.567 2.961.224q.962.792 3.333 3.957l8.603-3.813.34 1.219c-3.79 2.246-6.4 3.941-9.673 5.523-2.24-1.198-4.48-2.589-5.91-4.54q-.299-1.907.346-2.57"/></g><path fill="#FFDFDF" d="m154.604 108.277-1.554.89-.7 1.228c-.276.598.01 1.106.992.746l.946-.875.96-1.436zM157.058 110.949l-.757 1.348-.257 1.208 1.275.271.61-1.133.268-1.26z"/><path fill="#FF7400" d="M156.797 116.278a.509.509 0 0 1-.739-.537 1.96 1.96 0 0 0-.563-1.735.509.509 0 0 1 .281-.868 1.96 1.96 0 0 0 1.477-1.072.509.509 0 0 1 .912 0c.286.578.838.98 1.476 1.072a.509.509 0 0 1 .282.868 1.96 1.96 0 0 0-.563 1.735.509.509 0 0 1-.739.537 1.96 1.96 0 0 0-1.824 0"/><path fill="#FFDFDF" d="M156.8 112.352q.248 1.053.195 1.314c-.053.262-.33.148-.448-.069a5.4 5.4 0 0 1-.3-.75z"/></g></svg>