<svg xmlns="http://www.w3.org/2000/svg" xmlns:xlink="http://www.w3.org/1999/xlink" width="120" height="88"><defs><linearGradient id="a" x1="29.083%" x2="29.083%" y1="100%" y2="18.069%"><stop offset="0%" stop-color="#FF8200"/><stop offset="8.87%" stop-color="#FFDCAD"/><stop offset="24.835%" stop-color="#FDC063"/><stop offset="37.494%" stop-color="#F88D24"/><stop offset="81.631%" stop-color="#FFB06A"/><stop offset="100%" stop-color="#FF7400"/></linearGradient><linearGradient id="b" x1="50%" x2="50%" y1="1.623%" y2="100%"><stop offset="0%" stop-color="#FFD294"/><stop offset="99.992%" stop-color="#FF7D00"/></linearGradient><linearGradient id="c" x1="50%" x2="50%" y1="0%" y2="100%"><stop offset="0%" stop-color="#FFF"/><stop offset="100%" stop-color="#FFFAF6"/></linearGradient><linearGradient id="e" x1="99.543%" x2="63.111%" y1="22.435%" y2="100%"><stop offset="0%" stop-color="#FBE4CD"/><stop offset="17.86%" stop-color="#FFD994"/><stop offset="35.54%" stop-color="#FFD9AA"/><stop offset="53.175%" stop-color="#FAB573"/><stop offset="100%" stop-color="#FF822A"/></linearGradient><linearGradient id="f" x1="50%" x2="50%" y1=".557%" y2="99.223%"><stop offset="0%" stop-color="#FFFEFD"/><stop offset="100%" stop-color="#FFF2E4"/></linearGradient><linearGradient id="i" x1="98.453%" x2="23.7%" y1="27.493%" y2="73.458%"><stop offset="0%" stop-color="#FFDAB4"/><stop offset="100%" stop-color="#FF9118"/></linearGradient><linearGradient id="j" x1="50%" x2="50%" y1="0%" y2="100%"><stop offset="0%" stop-color="#FF863C"/><stop offset="100%" stop-color="#FFDEB0"/></linearGradient><linearGradient id="k" x1="50%" x2="50%" y1="0%" y2="100%"><stop offset="0%" stop-color="#FFECC8"/><stop offset="100%" stop-color="#FFE3BB"/></linearGradient><filter id="d" width="135%" height="134.9%" x="-17.5%" y="-17.4%" filterUnits="objectBoundingBox"><feGaussianBlur in="SourceGraphic" stdDeviation="2"/></filter><filter id="g" width="120.7%" height="130.2%" x="-10.4%" y="-7.6%" filterUnits="objectBoundingBox"><feOffset dy="1" in="SourceAlpha" result="shadowOffsetOuter1"/><feGaussianBlur in="shadowOffsetOuter1" result="shadowBlurOuter1" stdDeviation=".5"/><feComposite in="shadowBlurOuter1" in2="SourceAlpha" operator="out" result="shadowBlurOuter1"/><feColorMatrix in="shadowBlurOuter1" values="0 0 0 0 0.824898098 0 0 0 0 0.412307721 0 0 0 0 0.0984596358 0 0 0 0.5 0"/></filter><path id="h" d="M15.052 16.331c.393-1.314.807-2.86 1.18-4.245h.083c.414 1.35.807 2.93 1.222 4.245l.331 1.12H14.72zM9.356 22.94h3.77l.89-3.038h4.556l.89 3.038h3.894L18.572 9.705H14.14zm15.615 0h3.707V9.705h-3.707z"/></defs><g fill="none" fill-rule="evenodd"><path fill="none" d="M0 0h120v88H0z"/><g transform="translate(7 3.058)"><g transform="translate(21.956 11.416)"><path fill="url(#a)" d="M27.459 46.762h14.465v12.395l5.79 2.448a1 1 0 0 1-.39 1.92H22.059a1 1 0 0 1-.39-1.92l5.79-2.448z"/><rect width="69.383" height="50.291" fill="url(#b)" rx="6"/><rect width="57.965" height="37.057" x="6.148" y="4.412" fill="url(#c)" rx="4"/><rect width="49.183" height="7.941" x="10.539" y="8.823" fill="#FFEFD5" rx="3"/><rect width="23.713" height="16.764" x="10.539" y="21.175" fill="#FFEFD5" rx="3"/><rect width="21.957" height="2.647" x="37.765" y="21.175" fill="#FFEFD5" rx="1.323"/><rect width="21.957" height="2.647" x="37.765" y="28.234" fill="#FFEFD5" rx="1.323"/><rect width="21.957" height="2.647" x="37.765" y="35.292" fill="#FFEFD5" rx="1.323"/><path stroke="#FFF" stroke-linecap="round" stroke-width="2" d="M30.739 45.438h7.267"/></g><ellipse cx="55.843" cy="30.83" fill="#AE560D" filter="url(#d)" opacity=".386" rx="17.126" ry="17.205"/><g transform="rotate(-43 47.15 -26.056)"><ellipse cx="17.126" cy="18.969" fill="url(#e)" rx="17.126" ry="17.205"/><ellipse cx="19.761" cy="17.205" fill="url(#f)" stroke="#F9DFB2" rx="16.626" ry="16.705"/><g fill-rule="nonzero" transform="rotate(22 19.017 16.323)"><use xlink:href="#h" fill="#000" filter="url(#g)"/><use xlink:href="#h" fill="url(#i)"/></g></g><ellipse cx="97.487" cy="22.004" fill="url(#j)" rx="3.513" ry="3.529"/><ellipse cx="6.148" cy="36.121" fill="url(#k)" rx="6.148" ry="6.176"/></g></g></svg>