<svg xmlns="http://www.w3.org/2000/svg" xmlns:xlink="http://www.w3.org/1999/xlink" width="120" height="88"><defs><linearGradient id="b" x1="50%" x2="50%" y1="0%" y2="100%"><stop offset="0%" stop-color="#F9C4FF"/><stop offset="100%" stop-color="#F191FF" stop-opacity="0"/></linearGradient><linearGradient id="e" x1="99.548%" x2="65.333%" y1="22.435%" y2="100%"><stop offset="0%" stop-color="#FBCDFB"/><stop offset="18.941%" stop-color="#FFEDFF"/><stop offset="50.922%" stop-color="#FF97FE"/><stop offset="84.916%" stop-color="#FFB9FE"/><stop offset="100%" stop-color="#FFADFE"/></linearGradient><linearGradient id="f" x1="50%" x2="50%" y1=".557%" y2="100%"><stop offset="0%" stop-color="#FFFDFF"/><stop offset="100%" stop-color="#FFD5F7"/></linearGradient><linearGradient id="i" x1="100%" x2="23.7%" y1="26.544%" y2="73.456%"><stop offset="0%" stop-color="#FEB4FF"/><stop offset="100%" stop-color="#D243D6"/></linearGradient><linearGradient id="k" x1="50%" x2="50%" y1="77.414%" y2="100%"><stop offset="0%" stop-color="#FFF" stop-opacity="0"/><stop offset="100%" stop-color="#BD4FD2"/></linearGradient><linearGradient id="m" x1="52.913%" x2="2.693%" y1="60.546%" y2="30.127%"><stop offset="0%" stop-color="#FF94FD" stop-opacity="0"/><stop offset="100%" stop-color="#EF33C3" stop-opacity=".5"/></linearGradient><linearGradient id="l" x1="68.292%" x2="50%" y1="37.215%" y2="71.642%"><stop offset="0%" stop-color="#FFF"/><stop offset="100%" stop-color="#FFF" stop-opacity="0"/></linearGradient><linearGradient id="n" x1="50%" x2="50%" y1="0%" y2="100%"><stop offset="0%" stop-color="#F897F9"/><stop offset="100%" stop-color="#EE5EF0"/></linearGradient><linearGradient id="o" x1="50%" x2="50%" y1="0%" y2="100%"><stop offset="0%" stop-color="#EDDEFF"/><stop offset="100%" stop-color="#D7BBFF"/></linearGradient><path id="a" d="M0 .282 34.841 0s4.605.282 3.986 5.241q-1.24 9.654-3.758 24.551-1.23 6.497-10.276 4.178C14.987 31.502 0 .282 0 .282"/><path id="h" d="M12.754 16.373c.394-1.318.81-2.868 1.183-4.257h.083c.416 1.354.81 2.939 1.225 4.257l.333 1.122h-3.156zm-5.71 6.625h3.779l.893-3.046h4.567l.893 3.046h3.904L16.283 9.73H11.84zm15.655 0h3.717V9.73h-3.717z"/><path id="j" d="M55.61 56.526c-1.706-2.355-2.51-11.152-3.646-19.18s-6.706-7.455-6.706-7.455h-5.993c-5.755.03-6.88-4.4-7.95-8.427s-5.199-3.424-5.199-3.424H5.203q-6.027 0-5.073 5.89l3.755 27.956q1.011 7.052 6.297 7.052h52.05s-4.502.337-6.622-2.412"/><filter id="c" width="134.9%" height="134.8%" x="-17.5%" y="-17.4%" filterUnits="objectBoundingBox"><feGaussianBlur in="SourceGraphic" stdDeviation="2"/></filter><filter id="g" width="120.6%" height="130.1%" x="-10.3%" y="-7.5%" filterUnits="objectBoundingBox"><feOffset dy="1" in="SourceAlpha" result="shadowOffsetOuter1"/><feGaussianBlur in="shadowOffsetOuter1" result="shadowBlurOuter1" stdDeviation=".5"/><feComposite in="shadowBlurOuter1" in2="SourceAlpha" operator="out" result="shadowBlurOuter1"/><feColorMatrix in="shadowBlurOuter1" values="0 0 0 0 0.470410752 0 0 0 0 0.0789829873 0 0 0 0 0.512681159 0 0 0 0.5 0"/></filter></defs><g fill="none" fill-rule="evenodd"><path fill="none" d="M0 0h120v88H0z"/><g transform="translate(17 14)"><g transform="translate(42.116 24.42)"><mask id="d" fill="#fff"><use xlink:href="#a"/></mask><path stroke="url(#b)" stroke-width=".5" d="m34.751.25.085.007c.39.036 2.019.273 3.013 1.55.574.738.927 1.822.73 3.402q-1.239 9.652-3.756 24.537c-.39 2.066-1.394 3.442-3.032 4.108-1.675.68-3.99.63-6.937-.127C16.46 31.615 4.298 8.308 1.05 1.841.737 1.215.528.791.399.53L15.857.404 16.9.395z"/><ellipse cx="13.651" cy="1.674" fill="#CF54CD" filter="url(#c)" mask="url(#d)" rx="17.17" ry="17.248"/></g><g transform="translate(35.956)"><ellipse cx="19.812" cy="19.017" fill="url(#e)" rx="17.17" ry="17.248"/><ellipse cx="17.17" cy="17.248" fill="url(#f)" stroke="#F9B2EF" rx="16.67" ry="16.748"/><g fill-rule="nonzero" transform="rotate(22 16.73 16.364)"><use xlink:href="#h" fill="#000" filter="url(#g)"/><use xlink:href="#h" fill="url(#i)"/></g></g><g transform="translate(11)"><use xlink:href="#j" fill="#EEB5FF"/><use xlink:href="#j" fill="url(#k)"/><path fill="url(#m)" stroke="url(#l)" stroke-linejoin="square" stroke-width=".5" d="M26.139 18.29c.117-.017 1.8-.228 3.217.707.728.48 1.381 1.265 1.718 2.532l.232.868c.597 2.204 1.315 4.417 2.835 5.905 1.15 1.128 2.758 1.851 5.124 1.84h6.005c.114-.011 2.413-.188 4.265 1.87.97 1.078 1.812 2.76 2.182 5.369q.154 1.096.302 2.201l.118.884.116.884.111.85c.851 6.507 1.666 12.57 3.048 14.479.79 1.025 1.9 1.639 2.996 2.004l-48.226.005c-1.682 0-3.028-.556-4.03-1.68-1.024-1.146-1.69-2.868-2.019-5.156L.377 23.891c-.302-1.867-.073-3.278.734-4.215.808-.939 2.18-1.386 4.092-1.386Z"/></g><circle cx="3.5" cy="8.5" r="3.5" fill="url(#n)"/><circle cx="97" cy="22" r="6" fill="url(#o)"/></g></g></svg>