<svg xmlns="http://www.w3.org/2000/svg" width="17" height="16"><path fill="#FFBA42" d="M6.448 1.495a2.074 2.074 0 0 1 3.842 0l1.157 2.829 2.992.245a2.085 2.085 0 0 1 1.91 2.099l-.007.149a2.1 2.1 0 0 1-.711 1.415l-2.296 2 .703 2.998a2.09 2.09 0 0 1-1.385 2.47l-.15.042a2.07 2.07 0 0 1-1.577-.253L8.38 13.914l-.017-.011-2.55 1.585a2.07 2.07 0 0 1-2.78-.56l-.09-.138a2.1 2.1 0 0 1-.243-1.56l.702-2.998-2.295-2a2.1 2.1 0 0 1-.33-2.796l.105-.134A2.07 2.07 0 0 1 2.3 4.569l2.99-.244zm2.103.342a.473.473 0 0 0-.622.264L6.634 5.267a1 1 0 0 1-.844.623l-3.36.273a.47.47 0 0 0-.324.168.5.5 0 0 0 .052.695l2.568 2.237c.28.25.4.635.314.996l-.783 3.336a.5.5 0 0 0 .058.372.47.47 0 0 0 .654.162l2.874-1.786a.97.97 0 0 1 1.04 0l2.887 1.786a.47.47 0 0 0 .356.058.49.49 0 0 0 .355-.592l-.783-3.336a1.02 1.02 0 0 1 .321-1.002l2.56-2.23a.5.5 0 0 0 .168-.335.486.486 0 0 0-.438-.528l-3.36-.274a1 1 0 0 1-.845-.623L8.809 2.1a.48.48 0 0 0-.258-.263"/></svg>