<svg xmlns="http://www.w3.org/2000/svg" xmlns:xlink="http://www.w3.org/1999/xlink" width="120" height="88"><defs><linearGradient id="b" x1="50%" x2="50%" y1="1.381%" y2="100%"><stop offset="0%" stop-color="#B1F5FF"/><stop offset="100%" stop-color="#22ACDA"/></linearGradient><linearGradient id="a" x1="50%" x2="50%" y1="1.084%" y2="98.233%"><stop offset="0%" stop-color="#C4F3FF"/><stop offset="100%" stop-color="#91D0FF" stop-opacity="0"/></linearGradient><linearGradient id="c" x1="90.938%" x2="50%" y1="48.089%" y2="68.958%"><stop offset="0%" stop-color="#0A9EC1"/><stop offset="100%" stop-color="#00698A"/></linearGradient><linearGradient id="f" x1="100%" x2="33.384%" y1="44.628%" y2="46.083%"><stop offset="0%" stop-color="#4BBDCE"/><stop offset="16.231%" stop-color="#7CEEFF"/><stop offset="43.411%" stop-color="#BFF7FF"/><stop offset="66.279%" stop-color="#8AF0FF"/><stop offset="100%" stop-color="#3BD0E6"/></linearGradient><linearGradient id="g" x1="50%" x2="50%" y1=".557%" y2="100%"><stop offset="0%" stop-color="#FFFDFF"/><stop offset="100%" stop-color="#E3F9FF"/></linearGradient><linearGradient id="i" x1="50%" x2="50%" y1="0%" y2="82.01%"><stop offset="0%" stop-color="#8DF9FF"/><stop offset="100%" stop-color="#47EAFA"/></linearGradient><linearGradient id="l" x1="50%" x2="50%" y1="77.414%" y2="100%"><stop offset="0%" stop-color="#FFF" stop-opacity="0"/><stop offset="100%" stop-color="#05BDD3"/></linearGradient><linearGradient id="n" x1="52.913%" x2="2.693%" y1="60.668%" y2="29.897%"><stop offset="0%" stop-color="#94EAFF" stop-opacity="0"/><stop offset="100%" stop-color="#0AD7E0" stop-opacity=".5"/></linearGradient><linearGradient id="m" x1="68.292%" x2="50%" y1="37.067%" y2="71.892%"><stop offset="0%" stop-color="#FFF"/><stop offset="100%" stop-color="#FFF" stop-opacity="0"/></linearGradient><linearGradient id="o" x1="50%" x2="50%" y1="0%" y2="100%"><stop offset="0%" stop-color="#54DFFF"/><stop offset="100%" stop-color="#2ABBFF"/></linearGradient><linearGradient id="p" x1="50%" x2="50%" y1="0%" y2="100%"><stop offset="0%" stop-color="#EED3FF"/><stop offset="100%" stop-color="#D9A8FF"/></linearGradient><filter id="d" width="114.8%" height="124%" x="-7.4%" y="-12%" filterUnits="objectBoundingBox"><feGaussianBlur in="SourceGraphic" stdDeviation="1"/></filter><filter id="j" width="109.7%" height="114.6%" x="-4.8%" y="-7.3%" filterUnits="objectBoundingBox"><feGaussianBlur in="SourceGraphic" stdDeviation="1"/></filter><path id="e" d="m11.858 5.865 24.355-.077a8 8 0 0 1 8.025 8.025l-.044 14.07a8 8 0 0 1-7.974 7.975l-24.355.077a8 8 0 0 1-8.026-8.025l.045-14.07a8 8 0 0 1 7.974-7.975"/><path id="k" d="M55.345 56.524c-1.698-2.357-2.498-11.163-3.629-19.199s-6.674-7.462-6.674-7.462h-5.964c-5.728.03-6.847-4.405-7.912-8.435S25.992 18 25.992 18H5.178Q-.819 18 .13 23.897l3.737 27.982q1.006 7.059 6.266 7.059h51.802s-4.48.337-6.59-2.414"/></defs><g fill="none" fill-rule="evenodd"><path fill="none" d="M0 0h120v88H0z"/><g transform="translate(16.5 15)"><path fill="url(#b)" stroke="url(#a)" stroke-width=".5" d="M65.604 24.637h.01l.06.005c.355.036 1.984.272 2.972 1.565.564.738.91 1.82.715 3.394q-1.233 9.661-3.737 24.56c-.39 2.068-1.388 3.446-3.018 4.112-1.667.682-3.97.63-6.903-.126-8.255-2.09-20.174-24.905-23.573-31.683l-.227-.454c-.237-.477-.418-.847-.539-1.095l16.423-.133 1.04-.009Z" transform="translate(14)"/><path fill="url(#c)" d="m34.94 17.77 24.328-.052a8 8 0 0 1 8.017 8.017l-.018 8.78a8 8 0 0 1-7.983 7.983l-24.33.051a8 8 0 0 1-8.016-8.016l.018-8.78a8 8 0 0 1 7.984-7.983" filter="url(#d)" opacity=".529" transform="rotate(-12 54.111 -36.467)"/><g transform="translate(36.054)"><mask id="h" fill="#fff"><use xlink:href="#e" transform="rotate(-19 24.039 20.861)"/></mask><use xlink:href="#e" fill="url(#f)" transform="rotate(-19 24.039 20.861)"/><path fill="url(#g)" stroke="#94F0FF" d="M35.003 6.046a7.48 7.48 0 0 1 5.31 2.18 7.48 7.48 0 0 1 2.213 5.293l-.033 10.584a7.48 7.48 0 0 1-2.196 5.28 7.48 7.48 0 0 1-5.28 2.196l-23.477.075a7.48 7.48 0 0 1-5.31-2.18 7.48 7.48 0 0 1-2.214-5.293l.033-10.584a7.48 7.48 0 0 1 2.197-5.28 7.48 7.48 0 0 1 5.28-2.196Z" mask="url(#h)" transform="rotate(-19 23.271 18.85)"/><path fill="url(#i)" fill-rule="nonzero" d="M33.096 10.631a1.31 1.31 0 0 1 1.67.825c.236.694-.13 1.45-.816 1.688l-3.395 1.177-3.057 1.06-.337.117-4.073 1.412-.36.125-3.713 1.288-.337.117-3.057 1.06-3.395 1.177a1.31 1.31 0 0 1-1.67-.825c-.235-.693.13-1.449.817-1.687l3.394-1.177 3.058-1.06.337-.117 4.073-1.413 4.072-1.412.337-.117 3.058-1.06zM27.143 21.88a1.31 1.31 0 0 1 1.67.825c.236.694-.13 1.45-.816 1.687l-1.404.487-4.073 1.412-.337.117-3.057 1.06-3.394 1.178a1.31 1.31 0 0 1-1.67-.825c-.236-.694.13-1.45.816-1.687l3.394-1.178 3.058-1.06.337-.117 4.073-1.412.596-.207.213-.074z" mask="url(#h)"/><path fill="#0C9BCD" d="M54.323 65.378c-1.698-2.357-2.498-11.163-3.628-19.2-1.131-8.035-6.675-7.461-6.675-7.461h-5.964c-5.728.03-6.847-4.405-7.912-8.435s-5.174-3.428-5.174-3.428H4.157q-5.999 0-5.05 5.896l3.738 27.983q1.006 7.059 6.266 7.059h51.802s-4.48.337-6.59-2.414" filter="url(#j)" mask="url(#h)" opacity=".239"/></g><g transform="translate(14)"><use xlink:href="#k" fill="#A0E7FF"/><use xlink:href="#k" fill="url(#l)"/><path fill="url(#n)" stroke="url(#m)" stroke-linejoin="square" stroke-width=".5" d="M26.011 18.25c.017-.002 1.749-.257 3.202.706.725.48 1.376 1.267 1.711 2.537.829 3.085 1.544 5.293 3.053 6.779 1.145 1.129 2.745 1.853 5.1 1.841h6.078c.963.013 2.754.251 4.23 1.973.928 1.082 1.728 2.742 2.084 5.274q.123.877.242 1.76l.117.886q.145 1.093.285 2.177c.847 6.513 1.658 12.583 3.033 14.493.788 1.026 1.893 1.641 2.985 2.007l-47.998.005c-1.673 0-3.012-.557-4.01-1.681-1.018-1.147-1.682-2.871-2.008-5.161L.377 23.856c-.301-1.868-.074-3.28.73-4.22.804-.938 2.17-1.386 4.071-1.386Z"/></g><circle cx="4.5" cy="44.5" r="4.5" fill="url(#o)"/><circle cx="92" cy="16" r="3" fill="url(#p)"/></g></g></svg>