<svg xmlns="http://www.w3.org/2000/svg" xmlns:xlink="http://www.w3.org/1999/xlink" width="55" height="32"><defs><filter id="g" width="632.2%" height="233.1%" x="-266.1%" y="-66.5%" filterUnits="objectBoundingBox"><feGaussianBlur in="SourceGraphic" stdDeviation="1"/></filter><filter id="h" width="632.2%" height="233.1%" x="-266.1%" y="-66.5%" filterUnits="objectBoundingBox"><feGaussianBlur in="SourceGraphic" stdDeviation="1"/></filter><filter id="i" width="632.2%" height="233.1%" x="-266.1%" y="-66.5%" filterUnits="objectBoundingBox"><feGaussianBlur in="SourceGraphic" stdDeviation="1"/></filter><filter id="l" width="126.6%" height="106.7%" x="-13.3%" y="-3.3%" filterUnits="objectBoundingBox"><feOffset dx=".1" dy=".3" in="SourceAlpha" result="shadowOffsetInner1"/><feComposite in="shadowOffsetInner1" in2="SourceAlpha" k2="-1" k3="1" operator="arithmetic" result="shadowInnerInner1"/><feColorMatrix in="shadowInnerInner1" values="0 0 0 0 0.167606138 0 0 0 0 0.299365942 0 0 0 0 0.207024663 0 0 0 1 0"/></filter><filter id="o" width="126.6%" height="106.7%" x="-13.3%" y="-3.3%" filterUnits="objectBoundingBox"><feOffset dx=".1" dy=".3" in="SourceAlpha" result="shadowOffsetInner1"/><feComposite in="shadowOffsetInner1" in2="SourceAlpha" k2="-1" k3="1" operator="arithmetic" result="shadowInnerInner1"/><feColorMatrix in="shadowInnerInner1" values="0 0 0 0 0.167606138 0 0 0 0 0.299365942 0 0 0 0 0.207024663 0 0 0 1 0"/></filter><filter id="q" width="126.6%" height="106.7%" x="-13.3%" y="-3.3%" filterUnits="objectBoundingBox"><feOffset dx=".1" dy=".3" in="SourceAlpha" result="shadowOffsetInner1"/><feComposite in="shadowOffsetInner1" in2="SourceAlpha" k2="-1" k3="1" operator="arithmetic" result="shadowInnerInner1"/><feColorMatrix in="shadowInnerInner1" values="0 0 0 0 0.167606138 0 0 0 0 0.299365942 0 0 0 0 0.207024663 0 0 0 1 0"/></filter><linearGradient id="c" x1="8.804%" x2="62.773%" y1="50%" y2="60.737%"><stop offset="0%" stop-color="#E0E5EB"/><stop offset="8.17%" stop-color="#FFF"/><stop offset="18.217%" stop-color="#E3E8EE" stop-opacity=".986"/><stop offset="100%" stop-color="#DADADA"/></linearGradient><linearGradient id="d" x1="91.25%" x2="70.022%" y1="49.533%" y2="54.074%"><stop offset="0%" stop-color="#FFCD9F" stop-opacity=".575"/><stop offset="6.897%" stop-color="#E3C1A2" stop-opacity=".607"/><stop offset="18.589%" stop-color="#B3ADA7" stop-opacity=".66"/><stop offset="100%" stop-color="#FFF" stop-opacity="0"/></linearGradient><linearGradient id="e" x1="50%" x2="50%" y1="0%" y2="100%"><stop offset="0%" stop-color="#3A291E"/><stop offset="100%" stop-color="#652A0F"/></linearGradient><linearGradient id="f" x1="50%" x2="60.205%" y1="45.865%" y2="52.402%"><stop offset="0%" stop-color="#FFF"/><stop offset="100%" stop-color="#FED7B7"/></linearGradient><linearGradient id="m" x1="50%" x2="50%" y1="0%" y2="100%"><stop offset="0%" stop-color="#FFF" stop-opacity="0"/><stop offset="100%" stop-color="#FFF"/></linearGradient><rect id="j" width="1.127" height="4.509" x="0" y="0" rx=".564"/><rect id="n" width="1.127" height="4.509" x="3.382" y="0" rx=".564"/><rect id="p" width="1.127" height="4.509" x="6.764" y="0" rx=".564"/><radialGradient id="k" cx="50%" cy="100%" r="400%" fx="50%" fy="100%" gradientTransform="matrix(0 -.25 1 0 -.5 1.125)"><stop offset="0%" stop-color="#ABFF73"/><stop offset="55.073%" stop-color="#63F720"/><stop offset="100%" stop-color="#50C72E"/></radialGradient><path id="a" d="M13.872 0h27.12c1.725 0 3.433.642 3.816 1.434l9.363 19.357c.236.486.694 2.558.694 3.7v.933l-53.306-.56q-.725 0-1.559-.373v-.62c0-1.03.46-2.597.694-3.08l9.363-19.357C10.44.642 12.148 0 13.872 0"/></defs><g fill="none" fill-rule="evenodd"><use xlink:href="#a" fill="url(#c)"/><use xlink:href="#a" fill="url(#d)"/><path fill="url(#e)" stroke="url(#f)" stroke-width=".5" d="M48.865 20.225a5.73 5.73 0 0 1 4.066 1.684 5.73 5.73 0 0 1 1.684 4.066 5.77 5.77 0 0 1-1.682 4.085 5.72 5.72 0 0 1-4.068 1.69H6a5.73 5.73 0 0 1-4.066-1.684A5.73 5.73 0 0 1 .25 26c0-1.599.642-3.042 1.682-4.085A5.72 5.72 0 0 1 6 20.225Z"/><g transform="translate(5.261 24.484)"><rect width="1.127" height="4.509" fill="#39FF00" filter="url(#g)" rx=".564"/><rect width="1.127" height="4.509" x="3.382" fill="#39FF00" filter="url(#h)" rx=".564"/><rect width="1.127" height="4.509" x="6.764" fill="#39FF00" filter="url(#i)" rx=".564"/><use xlink:href="#j" fill="url(#k)"/><use xlink:href="#j" fill="#000" filter="url(#l)"/><rect width="1.027" height="4.409" x=".05" y=".05" stroke="url(#m)" stroke-linejoin="square" stroke-width=".1" rx=".514"/><use xlink:href="#n" fill="url(#k)"/><use xlink:href="#n" fill="#000" filter="url(#o)"/><rect width="1.027" height="4.409" x="3.432" y=".05" stroke="url(#m)" stroke-linejoin="square" stroke-width=".1" rx=".514"/><use xlink:href="#p" fill="url(#k)"/><use xlink:href="#p" fill="#000" filter="url(#q)"/><rect width="1.027" height="4.409" x="6.814" y=".05" stroke="url(#m)" stroke-linejoin="square" stroke-width=".1" rx=".514"/></g></g></svg>