<svg xmlns="http://www.w3.org/2000/svg" width="26" height="26"><defs><linearGradient id="a" x1="50%" x2="50%" y1="0%" y2="100%"><stop offset="0%" stop-color="#F4F4FA"/><stop offset="100%" stop-color="#E4E4F3"/></linearGradient></defs><g fill="none" fill-rule="evenodd" transform="translate(1 1)"><circle cx="12" cy="12" r="12" fill="url(#a)" stroke="#6F6F8C"/><path fill="#6F6F8C" fill-rule="nonzero" d="M13.042 13.281q-.082.26-.088.807h-1.846q.04-1.155.219-1.596.177-.441.916-1.015l.499-.39q.246-.185.396-.403a1.38 1.38 0 0 0 .274-.828q0-.52-.305-.946-.304-.428-1.11-.428-.794 0-1.125.527a2 2 0 0 0-.331 1.094H8.565q.082-1.95 1.36-2.762.807-.52 1.983-.52 1.544 0 2.567.739 1.021.737 1.022 2.187 0 .89-.445 1.497-.26.369-.998.943l-.485.376a1.47 1.47 0 0 0-.527.718M13.097 17H11.06v-1.976h2.037z"/></g></svg>