<svg xmlns="http://www.w3.org/2000/svg" width="26" height="26"><defs><linearGradient id="a" x1="50%" x2="50%" y1="0%" y2="100%"><stop offset="0%" stop-color="#F4F4FA"/><stop offset="100%" stop-color="#E4E4F3"/></linearGradient></defs><g fill="none" fill-rule="evenodd" transform="translate(1 1)"><circle cx="12" cy="12" r="12" fill="url(#a)" stroke="#6F6F8C"/><path fill="#6F6F8C" fill-rule="nonzero" d="M13.042 13.281c-.054.173-.084.442-.088.807h-1.846c.027-.77.1-1.302.219-1.596.118-.294.423-.633.916-1.015l.499-.39c.164-.123.296-.258.396-.403.182-.251.274-.527.274-.828 0-.346-.102-.662-.305-.946-.202-.285-.573-.428-1.11-.428-.53 0-.904.176-1.125.527-.221.35-.331.715-.331 1.094H8.565c.055-1.3.508-2.22 1.36-2.762.538-.347 1.199-.52 1.983-.52 1.03 0 1.885.246 2.567.739.68.492 1.022 1.22 1.022 2.187 0 .593-.149 1.092-.445 1.497-.173.246-.506.56-.998.943l-.485.376a1.47 1.47 0 0 0-.527.718ZM13.097 17H11.06v-1.976h2.037V17Z"/></g></svg>