<?xml version="1.0" encoding="UTF-8"?>
<svg width="26px" height="26px" viewBox="0 0 26 26" version="1.1" xmlns="http://www.w3.org/2000/svg" xmlns:xlink="http://www.w3.org/1999/xlink">
    <title>icon-Q</title>
    <defs>
        <linearGradient x1="50%" y1="0%" x2="50%" y2="100%" id="linearGradient-1">
            <stop stop-color="#F4F4FA" offset="0%"></stop>
            <stop stop-color="#E4E4F3" offset="100%"></stop>
        </linearGradient>
    </defs>
    <g id="页面-2" stroke="none" stroke-width="1" fill="none" fill-rule="evenodd">
        <g id="画板备份-5" transform="translate(-223.000000, -933.000000)">
            <g id="编组-2" transform="translate(200.000000, 87.000000)">
                <g id="icon-Q" transform="translate(24.000000, 847.000000)">
                    <circle id="椭圆形" stroke="#6F6F8C" fill="url(#linearGradient-1)" cx="12" cy="12" r="12"></circle>
                    <g id="?" transform="translate(8.564941, 6.821289)" fill="#6F6F8C" fill-rule="nonzero">
                        <path d="M4.47753906,6.45996094 C4.42285156,6.63313802 4.39322917,6.90201823 4.38867188,7.26660156 L2.54296875,7.26660156 C2.5703125,6.49641927 2.64322917,5.96435547 2.76171875,5.67041016 C2.88020833,5.37646484 3.18554688,5.03808594 3.67773438,4.65527344 L4.17675781,4.265625 C4.34082031,4.14257812 4.47298177,4.00813802 4.57324219,3.86230469 C4.75553385,3.61165365 4.84667969,3.3359375 4.84667969,3.03515625 C4.84667969,2.68880208 4.74527995,2.37320964 4.54248047,2.08837891 C4.33968099,1.80354818 3.96940104,1.66113281 3.43164062,1.66113281 C2.90299479,1.66113281 2.52815755,1.83658854 2.30712891,2.1875 C2.08610026,2.53841146 1.97558594,2.90299479 1.97558594,3.28125 L0,3.28125 C0.0546875,1.98242188 0.508138021,1.06184896 1.36035156,0.51953125 C1.89811198,0.173177083 2.55891927,0 3.34277344,0 C4.37272135,0 5.22835286,0.24609375 5.90966797,0.73828125 C6.59098307,1.23046875 6.93164062,1.95963542 6.93164062,2.92578125 C6.93164062,3.51822917 6.78352865,4.0172526 6.48730469,4.42285156 C6.3141276,4.66894531 5.98144531,4.98339844 5.48925781,5.36621094 L5.00390625,5.7421875 C4.73958333,5.94726562 4.5641276,6.18652344 4.47753906,6.45996094 Z M4.53222656,10.1787109 L2.49511719,10.1787109 L2.49511719,8.203125 L4.53222656,8.203125 L4.53222656,10.1787109 Z" id="形状"></path>
                    </g>
                </g>
            </g>
        </g>
    </g>
</svg>