<svg xmlns="http://www.w3.org/2000/svg" width="16" height="16"><g fill="#FF7400" fill-rule="nonzero"><path d="M2.552 6.351c-1.033-1.073-.991-2.808.083-3.84a2.695 2.695 0 0 1 3.716 0l2.272 2.271c.33.33.826.33 1.156 0a.8.8 0 0 0 0-1.156L7.508 1.354C5.856-.38 3.088-.463 1.354 1.19s-1.817 4.42-.165 6.154l.165.165 2.272 2.271c.289.33.826.372 1.156.042a.8.8 0 0 0 .041-1.157l-.04-.041zM14.694 8.5l-2.272-2.271a.8.8 0 0 0-1.156 0 .8.8 0 0 0 0 1.156l2.271 2.271c1.033 1.074.992 2.809-.082 3.841a2.695 2.695 0 0 1-3.717 0l-2.271-2.271c-.33-.33-.868-.33-1.157 0-.33.33-.33.867 0 1.156l2.272 2.272a4.36 4.36 0 0 0 6.153 0 4.325 4.325 0 0 0-.041-6.154"/><path d="M10.316 10.688a.38.38 0 0 0 .29-.124.4.4 0 0 0 0-.578L6.061 5.443a.4.4 0 0 0-.578 0 .4.4 0 0 0 0 .578l4.543 4.543a.45.45 0 0 0 .29.124"/></g></svg>