<svg xmlns="http://www.w3.org/2000/svg" width="26" height="26"><defs><linearGradient id="a" x1="50%" x2="50%" y1="0%" y2="100%"><stop offset="0%" stop-color="#F4F4FA"/><stop offset="100%" stop-color="#E4E4F3"/></linearGradient></defs><g fill="none" fill-rule="evenodd" transform="translate(1 1)"><circle cx="12" cy="12" r="12" fill="url(#a)" stroke="#6F6F8C"/><path fill="#6F6F8C" fill-rule="nonzero" d="m9.782 11.39-1.45 2.512-.064.123c-.41.876.003 2.027 1.023 2.616 1.068.617 2.339.349 2.851-.539l1.45-2.512 1.387.8-1.451 2.512-.098.16c-1.022 1.557-3.195 1.971-4.94.965-1.8-1.04-2.518-3.237-1.544-4.925l1.45-2.512 1.386.8Zm4.35-1.2-3 5.198L9.42 14.4l3-5.198 1.712.987Zm1.331-4.24c1.744 1.007 2.472 3.096 1.634 4.76l-.089.164-1.43 2.476-1.385-.8 1.43-2.476c.512-.887.108-2.122-.96-2.738-1.02-.589-2.224-.371-2.777.421l-.074.117-1.43 2.476-1.385-.8 1.43-2.476c.974-1.688 3.235-2.164 5.036-1.124Z"/></g></svg>