<?xml version="1.0" encoding="UTF-8"?>
<svg width="26px" height="26px" viewBox="0 0 26 26" version="1.1" xmlns="http://www.w3.org/2000/svg" xmlns:xlink="http://www.w3.org/1999/xlink">
    <title>icon-about备份</title>
    <defs>
        <linearGradient x1="50%" y1="0%" x2="50%" y2="100%" id="linearGradient-1">
            <stop stop-color="#F4F4FA" offset="0%"></stop>
            <stop stop-color="#E4E4F3" offset="100%"></stop>
        </linearGradient>
    </defs>
    <g id="页面-2" stroke="none" stroke-width="1" fill="none" fill-rule="evenodd">
        <g id="画板备份-5" transform="translate(-223.000000, -853.000000)">
            <g id="编组-2" transform="translate(200.000000, 87.000000)">
                <g id="编组-36" transform="translate(24.000000, 767.000000)">
                    <circle id="椭圆形" stroke="#6F6F8C" fill="url(#linearGradient-1)" cx="12" cy="12" r="12"></circle>
                    <path d="M9.7771109,12.5671598 L9.7771109,15.4684215 L9.78303789,15.6071048 C9.86555523,16.5701436 10.7999985,17.3607291 11.9771109,17.3607291 C13.2102763,17.3607291 14.1771109,16.4930571 14.1771109,15.4684215 L14.1771109,15.4684215 L14.1771109,12.5671598 L15.7771109,12.5671598 L15.7771109,15.4684215 L15.7717888,15.6557483 C15.6658025,17.5155761 13.9905397,18.9607291 11.9771109,18.9607291 C9.89656781,18.9607291 8.1771109,17.4176268 8.1771109,15.4684215 L8.1771109,15.4684215 L8.1771109,12.5671598 L9.7771109,12.5671598 Z M12.9443961,9.352548 L12.9443961,15.3549685 L10.9688101,15.3549685 L10.9688101,9.352548 L12.9443961,9.352548 Z M11.9771109,5.01587168 C13.9905397,5.01587168 15.6658025,6.46102477 15.7717888,8.32085251 L15.7771109,8.50817937 L15.7771109,11.3671598 L14.1771109,11.3671598 L14.1771109,8.50817937 C14.1771109,7.48354374 13.2102763,6.61587168 11.9771109,6.61587168 C10.7999985,6.61587168 9.86555523,7.40645717 9.78303789,8.36949599 L9.7771109,8.50817937 L9.7771109,11.3671598 L8.1771109,11.3671598 L8.1771109,8.50817937 C8.1771109,6.55897403 9.89656781,5.01587168 11.9771109,5.01587168 Z" id="形状结合" fill="#6F6F8C" fill-rule="nonzero" transform="translate(11.977111, 11.988300) rotate(30.000000) translate(-11.977111, -11.988300) "></path>
                </g>
            </g>
        </g>
    </g>
</svg>