<svg xmlns="http://www.w3.org/2000/svg" xmlns:xlink="http://www.w3.org/1999/xlink" width="48" height="48"><defs><circle id="a" cx="24" cy="24" r="24"/></defs><g fill="none" fill-rule="evenodd"><mask id="b" fill="#fff"><use xlink:href="#a"/></mask><use xlink:href="#a" fill="#FB6C00"/><g fill="#FFF" mask="url(#b)"><path d="M32.071 9.76c.367.015.622.196.764.545l3.671 12.297c.105.343.361.598.827.598h4.445c.423 0 .774.302.866.667.062.35-.018.634-.24.85L25.27 40.197c-.567.6-1.591.798-2.39 0L5.561 24.69a.903.903 0 0 1-.228-.685c.112-.73.722-.804.895-.805h4.61c.4-.004.661-.207.783-.508l.059-.205c.468-1.584 1.716-5.718 3.626-12.145a.797.797 0 0 1 .733-.582c.373 0 .635.17.787.51l3.682 7.85c.17.373.427.56.772.56h5.6c.38-.023.635-.21.764-.56 1.636-3.466 2.856-6.071 3.663-7.815.18-.426.507-.545.764-.545ZM27.68 26.68h-7.172c-.828.007-1.066.897-.565 1.4.073.068.178.17.314.306l.76.759c.589.585 1.401 1.376 2.451 2.341.34.345.86.383 1.216 0 1.574-1.447 2.763-2.695 3.57-3.448.448-.439.207-1.345-.574-1.358Z"/></g></g></svg>