<svg xmlns="http://www.w3.org/2000/svg" width="32" height="32"><g fill="none" fill-rule="nonzero"><path fill="#3D2E1F" d="m18.629 4.774 7.755 5.033a3.6 3.6 0 0 1 1.642 3.023v11.566A3.604 3.604 0 0 1 24.422 28H7.604A3.604 3.604 0 0 1 4 24.396V12.83c0-1.22.618-2.359 1.642-3.023l7.756-5.033a4.8 4.8 0 0 1 5.23 0m-4.316 1.411-7.755 5.033a1.92 1.92 0 0 0-.876 1.612v11.566c0 1.062.86 1.922 1.922 1.922h16.818c1.062 0 1.923-.86 1.923-1.922V12.83c0-.651-.33-1.258-.876-1.612l-7.756-5.033a3.12 3.12 0 0 0-3.4 0"/><path fill="#FF7400" d="M15.898 16c.498-.001.902.4.904.898l.02 6.634a.901.901 0 0 1-1.802.005L15 16.904a.9.9 0 0 1 .898-.904"/></g></svg>