<svg xmlns="http://www.w3.org/2000/svg" width="32" height="32"><g fill="none" fill-rule="evenodd"><path stroke="#444" stroke-linecap="round" stroke-linejoin="round" stroke-width="1.7" d="M20.655 4.15c.787 0 1.5.319 2.015.835.516.515.835 1.228.835 2.015v9.15H25.7c.51 0 .973.207 1.308.542s.542.797.542 1.308a1.85 1.85 0 0 1-.622 1.384l-9.11 8.084a2.84 2.84 0 0 1-1.88.718 2.84 2.84 0 0 1-1.885-.703l-9.27-8.09a1.84 1.84 0 0 1-.629-1.268A1.85 1.85 0 0 1 6 16.15h2.23V7c0-.787.32-1.5.836-2.015a2.84 2.84 0 0 1 2.015-.835Z"/><path fill="#FF7900" d="m16.14 10.482-3.448 5.96c-.002.003-.2.43.338.43h1.88q.302 0 .302.293v4.44c.001.361.369.417.53.174L19.7 15.01c.085-.187.062-.476-.252-.476h-2.47c-.344 0-.302-.318-.302-.338v-3.603c.007-.395-.369-.392-.537-.112"/></g></svg>