<svg xmlns="http://www.w3.org/2000/svg" xmlns:xlink="http://www.w3.org/1999/xlink" width="167" height="48"><defs><circle id="a" cx="24" cy="24" r="24"/></defs><g fill="none" fill-rule="evenodd"><g fill-rule="nonzero"><g fill="#000" fill-opacity=".75"><path d="M70.662 14.298h1.632V12.57a14 14 0 0 1 1.344.979l.98-1.095c-.27-.153-1.152-.556-1.786-.825h1.766v-1.383h-2.304v-.748h-1.632v.748h-2.438v1.383h1.824a7.5 7.5 0 0 1-2.38 1.44c.345.288.825.845 1.055 1.21.672-.308 1.344-.826 1.94-1.402zm-2.995-5.012h14.285v-1.69h-6.605a11.5 11.5 0 0 0-.672-1.554l-2.323.422c.173.326.326.73.46 1.133h-7.276v6.125c0 2.745-.096 6.508-1.536 9.1.46.25 1.363.96 1.728 1.383 1.651-2.861 1.94-7.45 1.94-10.483zm9.447 13.21c-.807 0-.98-.058-.98-.538v-1.881h-1.478c.038-.096.096-.192.134-.288h2.996a4.7 4.7 0 0 1-.864 1.325.8.8 0 0 1-.461.21c.134.289.288.826.365 1.076.23-.154.633-.25 2.784-.634.076.173.134.327.192.461l.902-.384c-.096.538-.288.653-.787.653zm-6.432-3.974v-.71h2.592c-.077.249-.154.48-.23.71zm0-2.458h2.88c-.02.23-.058.46-.096.691h-2.784zm8.025.691h-3.053c.02-.23.058-.46.077-.691h2.976zm0 1.767H75.27c.077-.23.135-.461.192-.71h3.245zm.23 1.977c.097.154.173.288.27.461l-1.037.154c.268-.327.537-.672.748-1.056l-.768-.27h2.612v-4.991h-5.76c.21-.25.403-.519.595-.787l-.077-.02c.634-.288 1.248-.73 1.805-1.228v1.536h1.67v-1.46c.634.596 1.363 1.152 2.035 1.46.27-.365.768-.941 1.133-1.23-.845-.306-1.805-.863-2.515-1.44h2.093v-1.382h-2.746v-.748h-1.67v.748h-2.15v1.383h1.459a7.3 7.3 0 0 1-2.304 1.19c.326.269.768.787 1.036 1.171l-2.016-.25c-.076.289-.25.673-.441 1.057h-4.167v4.992h3.572c-.884 1.133-2.4 1.997-5.07 2.592.442.422.942 1.229 1.153 1.785 2.976-.768 4.742-1.881 5.779-3.34v1.152c0 1.401.595 1.785 2.726 1.785h3.226c1.498 0 2.035-.403 2.189-1.9a5.3 5.3 0 0 1-1.575-.461c0 .153-.019.268-.038.384-.192-.423-.595-1.114-.902-1.632zM97.523 6.714c-.46 1.497-1.344 3.475-2.093 4.8l1.997.69c.826-1.209 1.805-3.033 2.65-4.742zm-8.217 4.492c-.423-1.228-1.364-2.995-2.362-4.32l-2.093.826c.941 1.344 1.882 3.206 2.247 4.416zm4.339-5.088H91.13v6.644h-5.818v2.284h12v1.767H85.965v2.208h11.347v1.997H84.87v2.265h12.442v.787h2.438V12.762h-6.105z"/></g><g fill="#424254"><path d="M64.922 34.24h1.28v7.846h4.85V43.2h-6.13zM80.832 43.2l-.013-6.528-3.238 5.44h-.589l-3.238-5.402v6.49h-1.23v-8.96h1.05l3.738 6.298 3.686-6.298h1.05l.013 8.96zM88.192 34.24h3.776q1.42 0 2.522.563a4.14 4.14 0 0 1 1.708 1.581q.609 1.017.608 2.336 0 1.319-.608 2.336a4.14 4.14 0 0 1-1.708 1.58q-1.101.564-2.522.564h-3.776zm3.7 7.846q1.087 0 1.913-.422.825-.422 1.273-1.184.449-.762.448-1.76 0-.998-.448-1.76a3.05 3.05 0 0 0-1.273-1.184q-.825-.422-1.914-.422h-2.419v6.732zM101.491 43.277q-1.011 0-1.817-.448a3.25 3.25 0 0 1-1.261-1.235q-.455-.787-.455-1.786 0-.998.455-1.786a3.2 3.2 0 0 1 1.26-1.228q.807-.442 1.818-.442t1.811.442 1.255 1.228.454 1.786-.454 1.786a3.26 3.26 0 0 1-1.255 1.235q-.8.447-1.81.448m0-1.075q.653 0 1.171-.301.519-.3.813-.845a2.6 2.6 0 0 0 .295-1.248q0-.704-.295-1.248a2.1 2.1 0 0 0-.813-.838 2.33 2.33 0 0 0-1.17-.295 2.33 2.33 0 0 0-1.172.295 2.1 2.1 0 0 0-.82.838q-.3.544-.3 1.248t.3 1.248.82.845q.519.3 1.171.3M116.98 36.416l-2.535 6.784h-1.178l-1.958-5.146-1.984 5.146h-1.178l-2.521-6.784h1.164l1.972 5.402 2.048-5.402h1.036l2.01 5.427 2.022-5.427zM121.843 36.352q1.293 0 2.055.749.76.748.761 2.195V43.2h-1.229v-3.763q0-.986-.473-1.485-.474-.5-1.357-.5-.998 0-1.574.583-.576.582-.576 1.67V43.2h-1.23v-6.784h1.178v1.024q.372-.525 1.005-.806a3.5 3.5 0 0 1 1.44-.282M126.938 33.702h1.228V43.2h-1.228zM133.414 43.277q-1.011 0-1.817-.448a3.25 3.25 0 0 1-1.261-1.235q-.454-.787-.454-1.786 0-.998.454-1.786a3.2 3.2 0 0 1 1.26-1.228q.807-.442 1.818-.442t1.812.442 1.254 1.228.454 1.786-.454 1.786a3.26 3.26 0 0 1-1.254 1.235q-.8.447-1.812.448m0-1.075q.653 0 1.172-.301.518-.3.812-.845a2.6 2.6 0 0 0 .295-1.248q0-.704-.295-1.248a2.1 2.1 0 0 0-.812-.838 2.33 2.33 0 0 0-1.172-.295 2.33 2.33 0 0 0-1.17.295 2.1 2.1 0 0 0-.82.838q-.3.544-.3 1.248t.3 1.248q.3.544.82.845.518.3 1.17.3M141.107 36.352q1.409 0 2.157.691.75.692.749 2.061V43.2h-1.165v-.896a1.94 1.94 0 0 1-.877.723q-.57.25-1.35.25-1.14 0-1.824-.55-.685-.552-.685-1.447t.653-1.44q.652-.544 2.073-.544h1.946v-.243q0-.795-.46-1.216-.462-.423-1.358-.423-.6 0-1.177.199-.576.199-.973.531l-.512-.922q.525-.422 1.254-.646a5.3 5.3 0 0 1 1.55-.224m-.281 5.978q.703 0 1.216-.314.51-.315.742-.89v-.947h-1.894q-1.562 0-1.562 1.05 0 .512.397.806.396.294 1.1.295M152.691 33.702V43.2h-1.177v-1.075a2.66 2.66 0 0 1-1.037.857 3.2 3.2 0 0 1-1.383.295q-.985 0-1.766-.435a3.1 3.1 0 0 1-1.222-1.223q-.442-.787-.442-1.811t.442-1.805a3.13 3.13 0 0 1 1.222-1.216q.781-.435 1.766-.435.73 0 1.344.275.615.276 1.024.813v-3.738zm-3.494 8.5a2.3 2.3 0 0 0 1.165-.301q.525-.3.819-.845a2.6 2.6 0 0 0 .294-1.248q0-.704-.294-1.248a2.07 2.07 0 0 0-.82-.838 2.34 2.34 0 0 0-1.164-.295 2.33 2.33 0 0 0-1.171.295 2.1 2.1 0 0 0-.82.838q-.3.544-.3 1.248t.3 1.248q.3.544.82.845.518.3 1.17.3M161.152 39.846q0 .141-.026.372h-5.504q.116.895.788 1.44.671.544 1.67.544 1.215 0 1.958-.82l.679.794q-.461.537-1.146.82a4 4 0 0 1-1.53.28q-1.074 0-1.907-.44a3.15 3.15 0 0 1-1.286-1.236q-.454-.794-.454-1.792 0-.985.441-1.78.442-.792 1.216-1.234a3.46 3.46 0 0 1 1.747-.442q.973 0 1.735.442.762.441 1.19 1.235.429.794.429 1.817m-3.354-2.457q-.882 0-1.478.537-.596.538-.698 1.408h4.352q-.102-.857-.697-1.401t-1.479-.544M164.032 37.555q.32-.588.947-.896.627-.307 1.523-.307v1.19a2 2 0 0 0-.281-.012q-.998 0-1.568.595t-.57 1.696V43.2h-1.229v-6.784h1.178z"/></g></g><g><mask id="b" fill="#fff"><use xlink:href="#a"/></mask><use xlink:href="#a" fill="#FB6C00"/><g fill="#FFF" mask="url(#b)"><path d="M32.071 9.76q.55.022.764.545l3.671 12.297c.105.343.361.598.827.598h4.445c.423 0 .774.302.866.667q.093.526-.24.85L25.27 40.197c-.567.6-1.591.798-2.39 0L5.561 24.69a.9.9 0 0 1-.228-.685c.112-.73.722-.804.895-.805h4.61c.4-.004.661-.207.783-.508l.059-.205c.468-1.584 1.716-5.718 3.626-12.145a.8.8 0 0 1 .733-.582q.56 0 .787.51l3.682 7.85q.255.56.772.56h5.6q.57-.035.764-.56 2.453-5.199 3.663-7.815c.18-.426.507-.545.764-.545M27.68 26.68h-7.172c-.828.007-1.066.897-.565 1.4q.11.102.314.306l.76.759c.589.585 1.401 1.376 2.451 2.341.34.345.86.383 1.216 0 1.574-1.447 2.763-2.695 3.57-3.448.448-.439.207-1.345-.574-1.358"/></g></g></g></svg>