<svg xmlns="http://www.w3.org/2000/svg" width="32" height="32"><g fill="#FFF" fill-rule="nonzero"><path d="M28 4q-.063 8.211-.069 11.372V16c0 6.627-5.357 12-11.966 12S4 22.627 4 16 9.357 4 15.965 4zm-1.652 1.639H15.965C10.263 5.639 5.64 10.277 5.64 16s4.624 10.361 10.326 10.361S26.292 21.723 26.292 16v-.629q.006-2.824.056-9.657z"/><path d="M12.153 19.776a.88.88 0 0 1 1.242-.013c.62.608 1.383.908 2.334.91.95.003 1.71-.292 2.328-.893a.878.878 0 0 1 1.225 1.259c-.954.927-2.157 1.394-3.558 1.39-1.4-.003-2.603-.477-3.558-1.411a.88.88 0 0 1-.013-1.242"/></g></svg>