<svg xmlns="http://www.w3.org/2000/svg" width="32" height="32"><g fill="none" fill-rule="nonzero"><path fill="#444" d="M23.897 8a3.52 3.52 0 0 1 3.517 3.518v12.897a3.52 3.52 0 0 1-3.517 3.518H7.517A3.52 3.52 0 0 1 4 24.415V11.518A3.52 3.52 0 0 1 7.518 8zm0 1.642H7.517c-1.036 0-1.875.84-1.875 1.876v12.897c0 1.036.84 1.876 1.876 1.876h16.379c1.036 0 1.876-.84 1.876-1.876V11.518c0-1.037-.84-1.876-1.876-1.876"/><path fill="#FF7400" d="M19.544 16.861a.88.88 0 0 1 .877.882l-.012 5.471a.88.88 0 0 1-1.759-.004l.012-5.471a.88.88 0 0 1 .882-.878m-5.089-.195c1.133 0 2.052.918 2.052 2.052v4.299a.88.88 0 1 1-1.759 0v-1.012h-1.947l-.001 1.014a.88.88 0 0 1-1.759-.004l.01-4.302a2.05 2.05 0 0 1 2.052-2.047zm0 1.759h-1.352a.293.293 0 0 0-.293.292l-.005 1.529h1.943v-1.528a.293.293 0 0 0-.293-.293"/><path fill="#444" d="M18.634 4a2.58 2.58 0 0 1 2.58 2.58v.82h-1.642v-.82a.94.94 0 0 0-.938-.938h-5.862a.94.94 0 0 0-.938.938v.82h-1.642v-.82A2.58 2.58 0 0 1 12.772 4zM26.278 12.149a.88.88 0 1 1 0 1.759H5.173a.88.88 0 1 1 0-1.76z"/></g></svg>