<svg xmlns="http://www.w3.org/2000/svg" xmlns:xlink="http://www.w3.org/1999/xlink" width="500" zoomAndPan="magnify" viewBox="0 0 375 374.999991" height="500" preserveAspectRatio="xMidYMid meet" version="1.0"><defs><g/><clipPath id="5aaca1eef0"><path d="M 39.5 146 L 79 146 L 79 214 L 39.5 214 Z M 39.5 146 " clip-rule="nonzero"/></clipPath><clipPath id="c8e54f3146"><path d="M 296 146.367188 L 335.75 146.367188 L 335.75 214 L 296 214 Z M 296 146.367188 " clip-rule="nonzero"/></clipPath><clipPath id="b5971a64b3"><path d="M 168 37.582031 L 208 37.582031 L 208 322.5 L 168 322.5 Z M 168 37.582031 " clip-rule="nonzero"/></clipPath></defs><g clip-path="url(#5aaca1eef0)"><path fill="#5ab4e5" d="M 78.316406 165.84375 C 78.316406 155.148438 69.625 146.472656 58.902344 146.472656 C 48.191406 146.472656 39.5 155.148438 39.5 165.84375 L 39.5 194.25 C 39.5 204.953125 48.191406 213.628906 58.902344 213.628906 C 69.625 213.628906 78.316406 204.953125 78.316406 194.25 L 78.316406 165.84375 " fill-opacity="1" fill-rule="nonzero"/></g><g clip-path="url(#c8e54f3146)"><path fill="#4e2f8b" d="M 316.375 213.628906 C 305.652344 213.628906 296.960938 204.953125 296.960938 194.25 L 296.960938 165.84375 C 296.960938 155.148438 305.652344 146.472656 316.375 146.472656 C 327.09375 146.472656 335.78125 155.148438 335.78125 165.84375 L 335.78125 194.25 C 335.78125 204.953125 327.09375 213.628906 316.375 213.628906 " fill-opacity="1" fill-rule="nonzero"/></g><path fill="#474498" d="M 271.414062 114.886719 L 271.414062 245.207031 C 271.414062 255.910156 262.726562 264.585938 252.007812 264.585938 C 241.285156 264.585938 232.601562 255.910156 232.601562 245.207031 L 232.601562 114.886719 C 232.601562 104.183594 241.285156 95.515625 252.007812 95.515625 C 262.726562 95.515625 271.414062 104.183594 271.414062 114.886719 " fill-opacity="1" fill-rule="nonzero"/><g clip-path="url(#b5971a64b3)"><path fill="#4058a5" d="M 207.050781 56.96875 L 207.050781 303.132812 C 207.050781 313.835938 198.359375 322.503906 187.640625 322.503906 C 176.917969 322.503906 168.234375 313.835938 168.234375 303.132812 L 168.234375 56.96875 C 168.234375 46.265625 176.917969 37.589844 187.640625 37.589844 C 198.359375 37.589844 207.050781 46.265625 207.050781 56.96875 " fill-opacity="1" fill-rule="nonzero"/></g><path fill="#4a81c2" d="M 142.683594 114.886719 L 142.683594 245.207031 C 142.683594 255.910156 133.992188 264.585938 123.273438 264.585938 C 112.558594 264.585938 103.867188 255.910156 103.867188 245.207031 L 103.867188 114.886719 C 103.867188 104.183594 112.558594 95.515625 123.273438 95.515625 C 133.992188 95.515625 142.683594 104.183594 142.683594 114.886719 " fill-opacity="1" fill-rule="nonzero"/><g fill="#ffffff" fill-opacity="1"><g transform="translate(350.056945, 353.031226)"><g><path d="M 0.53125 -0.71875 L 0.53125 -0.640625 L 0.1875 -0.640625 L 0.1875 -0.390625 L 0.5 -0.390625 L 0.5 -0.3125 L 0.1875 -0.3125 L 0.1875 0 L 0.109375 0 L 0.109375 -0.71875 Z M 0.53125 -0.71875 "/></g></g><g transform="translate(350.622861, 353.031226)"><g><path d="M 0.296875 0.015625 C 0.222656 0.015625 0.164062 0 0.125 -0.03125 C 0.09375 -0.0625 0.0703125 -0.101562 0.0625 -0.15625 L 0.125 -0.1875 C 0.132812 -0.15625 0.144531 -0.128906 0.15625 -0.109375 C 0.175781 -0.0976562 0.195312 -0.0859375 0.21875 -0.078125 C 0.238281 -0.0664062 0.265625 -0.0625 0.296875 -0.0625 C 0.335938 -0.0625 0.375 -0.078125 0.40625 -0.109375 C 0.4375 -0.140625 0.453125 -0.179688 0.453125 -0.234375 C 0.453125 -0.285156 0.4375 -0.328125 0.40625 -0.359375 C 0.382812 -0.390625 0.347656 -0.40625 0.296875 -0.40625 C 0.265625 -0.40625 0.234375 -0.394531 0.203125 -0.375 C 0.179688 -0.363281 0.164062 -0.34375 0.15625 -0.3125 L 0.078125 -0.328125 L 0.09375 -0.71875 L 0.5 -0.71875 L 0.5 -0.640625 L 0.171875 -0.640625 L 0.171875 -0.40625 C 0.191406 -0.425781 0.210938 -0.441406 0.234375 -0.453125 C 0.253906 -0.472656 0.285156 -0.484375 0.328125 -0.484375 C 0.367188 -0.484375 0.40625 -0.472656 0.4375 -0.453125 C 0.46875 -0.429688 0.488281 -0.398438 0.5 -0.359375 C 0.519531 -0.328125 0.53125 -0.285156 0.53125 -0.234375 C 0.53125 -0.179688 0.519531 -0.132812 0.5 -0.09375 C 0.476562 -0.0625 0.445312 -0.0351562 0.40625 -0.015625 C 0.375 0.00390625 0.335938 0.015625 0.296875 0.015625 Z M 0.296875 0.015625 "/></g></g><g transform="translate(351.21368, 353.031226)"><g><path d="M 0.5625 -0.71875 L 0.5625 -0.640625 L 0.328125 -0.640625 L 0.328125 0 L 0.25 0 L 0.25 -0.640625 L 0.03125 -0.640625 L 0.03125 -0.71875 Z M 0.5625 -0.71875 "/></g></g><g transform="translate(351.796686, 353.031226)"><g><path d="M 0.5625 -0.71875 L 0.5625 -0.640625 L 0.328125 -0.640625 L 0.328125 0 L 0.25 0 L 0.25 -0.640625 L 0.03125 -0.640625 L 0.03125 -0.71875 Z M 0.5625 -0.71875 "/></g></g><g transform="translate(352.379693, 353.031226)"><g><path d="M 0.3125 0.015625 C 0.269531 0.015625 0.226562 0.0078125 0.1875 0 C 0.15625 -0.0195312 0.125 -0.0390625 0.09375 -0.0625 C 0.0703125 -0.0820312 0.0546875 -0.101562 0.046875 -0.125 L 0.09375 -0.171875 L 0.109375 -0.171875 C 0.148438 -0.0976562 0.21875 -0.0625 0.3125 -0.0625 C 0.363281 -0.0625 0.398438 -0.0703125 0.421875 -0.09375 C 0.453125 -0.125 0.46875 -0.15625 0.46875 -0.1875 C 0.46875 -0.21875 0.460938 -0.238281 0.453125 -0.25 C 0.453125 -0.269531 0.441406 -0.285156 0.421875 -0.296875 C 0.398438 -0.304688 0.367188 -0.316406 0.328125 -0.328125 L 0.25 -0.34375 C 0.1875 -0.363281 0.140625 -0.390625 0.109375 -0.421875 C 0.078125 -0.453125 0.0625 -0.492188 0.0625 -0.546875 C 0.0625 -0.578125 0.0703125 -0.601562 0.09375 -0.625 C 0.113281 -0.65625 0.140625 -0.675781 0.171875 -0.6875 C 0.210938 -0.707031 0.253906 -0.71875 0.296875 -0.71875 C 0.359375 -0.71875 0.40625 -0.707031 0.4375 -0.6875 C 0.476562 -0.675781 0.507812 -0.660156 0.53125 -0.640625 L 0.484375 -0.578125 L 0.46875 -0.578125 C 0.445312 -0.597656 0.421875 -0.613281 0.390625 -0.625 C 0.367188 -0.644531 0.335938 -0.65625 0.296875 -0.65625 C 0.253906 -0.65625 0.21875 -0.644531 0.1875 -0.625 C 0.164062 -0.601562 0.15625 -0.578125 0.15625 -0.546875 C 0.15625 -0.515625 0.160156 -0.488281 0.171875 -0.46875 C 0.191406 -0.445312 0.226562 -0.429688 0.28125 -0.421875 L 0.359375 -0.40625 C 0.429688 -0.382812 0.484375 -0.359375 0.515625 -0.328125 C 0.546875 -0.296875 0.5625 -0.253906 0.5625 -0.203125 C 0.5625 -0.160156 0.550781 -0.125 0.53125 -0.09375 C 0.507812 -0.0625 0.476562 -0.0351562 0.4375 -0.015625 C 0.40625 0.00390625 0.363281 0.015625 0.3125 0.015625 Z M 0.3125 0.015625 "/></g></g></g></svg>