<?xml version="1.0" encoding="UTF-8"?>
<svg width="200px" height="200px" viewBox="0 0 200 200" version="1.1" xmlns="http://www.w3.org/2000/svg" xmlns:xlink="http://www.w3.org/1999/xlink">
    <title>画板</title>
    <defs>
        <linearGradient x1="49.9996322%" y1="0.00106027673%" x2="49.9996322%" y2="100.00106%" id="linearGradient-1">
            <stop stop-color="#3370FF" offset="0%"></stop>
            <stop stop-color="#7F3BF5" offset="100%"></stop>
        </linearGradient>
        <linearGradient x1="49.9995147%" y1="3.45332693e-14%" x2="49.9995147%" y2="100%" id="linearGradient-2">
            <stop stop-color="#3370FF" offset="0%"></stop>
            <stop stop-color="#7F3BF5" offset="100%"></stop>
        </linearGradient>
        <linearGradient x1="49.9985442%" y1="0%" x2="49.9985442%" y2="100%" id="linearGradient-3">
            <stop stop-color="#3370FF" offset="0%"></stop>
            <stop stop-color="#7F3BF5" offset="100%"></stop>
        </linearGradient>
        <linearGradient x1="49.9975992%" y1="1.69981113e-07%" x2="49.9975992%" y2="100.001767%" id="linearGradient-4">
            <stop stop-color="#3370FF" offset="0%"></stop>
            <stop stop-color="#7F3BF5" offset="100%"></stop>
        </linearGradient>
        <linearGradient x1="49.9998814%" y1="0%" x2="49.9998814%" y2="100.000241%" id="linearGradient-5">
            <stop stop-color="#3370FF" offset="0%"></stop>
            <stop stop-color="#7F3BF5" offset="100%"></stop>
        </linearGradient>
    </defs>
    <g id="画板" stroke="none" stroke-width="1" fill="none" fill-rule="evenodd">
        <g id="MaxKB-logo-2" transform="translate(6, 34)" fill-rule="nonzero">
            <g id="MaxKB-logo">
                <path d="M105.705373,122.902708 L77.3096579,122.902708 L66.7850996,133.454936 C65.5243497,134.718989 65.1471987,136.620022 65.8295116,138.271587 C66.5118245,139.923152 68.1192314,141 69.9022008,141 L113.113308,141 C114.896278,141 116.503684,139.923152 117.185997,138.271587 C117.86831,136.620022 117.491159,134.718989 116.230409,133.454936 L105.705373,122.902708 Z" id="路径" fill="url(#linearGradient-1)"></path>
                <path d="M183.738255,40.1102114 L178.140391,40.1102114 L178.140391,79.5909559 L183.738255,79.5909559 C184.868557,79.5909559 185.952563,79.1407623 186.751798,78.3394154 C187.551033,77.5380685 188,76.4512124 188,75.3179495 L188,44.3832177 C188,42.0233389 186.091967,40.1102114 183.738255,40.1102114 L183.738255,40.1102114 Z" id="路径" fill="url(#linearGradient-2)"></path>
                <path d="M9.85960855,40.1102114 L4.26174467,40.1102114 C1.9080326,40.1102114 0,42.0233389 0,44.3832177 L0,75.3179495 C0,76.4512124 0.44896737,77.5380685 1.24820228,78.3394154 C2.0474372,79.1407623 3.13144313,79.5909559 4.26174467,79.5909559 L9.85960855,79.5909559 L9.85960855,40.1102114 Z" id="路径" fill="url(#linearGradient-3)"></path>
                <path d="M115.614453,45.3361965 C111.212205,45.3361965 107.643477,48.9142739 107.643477,53.3280559 L107.643477,59.0583054 C107.643477,63.4722994 111.212376,67.0505485 115.614836,67.0505485 C120.017295,67.0505485 123.586194,63.4722994 123.586194,59.0583054 L123.586194,53.3284397 C123.586194,51.2086673 122.746438,49.1756917 121.251414,47.6768223 C119.756389,46.1779529 117.728686,45.3361965 115.614453,45.3361965 Z" id="路径" fill="url(#linearGradient-4)"></path>
                <path d="M74.0406011,45.3361965 C69.6383529,45.3361965 66.0696257,48.9142739 66.0696257,53.3280559 L66.0696257,59.0583054 C66.0696257,63.4722994 69.6385243,67.0505485 74.0409838,67.0505485 C78.4434434,67.0505485 82.012342,63.4722994 82.012342,59.0583054 L82.012342,53.3284397 C82.012342,51.2086673 81.1725865,49.1756917 79.677562,47.6768223 C78.1825376,46.1779529 76.1548341,45.3361965 74.0406011,45.3361965 Z" id="路径" fill="url(#linearGradient-4)"></path>
                <path d="M142.432718,0 L45.5671861,0 C27.7570853,0.0201443243 13.3241568,14.490887 13.3040651,32.3476503 L13.3040651,87.101001 C13.3241036,104.957864 27.756986,119.428775 45.5671861,119.449131 L142.432718,119.449131 C160.243083,119.428987 174.676226,104.958029 174.696318,87.101001 L174.696318,32.3476503 C174.676173,14.4907219 160.242984,0.0199327814 142.432718,0 L142.432718,0 Z M145.141702,86.7742271 C145.141702,89.992239 142.539765,92.6009399 139.330162,92.6009929 L92.0825642,92.6009929 C84.9338095,92.6009505 77.9050109,94.4429925 71.6706473,97.9503578 L55.8198891,106.867661 L55.8198891,92.6012807 L48.6699337,92.6012807 C45.4603309,92.6012277 42.8583941,89.9925268 42.8583941,86.7745149 L42.8583941,28.7303985 C42.8583941,25.5124021 45.4603464,22.9037286 48.6699337,22.9037286 L139.329779,22.9037286 C142.539404,22.9037286 145.141702,25.5124605 145.141702,28.7304944 L145.141702,86.7742271 Z" id="形状" fill="url(#linearGradient-5)"></path>
            </g>
        </g>
    </g>
</svg>